<svg xmlns="http://www.w3.org/2000/svg" width="900" height="560" viewBox="0 0 900 560">
  <style>
    text { font-family: -apple-system, BlinkMacSystemFont, "Segoe UI", sans-serif; font-size: 13px; fill: #222; }
    .title { font-size: 20px; font-weight: 700; }
    .label { font-size: 15px; font-weight: 600; }
  </style>
  <rect width="100%" height="100%" fill="white" />
  <text class="title" x="450.0" y="28" text-anchor="middle">P_cut: CPU power vs one-satellite eclipse energy (safe battery 20%)</text>
  <rect x="90" y="50" width="780" height="430" fill="#fafafa" stroke="#ccc" />
  <line x1="84" y1="480.00" x2="90" y2="480.00" stroke="#333" /><text x="80" y="484.00" text-anchor="end">0</text><line x1="90" y1="480.00" x2="870" y2="480.00" stroke="#eee" />
<line x1="84" y1="372.50" x2="90" y2="372.50" stroke="#333" /><text x="80" y="376.50" text-anchor="end">50</text><line x1="90" y1="372.50" x2="870" y2="372.50" stroke="#eee" />
<line x1="84" y1="265.00" x2="90" y2="265.00" stroke="#333" /><text x="80" y="269.00" text-anchor="end">100</text><line x1="90" y1="265.00" x2="870" y2="265.00" stroke="#eee" />
<line x1="84" y1="157.50" x2="90" y2="157.50" stroke="#333" /><text x="80" y="161.50" text-anchor="end">150</text><line x1="90" y1="157.50" x2="870" y2="157.50" stroke="#eee" />
<line x1="84" y1="50.00" x2="90" y2="50.00" stroke="#333" /><text x="80" y="54.00" text-anchor="end">200</text><line x1="90" y1="50.00" x2="870" y2="50.00" stroke="#eee" />
  <line x1="90" y1="480" x2="870" y2="480" stroke="#333" />
  <line x1="90" y1="50" x2="90" y2="480" stroke="#333" />
  <line x1="90.00" y1="480" x2="90.00" y2="486" stroke="#333" /><text x="90.00" y="515" text-anchor="middle">0</text>
<line x1="220.00" y1="480" x2="220.00" y2="486" stroke="#333" /><text x="220.00" y="515" text-anchor="middle">10</text>
<line x1="350.00" y1="480" x2="350.00" y2="486" stroke="#333" /><text x="350.00" y="515" text-anchor="middle">20</text>
<line x1="480.00" y1="480" x2="480.00" y2="486" stroke="#333" /><text x="480.00" y="515" text-anchor="middle">30</text>
<line x1="610.00" y1="480" x2="610.00" y2="486" stroke="#333" /><text x="610.00" y="515" text-anchor="middle">40</text>
<line x1="740.00" y1="480" x2="740.00" y2="486" stroke="#333" /><text x="740.00" y="515" text-anchor="middle">50</text>
<line x1="870.00" y1="480" x2="870.00" y2="486" stroke="#333" /><text x="870.00" y="515" text-anchor="middle">60</text>
  <line x1="90" y1="108.48" x2="870" y2="108.48" stroke="#ff7f0e" stroke-width="2" stroke-dasharray="10 5" /><text x="864" y="100.48" text-anchor="end" fill="#ff7f0e">safe battery budget 172.8 kJ; limit ≈ 86.0 W</text>
  <line x1="90" y1="463.49" x2="870" y2="463.49" stroke="#d62728" stroke-width="2" stroke-dasharray="6 4" /><text x="864" y="455.49" text-anchor="end" fill="#d62728">idle baseline 7.68 kJ</text>
  <polyline points="90.00,463.49 155.00,442.85 220.00,422.21 285.00,401.57 350.00,380.93 415.00,360.29 480.00,339.65 545.00,319.01 610.00,298.37 675.00,277.73 740.00,257.09 805.00,236.45 870.00,215.81" fill="none" stroke="#1f77b4" stroke-width="3" />
  <circle cx="90.00" cy="463.49" r="4" fill="#1f77b4" />
<circle cx="155.00" cy="442.85" r="4" fill="#1f77b4" />
<circle cx="220.00" cy="422.21" r="4" fill="#1f77b4" />
<circle cx="285.00" cy="401.57" r="4" fill="#1f77b4" />
<circle cx="350.00" cy="380.93" r="4" fill="#1f77b4" />
<circle cx="415.00" cy="360.29" r="4" fill="#1f77b4" />
<circle cx="480.00" cy="339.65" r="4" fill="#1f77b4" />
<circle cx="545.00" cy="319.01" r="4" fill="#1f77b4" />
<circle cx="610.00" cy="298.37" r="4" fill="#1f77b4" />
<circle cx="675.00" cy="277.73" r="4" fill="#1f77b4" />
<circle cx="740.00" cy="257.09" r="4" fill="#1f77b4" />
<circle cx="805.00" cy="236.45" r="4" fill="#1f77b4" />
<circle cx="870.00" cy="215.81" r="4" fill="#1f77b4" />
  <text class="label" x="480.0" y="548" text-anchor="middle">CPU power (W)</text>
  <text class="label" transform="translate(22 265.0) rotate(-90)" text-anchor="middle">Total eclipse energy (kJ)</text>
</svg>
