<svg xmlns="http://www.w3.org/2000/svg" width="690" height="556" viewBox="0 0 690 556">
<style>
text { font-family: -apple-system, BlinkMacSystemFont, "Segoe UI", sans-serif; fill: #222; font-size: 13px; }
.title { font-size: 20px; font-weight: 700; }
.axis { font-size: 14px; font-weight: 600; }
.note { font-size: 12px; fill: #666; }
</style>
<rect width="100%" height="100%" fill="white" />
<text class="title" x="345.0" y="28" text-anchor="middle">P_cut by constellation and minimum battery</text>
<text class="note" x="345.0" y="50" text-anchor="middle">Eclipse duration uses p75 from experiments/eclipse_time; cell values are P_cut in W</text>
<text class="axis" x="187.5" y="74" text-anchor="middle">Starlink 1584</text>
<text class="note" x="187.5" y="530" text-anchor="middle">p75 35 min</text>
<text class="axis" x="322.5" y="74" text-anchor="middle">Kuiper 784</text>
<text class="note" x="322.5" y="530" text-anchor="middle">p75 35.5 min</text>
<text class="axis" x="457.5" y="74" text-anchor="middle">OneWeb 648</text>
<text class="note" x="457.5" y="530" text-anchor="middle">p75 33.5 min</text>
<text class="axis" x="592.5" y="74" text-anchor="middle">Iridium 66</text>
<text class="note" x="592.5" y="530" text-anchor="middle">p75 33.5 min</text>
<text class="axis" x="108" y="114.0" text-anchor="end">E_safe 90%</text>
<rect x="120" y="88" width="135" height="42" fill="#feede5" stroke="#ccc" />
<text x="187.5" y="114.0" text-anchor="middle">6.29</text>
<rect x="255" y="88" width="135" height="42" fill="#ffeee6" stroke="#ccc" />
<text x="322.5" y="114.0" text-anchor="middle">6.14</text>
<rect x="390" y="88" width="135" height="42" fill="#feede4" stroke="#ccc" />
<text x="457.5" y="114.0" text-anchor="middle">6.75</text>
<rect x="525" y="88" width="135" height="42" fill="#feede4" stroke="#ccc" />
<text x="592.5" y="114.0" text-anchor="middle">6.75</text>
<text class="axis" x="108" y="156.0" text-anchor="end">E_safe 80%</text>
<rect x="120" y="130" width="135" height="42" fill="#eee5d1" stroke="#ccc" />
<text x="187.5" y="156.0" text-anchor="middle">16.57</text>
<rect x="255" y="130" width="135" height="42" fill="#efe5d2" stroke="#ccc" />
<text x="322.5" y="156.0" text-anchor="middle">16.28</text>
<rect x="390" y="130" width="135" height="42" fill="#ede4cf" stroke="#ccc" />
<text x="457.5" y="156.0" text-anchor="middle">17.49</text>
<rect x="525" y="130" width="135" height="42" fill="#ede4cf" stroke="#ccc" />
<text x="592.5" y="156.0" text-anchor="middle">17.49</text>
<text class="axis" x="108" y="198.0" text-anchor="end">E_safe 70%</text>
<rect x="120" y="172" width="135" height="42" fill="#dfdcbd" stroke="#ccc" />
<text x="187.5" y="198.0" text-anchor="middle">26.86</text>
<rect x="255" y="172" width="135" height="42" fill="#dfddbe" stroke="#ccc" />
<text x="322.5" y="198.0" text-anchor="middle">26.42</text>
<rect x="390" y="172" width="135" height="42" fill="#dcdbba" stroke="#ccc" />
<text x="457.5" y="198.0" text-anchor="middle">28.24</text>
<rect x="525" y="172" width="135" height="42" fill="#dcdbba" stroke="#ccc" />
<text x="592.5" y="198.0" text-anchor="middle">28.24</text>
<text class="axis" x="108" y="240.0" text-anchor="end">E_safe 60%</text>
<rect x="120" y="214" width="135" height="42" fill="#cfd4a9" stroke="#ccc" />
<text x="187.5" y="240.0" text-anchor="middle">37.14</text>
<rect x="255" y="214" width="135" height="42" fill="#d0d4aa" stroke="#ccc" />
<text x="322.5" y="240.0" text-anchor="middle">36.56</text>
<rect x="390" y="214" width="135" height="42" fill="#ccd3a5" stroke="#ccc" />
<text x="457.5" y="240.0" text-anchor="middle">38.99</text>
<rect x="525" y="214" width="135" height="42" fill="#ccd3a5" stroke="#ccc" />
<text x="592.5" y="240.0" text-anchor="middle">38.99</text>
<text class="axis" x="108" y="282.0" text-anchor="end">E_safe 50%</text>
<rect x="120" y="256" width="135" height="42" fill="#bfcc95" stroke="#ccc" />
<text x="187.5" y="282.0" text-anchor="middle">47.43</text>
<rect x="255" y="256" width="135" height="42" fill="#c0cc96" stroke="#ccc" />
<text x="322.5" y="282.0" text-anchor="middle">46.70</text>
<rect x="390" y="256" width="135" height="42" fill="#bbca90" stroke="#ccc" />
<text x="457.5" y="282.0" text-anchor="middle">49.73</text>
<rect x="525" y="256" width="135" height="42" fill="#bbca90" stroke="#ccc" />
<text x="592.5" y="282.0" text-anchor="middle">49.73</text>
<text class="axis" x="108" y="324.0" text-anchor="end">E_safe 40%</text>
<rect x="120" y="298" width="135" height="42" fill="#afc381" stroke="#ccc" />
<text x="187.5" y="324.0" text-anchor="middle">57.71</text>
<rect x="255" y="298" width="135" height="42" fill="#b0c483" stroke="#ccc" />
<text x="322.5" y="324.0" text-anchor="middle">56.85</text>
<rect x="390" y="298" width="135" height="42" fill="#abc17b" stroke="#ccc" />
<text x="457.5" y="324.0" text-anchor="middle">60.48</text>
<rect x="525" y="298" width="135" height="42" fill="#abc17b" stroke="#ccc" />
<text x="592.5" y="324.0" text-anchor="middle">60.48</text>
<text class="axis" x="108" y="366.0" text-anchor="end">E_safe 30%</text>
<rect x="120" y="340" width="135" height="42" fill="#9fbb6d" stroke="#ccc" />
<text x="187.5" y="366.0" text-anchor="middle">68.00</text>
<rect x="255" y="340" width="135" height="42" fill="#a1bb6f" stroke="#ccc" />
<text x="322.5" y="366.0" text-anchor="middle">66.99</text>
<rect x="390" y="340" width="135" height="42" fill="#9ab866" stroke="#ccc" />
<text x="457.5" y="366.0" text-anchor="middle">71.22</text>
<rect x="525" y="340" width="135" height="42" fill="#9ab866" stroke="#ccc" />
<text x="592.5" y="366.0" text-anchor="middle">71.22</text>
<text class="axis" x="108" y="408.0" text-anchor="end">E_safe 20%</text>
<rect x="120" y="382" width="135" height="42" fill="#8fb259" stroke="#ccc" />
<text x="187.5" y="408.0" text-anchor="middle">78.29</text>
<rect x="255" y="382" width="135" height="42" fill="#91b35b" stroke="#ccc" />
<text x="322.5" y="408.0" text-anchor="middle">77.13</text>
<rect x="390" y="382" width="135" height="42" fill="#8aaf51" stroke="#ccc" />
<text x="457.5" y="408.0" text-anchor="middle">81.97</text>
<rect x="525" y="382" width="135" height="42" fill="#8aaf51" stroke="#ccc" />
<text x="592.5" y="408.0" text-anchor="middle">81.97</text>
<text class="axis" x="108" y="450.0" text-anchor="end">E_safe 10%</text>
<rect x="120" y="424" width="135" height="42" fill="#7faa45" stroke="#ccc" />
<text x="187.5" y="450.0" text-anchor="middle">88.57</text>
<rect x="255" y="424" width="135" height="42" fill="#81ab47" stroke="#ccc" />
<text x="322.5" y="450.0" text-anchor="middle">87.27</text>
<rect x="390" y="424" width="135" height="42" fill="#79a63c" stroke="#ccc" />
<text x="457.5" y="450.0" text-anchor="middle">92.72</text>
<rect x="525" y="424" width="135" height="42" fill="#79a63c" stroke="#ccc" />
<text x="592.5" y="450.0" text-anchor="middle">92.72</text>
<text class="axis" x="108" y="492.0" text-anchor="end">E_safe 0%</text>
<rect x="120" y="466" width="135" height="42" fill="#70a130" stroke="#ccc" />
<text x="187.5" y="492.0" text-anchor="middle">98.86</text>
<rect x="255" y="466" width="135" height="42" fill="#72a233" stroke="#ccc" />
<text x="322.5" y="492.0" text-anchor="middle">97.41</text>
<rect x="390" y="466" width="135" height="42" fill="#699e28" stroke="#ccc" />
<text x="457.5" y="492.0" text-anchor="middle">103.46</text>
<rect x="525" y="466" width="135" height="42" fill="#699e28" stroke="#ccc" />
<text x="592.5" y="492.0" text-anchor="middle">103.46</text>
<text class="axis" transform="translate(24 298.0) rotate(-90)" text-anchor="middle">minimum safe battery E_safe</text>
</svg>
