<svg xmlns="http://www.w3.org/2000/svg" width="960" height="520" viewBox="0 0 960 520">
  <style>text { font-family: -apple-system, BlinkMacSystemFont, &quot;Segoe UI&quot;, sans-serif; fill: #222; font-size: 13px; } .title { font-size: 21px; font-weight: 700; } .label { font-size: 15px; font-weight: 600; }</style>
  <rect width="100%" height="100%" fill="white" />
  <text class="title" x="480.0" y="30" text-anchor="middle">Kuiper 784: battery breach ratio by CPU power</text>
  <text x="480.0" y="52" text-anchor="middle" fill="#666">input data size per 30s slot</text>
  <line x1="82" y1="434" x2="780" y2="434" stroke="#999" />
  <line x1="82" y1="72" x2="82" y2="434" stroke="#999" />
  <line x1="82" y1="434.0" x2="780" y2="434.0" stroke="#e5e5e5" />
  <text x="72" y="438.0" text-anchor="end">0.0</text>
  <line x1="82" y1="393.8" x2="780" y2="393.8" stroke="#e5e5e5" />
  <text x="72" y="397.8" text-anchor="end">0.1</text>
  <line x1="82" y1="353.6" x2="780" y2="353.6" stroke="#e5e5e5" />
  <text x="72" y="357.6" text-anchor="end">0.2</text>
  <line x1="82" y1="313.3" x2="780" y2="313.3" stroke="#e5e5e5" />
  <text x="72" y="317.3" text-anchor="end">0.3</text>
  <line x1="82" y1="273.1" x2="780" y2="273.1" stroke="#e5e5e5" />
  <text x="72" y="277.1" text-anchor="end">0.4</text>
  <line x1="82" y1="232.9" x2="780" y2="232.9" stroke="#e5e5e5" />
  <text x="72" y="236.9" text-anchor="end">0.5</text>
  <line x1="82" y1="192.7" x2="780" y2="192.7" stroke="#e5e5e5" />
  <text x="72" y="196.7" text-anchor="end">0.6</text>
  <line x1="82" y1="152.4" x2="780" y2="152.4" stroke="#e5e5e5" />
  <text x="72" y="156.4" text-anchor="end">0.7</text>
  <line x1="82" y1="112.2" x2="780" y2="112.2" stroke="#e5e5e5" />
  <text x="72" y="116.2" text-anchor="end">0.8</text>
  <line x1="82" y1="72.0" x2="780" y2="72.0" stroke="#e5e5e5" />
  <text x="72" y="76.0" text-anchor="end">0.9</text>
  <line x1="82.0" y1="434" x2="82.0" y2="439" stroke="#999" />
  <text x="82.0" y="458" text-anchor="middle">5GB</text>
  <line x1="221.6" y1="434" x2="221.6" y2="439" stroke="#999" />
  <text x="221.6" y="458" text-anchor="middle">10GB</text>
  <line x1="361.2" y1="434" x2="361.2" y2="439" stroke="#999" />
  <text x="361.2" y="458" text-anchor="middle">15GB</text>
  <line x1="500.8" y1="434" x2="500.8" y2="439" stroke="#999" />
  <text x="500.8" y="458" text-anchor="middle">20GB</text>
  <line x1="640.4" y1="434" x2="640.4" y2="439" stroke="#999" />
  <text x="640.4" y="458" text-anchor="middle">25GB</text>
  <line x1="780.0" y1="434" x2="780.0" y2="439" stroke="#999" />
  <text x="780.0" y="458" text-anchor="middle">30GB</text>
  <polyline points="82.0,434.0 221.6,434.0 361.2,434.0 500.8,434.0 640.4,434.0 780.0,434.0" fill="none" stroke="#1f77b4" stroke-width="2.5" />
  <circle cx="82.0" cy="434.0" r="4" fill="#1f77b4"><title>CPU 20W, 5GB, breach ratio 0.0000</title></circle>
  <circle cx="221.6" cy="434.0" r="4" fill="#1f77b4"><title>CPU 20W, 10GB, breach ratio 0.0000</title></circle>
  <circle cx="361.2" cy="434.0" r="4" fill="#1f77b4"><title>CPU 20W, 15GB, breach ratio 0.0000</title></circle>
  <circle cx="500.8" cy="434.0" r="4" fill="#1f77b4"><title>CPU 20W, 20GB, breach ratio 0.0000</title></circle>
  <circle cx="640.4" cy="434.0" r="4" fill="#1f77b4"><title>CPU 20W, 25GB, breach ratio 0.0000</title></circle>
  <circle cx="780.0" cy="434.0" r="4" fill="#1f77b4"><title>CPU 20W, 30GB, breach ratio 0.0000</title></circle>
  <line x1="808" y1="72" x2="838" y2="72" stroke="#1f77b4" stroke-width="2.5" />
  <text x="846" y="76">20W</text>
  <polyline points="82.0,292.9 221.6,275.5 361.2,270.9 500.8,264.2 640.4,260.1 780.0,257.5" fill="none" stroke="#d62728" stroke-width="2.5" />
  <circle cx="82.0" cy="292.9" r="4" fill="#d62728"><title>CPU 30W, 5GB, breach ratio 0.3508</title></circle>
  <circle cx="221.6" cy="275.5" r="4" fill="#d62728"><title>CPU 30W, 10GB, breach ratio 0.3941</title></circle>
  <circle cx="361.2" cy="270.9" r="4" fill="#d62728"><title>CPU 30W, 15GB, breach ratio 0.4056</title></circle>
  <circle cx="500.8" cy="264.2" r="4" fill="#d62728"><title>CPU 30W, 20GB, breach ratio 0.4222</title></circle>
  <circle cx="640.4" cy="260.1" r="4" fill="#d62728"><title>CPU 30W, 25GB, breach ratio 0.4324</title></circle>
  <circle cx="780.0" cy="257.5" r="4" fill="#d62728"><title>CPU 30W, 30GB, breach ratio 0.4388</title></circle>
  <line x1="808" y1="96" x2="838" y2="96" stroke="#d62728" stroke-width="2.5" />
  <text x="846" y="100">30W</text>
  <polyline points="82.0,182.1 221.6,162.6 361.2,148.8 500.8,133.4 640.4,128.2 780.0,127.7" fill="none" stroke="#2ca02c" stroke-width="2.5" />
  <circle cx="82.0" cy="182.1" r="4" fill="#2ca02c"><title>CPU 40W, 5GB, breach ratio 0.6263</title></circle>
  <circle cx="221.6" cy="162.6" r="4" fill="#2ca02c"><title>CPU 40W, 10GB, breach ratio 0.6747</title></circle>
  <circle cx="361.2" cy="148.8" r="4" fill="#2ca02c"><title>CPU 40W, 15GB, breach ratio 0.7092</title></circle>
  <circle cx="500.8" cy="133.4" r="4" fill="#2ca02c"><title>CPU 40W, 20GB, breach ratio 0.7474</title></circle>
  <circle cx="640.4" cy="128.2" r="4" fill="#2ca02c"><title>CPU 40W, 25GB, breach ratio 0.7602</title></circle>
  <circle cx="780.0" cy="127.7" r="4" fill="#2ca02c"><title>CPU 40W, 30GB, breach ratio 0.7615</title></circle>
  <line x1="808" y1="120" x2="838" y2="120" stroke="#2ca02c" stroke-width="2.5" />
  <text x="846" y="124">40W</text>
  <polyline points="82.0,157.0 221.6,137.0 361.2,114.4 500.8,106.7 640.4,105.1 780.0,102.6" fill="none" stroke="#9467bd" stroke-width="2.5" />
  <circle cx="82.0" cy="157.0" r="4" fill="#9467bd"><title>CPU 50W, 5GB, breach ratio 0.6888</title></circle>
  <circle cx="221.6" cy="137.0" r="4" fill="#9467bd"><title>CPU 50W, 10GB, breach ratio 0.7385</title></circle>
  <circle cx="361.2" cy="114.4" r="4" fill="#9467bd"><title>CPU 50W, 15GB, breach ratio 0.7946</title></circle>
  <circle cx="500.8" cy="106.7" r="4" fill="#9467bd"><title>CPU 50W, 20GB, breach ratio 0.8138</title></circle>
  <circle cx="640.4" cy="105.1" r="4" fill="#9467bd"><title>CPU 50W, 25GB, breach ratio 0.8176</title></circle>
  <circle cx="780.0" cy="102.6" r="4" fill="#9467bd"><title>CPU 50W, 30GB, breach ratio 0.8240</title></circle>
  <line x1="808" y1="144" x2="838" y2="144" stroke="#9467bd" stroke-width="2.5" />
  <text x="846" y="148">50W</text>
  <text class="label" x="431.0" y="498" text-anchor="middle">data size per time slot</text>
  <text class="label" transform="translate(24 253.0) rotate(-90)" text-anchor="middle">breach ratio</text>
</svg>
