<svg xmlns="http://www.w3.org/2000/svg" width="980" height="610" viewBox="0 0 980 610">
  <style>
    text { font-family: -apple-system, BlinkMacSystemFont, "Segoe UI", sans-serif; font-size: 13px; fill: #222; }
    .title { font-size: 20px; font-weight: 700; }
    .label { font-size: 15px; font-weight: 600; }
    .note { font-size: 12px; fill: #666; }
  </style>
  <rect width="100%" height="100%" fill="white" />
  <text class="title" x="490.0" y="28" text-anchor="middle">P_cut by minimum battery limit</text>
  <text class="note" x="490.0" y="49" text-anchor="middle">One satellite, 1920s eclipse, idle power 4 W</text>
  <rect x="90" y="58" width="850" height="470" fill="#fafafa" stroke="#ccc" />
  <line x1="84" y1="528.00" x2="90" y2="528.00" stroke="#333" /><text x="80" y="532.00" text-anchor="end">0</text><line x1="90" y1="528.00" x2="940" y2="528.00" stroke="#eee" />
<line x1="84" y1="410.50" x2="90" y2="410.50" stroke="#333" /><text x="80" y="414.50" text-anchor="end">50</text><line x1="90" y1="410.50" x2="940" y2="410.50" stroke="#eee" />
<line x1="84" y1="293.00" x2="90" y2="293.00" stroke="#333" /><text x="80" y="297.00" text-anchor="end">100</text><line x1="90" y1="293.00" x2="940" y2="293.00" stroke="#eee" />
<line x1="84" y1="175.50" x2="90" y2="175.50" stroke="#333" /><text x="80" y="179.50" text-anchor="end">150</text><line x1="90" y1="175.50" x2="940" y2="175.50" stroke="#eee" />
<line x1="84" y1="58.00" x2="90" y2="58.00" stroke="#333" /><text x="80" y="62.00" text-anchor="end">200</text><line x1="90" y1="58.00" x2="940" y2="58.00" stroke="#eee" />
  <line x1="90" y1="528" x2="940" y2="528" stroke="#333" />
  <line x1="90" y1="58" x2="90" y2="528" stroke="#333" />
  <line x1="90.00" y1="528" x2="90.00" y2="534" stroke="#333" /><text x="90.00" y="566" text-anchor="middle">0</text>
<line x1="260.00" y1="528" x2="260.00" y2="534" stroke="#333" /><text x="260.00" y="566" text-anchor="middle">20</text>
<line x1="430.00" y1="528" x2="430.00" y2="534" stroke="#333" /><text x="430.00" y="566" text-anchor="middle">40</text>
<line x1="600.00" y1="528" x2="600.00" y2="534" stroke="#333" /><text x="600.00" y="566" text-anchor="middle">60</text>
<line x1="770.00" y1="528" x2="770.00" y2="534" stroke="#333" /><text x="770.00" y="566" text-anchor="middle">80</text>
<line x1="940.00" y1="528" x2="940.00" y2="534" stroke="#333" /><text x="940.00" y="566" text-anchor="middle">100</text>
  <line x1="90.00" y1="509.95" x2="940.00" y2="58.75" stroke="#1f77b4" stroke-width="3" />
  <circle cx="90.00" cy="509.95" r="4" fill="#1f77b4" />
<circle cx="132.50" cy="487.39" r="4" fill="#1f77b4" />
<circle cx="175.00" cy="464.83" r="4" fill="#1f77b4" />
<circle cx="217.50" cy="442.27" r="4" fill="#1f77b4" />
<circle cx="260.00" cy="419.71" r="4" fill="#1f77b4" />
<circle cx="302.50" cy="397.15" r="4" fill="#1f77b4" />
<circle cx="345.00" cy="374.59" r="4" fill="#1f77b4" />
<circle cx="387.50" cy="352.03" r="4" fill="#1f77b4" />
<circle cx="430.00" cy="329.47" r="4" fill="#1f77b4" />
<circle cx="472.50" cy="306.91" r="4" fill="#1f77b4" />
<circle cx="515.00" cy="284.35" r="4" fill="#1f77b4" />
<circle cx="557.50" cy="261.79" r="4" fill="#1f77b4" />
<circle cx="600.00" cy="239.23" r="4" fill="#1f77b4" />
  <line x1="90" y1="121.92" x2="940" y2="121.92" stroke="#d62728" stroke-width="2" stroke-dasharray="8 5" /><line x1="821.00" y1="121.92" x2="821.00" y2="528" stroke="#d62728" stroke-width="2" stroke-dasharray="4 5" /><circle cx="821.00" cy="121.92" r="5" fill="#d62728" /><text x="829.00" y="111.92" text-anchor="start" fill="#d62728">20% min: P_cut ≈ 86.0 W</text><line x1="90" y1="274.20" x2="940" y2="274.20" stroke="#ff7f0e" stroke-width="2" stroke-dasharray="8 5" /><line x1="534.12" y1="274.20" x2="534.12" y2="528" stroke="#ff7f0e" stroke-width="2" stroke-dasharray="4 5" /><circle cx="534.12" cy="274.20" r="5" fill="#ff7f0e" /><text x="542.12" y="262.20" text-anchor="start" fill="#ff7f0e">50% min: P_cut ≈ 52.2 W</text><line x1="90" y1="375.72" x2="940" y2="375.72" stroke="#2ca02c" stroke-width="2" stroke-dasharray="8 5" /><line x1="342.88" y1="375.72" x2="342.88" y2="528" stroke="#2ca02c" stroke-width="2" stroke-dasharray="4 5" /><circle cx="342.88" cy="375.72" r="5" fill="#2ca02c" /><text x="350.88" y="361.72" text-anchor="start" fill="#2ca02c">70% min: P_cut ≈ 29.8 W</text>
  <text class="label" x="515.0" y="598" text-anchor="middle">CPU power (W)</text>
  <text class="label" transform="translate(22 293.0) rotate(-90)" text-anchor="middle">Total eclipse energy (kJ)</text>
</svg>
