<?xml version="1.0" encoding="utf-8" standalone="no"?>
<!DOCTYPE svg PUBLIC "-//W3C//DTD SVG 1.1//EN"
  "http://www.w3.org/Graphics/SVG/1.1/DTD/svg11.dtd">
<svg xmlns:xlink="http://www.w3.org/1999/xlink" width="755.19pt" height="516.23375pt" viewBox="0 0 755.19 516.23375" xmlns="http://www.w3.org/2000/svg" version="1.1">
 <metadata>
  <rdf:RDF xmlns:dc="http://purl.org/dc/elements/1.1/" xmlns:cc="http://creativecommons.org/ns#" xmlns:rdf="http://www.w3.org/1999/02/22-rdf-syntax-ns#">
   <cc:Work>
    <dc:type rdf:resource="http://purl.org/dc/dcmitype/StillImage"/>
    <dc:date>2026-07-01T23:09:47.480992</dc:date>
    <dc:format>image/svg+xml</dc:format>
    <dc:creator>
     <cc:Agent>
      <dc:title>Matplotlib v3.11.0, https://matplotlib.org/</dc:title>
     </cc:Agent>
    </dc:creator>
   </cc:Work>
  </rdf:RDF>
 </metadata>
 <defs>
  <style type="text/css">*{stroke-linejoin: round; stroke-linecap: butt}</style>
 </defs>
 <g id="figure_1">
  <g id="patch_1">
   <path d="M 0 516.23375 
L 755.19 516.23375 
L 755.19 0 
L 0 0 
z
" style="fill: #ffffff"/>
  </g>
  <g id="axes_1">
   <g id="patch_2">
    <path d="M 128.09 409.030625 
L 717.45 409.030625 
L 717.45 19.35625 
L 128.09 19.35625 
z
" style="fill: #ffffff"/>
   </g>
   <g id="matplotlib.axis_1">
    <g id="xtick_1">
     <g id="line2d_1">
      <path d="M 156.154762 409.030625 
L 156.154762 19.35625 
" clip-path="url(#p890342b59d)" style="fill: none; stroke: #d9d9d9; stroke-opacity: 0.65; stroke-width: 1.15; stroke-linecap: square"/>
     </g>
     <g id="line2d_2">
      <defs>
       <path id="m2938f721ee" d="M 0 0 
L 0 -7 
" style="stroke: #4f5156; stroke-width: 1.35"/>
      </defs>
      <g>
       <use xlink:href="#m2938f721ee" x="156.154762" y="409.030625" style="fill: #4f5156; stroke: #4f5156; stroke-width: 1.35"/>
      </g>
     </g>
     <g id="line2d_3">
      <defs>
       <path id="m5f68de9a58" d="M 0 0 
L 0 7 
" style="stroke: #4f5156; stroke-width: 1.35"/>
      </defs>
      <g>
       <use xlink:href="#m5f68de9a58" x="156.154762" y="19.35625" style="fill: #4f5156; stroke: #4f5156; stroke-width: 1.35"/>
      </g>
     </g>
     <g id="text_1">
      <!-- 60 -->
      <g style="fill: #4f5156" transform="translate(135.794762 447.343125) scale(0.32 -0.32)">
       <defs>
        <path id="DejaVuSans-19" d="M 2113 2584 
Q 1688 2584 1439 2293 
Q 1191 2003 1191 1497 
Q 1191 994 1439 701 
Q 1688 409 2113 409 
Q 2538 409 2786 701 
Q 3034 994 3034 1497 
Q 3034 2003 2786 2293 
Q 2538 2584 2113 2584 
z
M 3366 4563 
L 3366 3988 
Q 3128 4100 2886 4159 
Q 2644 4219 2406 4219 
Q 1781 4219 1451 3797 
Q 1122 3375 1075 2522 
Q 1259 2794 1537 2939 
Q 1816 3084 2150 3084 
Q 2853 3084 3261 2657 
Q 3669 2231 3669 1497 
Q 3669 778 3244 343 
Q 2819 -91 2113 -91 
Q 1303 -91 875 529 
Q 447 1150 447 2328 
Q 447 3434 972 4092 
Q 1497 4750 2381 4750 
Q 2619 4750 2861 4703 
Q 3103 4656 3366 4563 
z
" transform="scale(0.015625)"/>
        <path id="DejaVuSans-13" d="M 2034 4250 
Q 1547 4250 1301 3770 
Q 1056 3291 1056 2328 
Q 1056 1369 1301 889 
Q 1547 409 2034 409 
Q 2525 409 2770 889 
Q 3016 1369 3016 2328 
Q 3016 3291 2770 3770 
Q 2525 4250 2034 4250 
z
M 2034 4750 
Q 2819 4750 3233 4129 
Q 3647 3509 3647 2328 
Q 3647 1150 3233 529 
Q 2819 -91 2034 -91 
Q 1250 -91 836 529 
Q 422 1150 422 2328 
Q 422 3509 836 4129 
Q 1250 4750 2034 4750 
z
" transform="scale(0.015625)"/>
       </defs>
       <use xlink:href="#DejaVuSans-19"/>
       <use xlink:href="#DejaVuSans-13" transform="translate(63.625 0)"/>
      </g>
     </g>
    </g>
    <g id="xtick_2">
     <g id="line2d_4">
      <path d="M 296.478571 409.030625 
L 296.478571 19.35625 
" clip-path="url(#p890342b59d)" style="fill: none; stroke: #d9d9d9; stroke-opacity: 0.65; stroke-width: 1.15; stroke-linecap: square"/>
     </g>
     <g id="line2d_5">
      <g>
       <use xlink:href="#m2938f721ee" x="296.478571" y="409.030625" style="fill: #4f5156; stroke: #4f5156; stroke-width: 1.35"/>
      </g>
     </g>
     <g id="line2d_6">
      <g>
       <use xlink:href="#m5f68de9a58" x="296.478571" y="19.35625" style="fill: #4f5156; stroke: #4f5156; stroke-width: 1.35"/>
      </g>
     </g>
     <g id="text_2">
      <!-- 70 -->
      <g style="fill: #4f5156" transform="translate(276.118571 447.343125) scale(0.32 -0.32)">
       <defs>
        <path id="DejaVuSans-1a" d="M 525 4666 
L 3525 4666 
L 3525 4397 
L 1831 0 
L 1172 0 
L 2766 4134 
L 525 4134 
L 525 4666 
z
" transform="scale(0.015625)"/>
       </defs>
       <use xlink:href="#DejaVuSans-1a"/>
       <use xlink:href="#DejaVuSans-13" transform="translate(63.625 0)"/>
      </g>
     </g>
    </g>
    <g id="xtick_3">
     <g id="line2d_7">
      <path d="M 436.802381 409.030625 
L 436.802381 19.35625 
" clip-path="url(#p890342b59d)" style="fill: none; stroke: #d9d9d9; stroke-opacity: 0.65; stroke-width: 1.15; stroke-linecap: square"/>
     </g>
     <g id="line2d_8">
      <g>
       <use xlink:href="#m2938f721ee" x="436.802381" y="409.030625" style="fill: #4f5156; stroke: #4f5156; stroke-width: 1.35"/>
      </g>
     </g>
     <g id="line2d_9">
      <g>
       <use xlink:href="#m5f68de9a58" x="436.802381" y="19.35625" style="fill: #4f5156; stroke: #4f5156; stroke-width: 1.35"/>
      </g>
     </g>
     <g id="text_3">
      <!-- 80 -->
      <g style="fill: #4f5156" transform="translate(416.442381 447.343125) scale(0.32 -0.32)">
       <defs>
        <path id="DejaVuSans-1b" d="M 2034 2216 
Q 1584 2216 1326 1975 
Q 1069 1734 1069 1313 
Q 1069 891 1326 650 
Q 1584 409 2034 409 
Q 2484 409 2743 651 
Q 3003 894 3003 1313 
Q 3003 1734 2745 1975 
Q 2488 2216 2034 2216 
z
M 1403 2484 
Q 997 2584 770 2862 
Q 544 3141 544 3541 
Q 544 4100 942 4425 
Q 1341 4750 2034 4750 
Q 2731 4750 3128 4425 
Q 3525 4100 3525 3541 
Q 3525 3141 3298 2862 
Q 3072 2584 2669 2484 
Q 3125 2378 3379 2068 
Q 3634 1759 3634 1313 
Q 3634 634 3220 271 
Q 2806 -91 2034 -91 
Q 1263 -91 848 271 
Q 434 634 434 1313 
Q 434 1759 690 2068 
Q 947 2378 1403 2484 
z
M 1172 3481 
Q 1172 3119 1398 2916 
Q 1625 2713 2034 2713 
Q 2441 2713 2670 2916 
Q 2900 3119 2900 3481 
Q 2900 3844 2670 4047 
Q 2441 4250 2034 4250 
Q 1625 4250 1398 4047 
Q 1172 3844 1172 3481 
z
" transform="scale(0.015625)"/>
       </defs>
       <use xlink:href="#DejaVuSans-1b"/>
       <use xlink:href="#DejaVuSans-13" transform="translate(63.625 0)"/>
      </g>
     </g>
    </g>
    <g id="xtick_4">
     <g id="line2d_10">
      <path d="M 577.12619 409.030625 
L 577.12619 19.35625 
" clip-path="url(#p890342b59d)" style="fill: none; stroke: #d9d9d9; stroke-opacity: 0.65; stroke-width: 1.15; stroke-linecap: square"/>
     </g>
     <g id="line2d_11">
      <g>
       <use xlink:href="#m2938f721ee" x="577.12619" y="409.030625" style="fill: #4f5156; stroke: #4f5156; stroke-width: 1.35"/>
      </g>
     </g>
     <g id="line2d_12">
      <g>
       <use xlink:href="#m5f68de9a58" x="577.12619" y="19.35625" style="fill: #4f5156; stroke: #4f5156; stroke-width: 1.35"/>
      </g>
     </g>
     <g id="text_4">
      <!-- 90 -->
      <g style="fill: #4f5156" transform="translate(556.76619 447.343125) scale(0.32 -0.32)">
       <defs>
        <path id="DejaVuSans-1c" d="M 703 97 
L 703 672 
Q 941 559 1184 500 
Q 1428 441 1663 441 
Q 2288 441 2617 861 
Q 2947 1281 2994 2138 
Q 2813 1869 2534 1725 
Q 2256 1581 1919 1581 
Q 1219 1581 811 2004 
Q 403 2428 403 3163 
Q 403 3881 828 4315 
Q 1253 4750 1959 4750 
Q 2769 4750 3195 4129 
Q 3622 3509 3622 2328 
Q 3622 1225 3098 567 
Q 2575 -91 1691 -91 
Q 1453 -91 1209 -44 
Q 966 3 703 97 
z
M 1959 2075 
Q 2384 2075 2632 2365 
Q 2881 2656 2881 3163 
Q 2881 3666 2632 3958 
Q 2384 4250 1959 4250 
Q 1534 4250 1286 3958 
Q 1038 3666 1038 3163 
Q 1038 2656 1286 2365 
Q 1534 2075 1959 2075 
z
" transform="scale(0.015625)"/>
       </defs>
       <use xlink:href="#DejaVuSans-1c"/>
       <use xlink:href="#DejaVuSans-13" transform="translate(63.625 0)"/>
      </g>
     </g>
    </g>
    <g id="xtick_5">
     <g id="line2d_13">
      <path d="M 717.45 409.030625 
L 717.45 19.35625 
" clip-path="url(#p890342b59d)" style="fill: none; stroke: #d9d9d9; stroke-opacity: 0.65; stroke-width: 1.15; stroke-linecap: square"/>
     </g>
     <g id="line2d_14">
      <g>
       <use xlink:href="#m2938f721ee" x="717.45" y="409.030625" style="fill: #4f5156; stroke: #4f5156; stroke-width: 1.35"/>
      </g>
     </g>
     <g id="line2d_15">
      <g>
       <use xlink:href="#m5f68de9a58" x="717.45" y="19.35625" style="fill: #4f5156; stroke: #4f5156; stroke-width: 1.35"/>
      </g>
     </g>
     <g id="text_5">
      <!-- 100 -->
      <g style="fill: #4f5156" transform="translate(686.91 447.343125) scale(0.32 -0.32)">
       <defs>
        <path id="DejaVuSans-14" d="M 794 531 
L 1825 531 
L 1825 4091 
L 703 3866 
L 703 4441 
L 1819 4666 
L 2450 4666 
L 2450 531 
L 3481 531 
L 3481 0 
L 794 0 
L 794 531 
z
" transform="scale(0.015625)"/>
       </defs>
       <use xlink:href="#DejaVuSans-14"/>
       <use xlink:href="#DejaVuSans-13" transform="translate(63.625 0)"/>
       <use xlink:href="#DejaVuSans-13" transform="translate(127.25 0)"/>
      </g>
     </g>
    </g>
    <g id="text_6">
     <!-- Sunlit Ratio(%) -->
     <g style="fill: #4f5156" transform="translate(273.4575 499.424375) scale(0.4 -0.4)">
      <defs>
       <path id="DejaVuSans-36" d="M 3425 4513 
L 3425 3897 
Q 3066 4069 2747 4153 
Q 2428 4238 2131 4238 
Q 1616 4238 1336 4038 
Q 1056 3838 1056 3469 
Q 1056 3159 1242 3001 
Q 1428 2844 1947 2747 
L 2328 2669 
Q 3034 2534 3370 2195 
Q 3706 1856 3706 1288 
Q 3706 609 3251 259 
Q 2797 -91 1919 -91 
Q 1588 -91 1214 -16 
Q 841 59 441 206 
L 441 856 
Q 825 641 1194 531 
Q 1563 422 1919 422 
Q 2459 422 2753 634 
Q 3047 847 3047 1241 
Q 3047 1584 2836 1778 
Q 2625 1972 2144 2069 
L 1759 2144 
Q 1053 2284 737 2584 
Q 422 2884 422 3419 
Q 422 4038 858 4394 
Q 1294 4750 2059 4750 
Q 2388 4750 2728 4690 
Q 3069 4631 3425 4513 
z
" transform="scale(0.015625)"/>
       <path id="DejaVuSans-58" d="M 544 1381 
L 544 3500 
L 1119 3500 
L 1119 1403 
Q 1119 906 1312 657 
Q 1506 409 1894 409 
Q 2359 409 2629 706 
Q 2900 1003 2900 1516 
L 2900 3500 
L 3475 3500 
L 3475 0 
L 2900 0 
L 2900 538 
Q 2691 219 2414 64 
Q 2138 -91 1772 -91 
Q 1169 -91 856 284 
Q 544 659 544 1381 
z
M 1991 3584 
L 1991 3584 
z
" transform="scale(0.015625)"/>
       <path id="DejaVuSans-51" d="M 3513 2113 
L 3513 0 
L 2938 0 
L 2938 2094 
Q 2938 2591 2744 2837 
Q 2550 3084 2163 3084 
Q 1697 3084 1428 2787 
Q 1159 2491 1159 1978 
L 1159 0 
L 581 0 
L 581 3500 
L 1159 3500 
L 1159 2956 
Q 1366 3272 1645 3428 
Q 1925 3584 2291 3584 
Q 2894 3584 3203 3211 
Q 3513 2838 3513 2113 
z
" transform="scale(0.015625)"/>
       <path id="DejaVuSans-4f" d="M 603 4863 
L 1178 4863 
L 1178 0 
L 603 0 
L 603 4863 
z
" transform="scale(0.015625)"/>
       <path id="DejaVuSans-4c" d="M 603 3500 
L 1178 3500 
L 1178 0 
L 603 0 
L 603 3500 
z
M 603 4863 
L 1178 4863 
L 1178 4134 
L 603 4134 
L 603 4863 
z
" transform="scale(0.015625)"/>
       <path id="DejaVuSans-57" d="M 1172 4494 
L 1172 3500 
L 2356 3500 
L 2356 3053 
L 1172 3053 
L 1172 1153 
Q 1172 725 1289 603 
Q 1406 481 1766 481 
L 2356 481 
L 2356 0 
L 1766 0 
Q 1100 0 847 248 
Q 594 497 594 1153 
L 594 3053 
L 172 3053 
L 172 3500 
L 594 3500 
L 594 4494 
L 1172 4494 
z
" transform="scale(0.015625)"/>
       <path id="DejaVuSans-3" transform="scale(0.015625)"/>
       <path id="DejaVuSans-35" d="M 2841 2188 
Q 3044 2119 3236 1894 
Q 3428 1669 3622 1275 
L 4263 0 
L 3584 0 
L 2988 1197 
Q 2756 1666 2539 1819 
Q 2322 1972 1947 1972 
L 1259 1972 
L 1259 0 
L 628 0 
L 628 4666 
L 2053 4666 
Q 2853 4666 3247 4331 
Q 3641 3997 3641 3322 
Q 3641 2881 3436 2590 
Q 3231 2300 2841 2188 
z
M 1259 4147 
L 1259 2491 
L 2053 2491 
Q 2509 2491 2742 2702 
Q 2975 2913 2975 3322 
Q 2975 3731 2742 3939 
Q 2509 4147 2053 4147 
L 1259 4147 
z
" transform="scale(0.015625)"/>
       <path id="DejaVuSans-44" d="M 2194 1759 
Q 1497 1759 1228 1600 
Q 959 1441 959 1056 
Q 959 750 1161 570 
Q 1363 391 1709 391 
Q 2188 391 2477 730 
Q 2766 1069 2766 1631 
L 2766 1759 
L 2194 1759 
z
M 3341 1997 
L 3341 0 
L 2766 0 
L 2766 531 
Q 2569 213 2275 61 
Q 1981 -91 1556 -91 
Q 1019 -91 701 211 
Q 384 513 384 1019 
Q 384 1609 779 1909 
Q 1175 2209 1959 2209 
L 2766 2209 
L 2766 2266 
Q 2766 2663 2505 2880 
Q 2244 3097 1772 3097 
Q 1472 3097 1187 3025 
Q 903 2953 641 2809 
L 641 3341 
Q 956 3463 1253 3523 
Q 1550 3584 1831 3584 
Q 2591 3584 2966 3190 
Q 3341 2797 3341 1997 
z
" transform="scale(0.015625)"/>
       <path id="DejaVuSans-52" d="M 1959 3097 
Q 1497 3097 1228 2736 
Q 959 2375 959 1747 
Q 959 1119 1226 758 
Q 1494 397 1959 397 
Q 2419 397 2687 759 
Q 2956 1122 2956 1747 
Q 2956 2369 2687 2733 
Q 2419 3097 1959 3097 
z
M 1959 3584 
Q 2709 3584 3137 3096 
Q 3566 2609 3566 1747 
Q 3566 888 3137 398 
Q 2709 -91 1959 -91 
Q 1206 -91 779 398 
Q 353 888 353 1747 
Q 353 2609 779 3096 
Q 1206 3584 1959 3584 
z
" transform="scale(0.015625)"/>
       <path id="DejaVuSans-b" d="M 1984 4856 
Q 1566 4138 1362 3434 
Q 1159 2731 1159 2009 
Q 1159 1288 1364 580 
Q 1569 -128 1984 -844 
L 1484 -844 
Q 1016 -109 783 600 
Q 550 1309 550 2009 
Q 550 2706 781 3412 
Q 1013 4119 1484 4856 
L 1984 4856 
z
" transform="scale(0.015625)"/>
       <path id="DejaVuSans-8" d="M 4653 2053 
Q 4381 2053 4226 1822 
Q 4072 1591 4072 1178 
Q 4072 772 4226 539 
Q 4381 306 4653 306 
Q 4919 306 5073 539 
Q 5228 772 5228 1178 
Q 5228 1588 5073 1820 
Q 4919 2053 4653 2053 
z
M 4653 2450 
Q 5147 2450 5437 2106 
Q 5728 1763 5728 1178 
Q 5728 594 5436 251 
Q 5144 -91 4653 -91 
Q 4153 -91 3862 251 
Q 3572 594 3572 1178 
Q 3572 1766 3864 2108 
Q 4156 2450 4653 2450 
z
M 1428 4353 
Q 1159 4353 1004 4120 
Q 850 3888 850 3481 
Q 850 3069 1003 2837 
Q 1156 2606 1428 2606 
Q 1700 2606 1854 2837 
Q 2009 3069 2009 3481 
Q 2009 3884 1853 4118 
Q 1697 4353 1428 4353 
z
M 4250 4750 
L 4750 4750 
L 1831 -91 
L 1331 -91 
L 4250 4750 
z
M 1428 4750 
Q 1922 4750 2215 4408 
Q 2509 4066 2509 3481 
Q 2509 2891 2217 2550 
Q 1925 2209 1428 2209 
Q 931 2209 642 2551 
Q 353 2894 353 3481 
Q 353 4063 643 4406 
Q 934 4750 1428 4750 
z
" transform="scale(0.015625)"/>
       <path id="DejaVuSans-c" d="M 513 4856 
L 1013 4856 
Q 1481 4119 1714 3412 
Q 1947 2706 1947 2009 
Q 1947 1309 1714 600 
Q 1481 -109 1013 -844 
L 513 -844 
Q 928 -128 1133 580 
Q 1338 1288 1338 2009 
Q 1338 2731 1133 3434 
Q 928 4138 513 4856 
z
" transform="scale(0.015625)"/>
      </defs>
      <use xlink:href="#DejaVuSans-36"/>
      <use xlink:href="#DejaVuSans-58" transform="translate(63.484375 0)"/>
      <use xlink:href="#DejaVuSans-51" transform="translate(126.859375 0)"/>
      <use xlink:href="#DejaVuSans-4f" transform="translate(190.234375 0)"/>
      <use xlink:href="#DejaVuSans-4c" transform="translate(218.015625 0)"/>
      <use xlink:href="#DejaVuSans-57" transform="translate(245.796875 0)"/>
      <use xlink:href="#DejaVuSans-3" transform="translate(285 0)"/>
      <use xlink:href="#DejaVuSans-35" transform="translate(316.78125 0)"/>
      <use xlink:href="#DejaVuSans-44" transform="translate(384.0625 0)"/>
      <use xlink:href="#DejaVuSans-57" transform="translate(445.34375 0)"/>
      <use xlink:href="#DejaVuSans-4c" transform="translate(484.546875 0)"/>
      <use xlink:href="#DejaVuSans-52" transform="translate(512.328125 0)"/>
      <use xlink:href="#DejaVuSans-b" transform="translate(573.515625 0)"/>
      <use xlink:href="#DejaVuSans-8" transform="translate(612.53125 0)"/>
      <use xlink:href="#DejaVuSans-c" transform="translate(707.546875 0)"/>
     </g>
    </g>
   </g>
   <g id="matplotlib.axis_2">
    <g id="ytick_1">
     <g id="line2d_16">
      <path d="M 128.09 409.030625 
L 717.45 409.030625 
" clip-path="url(#p890342b59d)" style="fill: none; stroke: #d9d9d9; stroke-opacity: 0.65; stroke-width: 1.15; stroke-linecap: square"/>
     </g>
     <g id="line2d_17">
      <defs>
       <path id="mc3d0c5bf90" d="M 0 0 
L 7 0 
" style="stroke: #4f5156; stroke-width: 1.35"/>
      </defs>
      <g>
       <use xlink:href="#mc3d0c5bf90" x="128.09" y="409.030625" style="fill: #4f5156; stroke: #4f5156; stroke-width: 1.35"/>
      </g>
     </g>
     <g id="line2d_18">
      <defs>
       <path id="m05ff009a64" d="M 0 0 
L -7 0 
" style="stroke: #4f5156; stroke-width: 1.35"/>
      </defs>
      <g>
       <use xlink:href="#m05ff009a64" x="717.45" y="409.030625" style="fill: #4f5156; stroke: #4f5156; stroke-width: 1.35"/>
      </g>
     </g>
     <g id="text_7">
      <!-- 0 -->
      <g style="fill: #4f5156" transform="translate(93.73 421.186875) scale(0.32 -0.32)">
       <use xlink:href="#DejaVuSans-13"/>
      </g>
     </g>
    </g>
    <g id="ytick_2">
     <g id="line2d_19">
      <path d="M 128.09 331.09575 
L 717.45 331.09575 
" clip-path="url(#p890342b59d)" style="fill: none; stroke: #d9d9d9; stroke-opacity: 0.65; stroke-width: 1.15; stroke-linecap: square"/>
     </g>
     <g id="line2d_20">
      <g>
       <use xlink:href="#mc3d0c5bf90" x="128.09" y="331.09575" style="fill: #4f5156; stroke: #4f5156; stroke-width: 1.35"/>
      </g>
     </g>
     <g id="line2d_21">
      <g>
       <use xlink:href="#m05ff009a64" x="717.45" y="331.09575" style="fill: #4f5156; stroke: #4f5156; stroke-width: 1.35"/>
      </g>
     </g>
     <g id="text_8">
      <!-- 0.2 -->
      <g style="fill: #4f5156" transform="translate(63.2 343.252) scale(0.32 -0.32)">
       <defs>
        <path id="DejaVuSans-11" d="M 684 794 
L 1344 794 
L 1344 0 
L 684 0 
L 684 794 
z
" transform="scale(0.015625)"/>
        <path id="DejaVuSans-15" d="M 1228 531 
L 3431 531 
L 3431 0 
L 469 0 
L 469 531 
Q 828 903 1448 1529 
Q 2069 2156 2228 2338 
Q 2531 2678 2651 2914 
Q 2772 3150 2772 3378 
Q 2772 3750 2511 3984 
Q 2250 4219 1831 4219 
Q 1534 4219 1204 4116 
Q 875 4013 500 3803 
L 500 4441 
Q 881 4594 1212 4672 
Q 1544 4750 1819 4750 
Q 2544 4750 2975 4387 
Q 3406 4025 3406 3419 
Q 3406 3131 3298 2873 
Q 3191 2616 2906 2266 
Q 2828 2175 2409 1742 
Q 1991 1309 1228 531 
z
" transform="scale(0.015625)"/>
       </defs>
       <use xlink:href="#DejaVuSans-13"/>
       <use xlink:href="#DejaVuSans-11" transform="translate(63.625 0)"/>
       <use xlink:href="#DejaVuSans-15" transform="translate(95.40625 0)"/>
      </g>
     </g>
    </g>
    <g id="ytick_3">
     <g id="line2d_22">
      <path d="M 128.09 253.160875 
L 717.45 253.160875 
" clip-path="url(#p890342b59d)" style="fill: none; stroke: #d9d9d9; stroke-opacity: 0.65; stroke-width: 1.15; stroke-linecap: square"/>
     </g>
     <g id="line2d_23">
      <g>
       <use xlink:href="#mc3d0c5bf90" x="128.09" y="253.160875" style="fill: #4f5156; stroke: #4f5156; stroke-width: 1.35"/>
      </g>
     </g>
     <g id="line2d_24">
      <g>
       <use xlink:href="#m05ff009a64" x="717.45" y="253.160875" style="fill: #4f5156; stroke: #4f5156; stroke-width: 1.35"/>
      </g>
     </g>
     <g id="text_9">
      <!-- 0.4 -->
      <g style="fill: #4f5156" transform="translate(63.2 265.317125) scale(0.32 -0.32)">
       <defs>
        <path id="DejaVuSans-17" d="M 2419 4116 
L 825 1625 
L 2419 1625 
L 2419 4116 
z
M 2253 4666 
L 3047 4666 
L 3047 1625 
L 3713 1625 
L 3713 1100 
L 3047 1100 
L 3047 0 
L 2419 0 
L 2419 1100 
L 313 1100 
L 313 1709 
L 2253 4666 
z
" transform="scale(0.015625)"/>
       </defs>
       <use xlink:href="#DejaVuSans-13"/>
       <use xlink:href="#DejaVuSans-11" transform="translate(63.625 0)"/>
       <use xlink:href="#DejaVuSans-17" transform="translate(95.40625 0)"/>
      </g>
     </g>
    </g>
    <g id="ytick_4">
     <g id="line2d_25">
      <path d="M 128.09 175.226 
L 717.45 175.226 
" clip-path="url(#p890342b59d)" style="fill: none; stroke: #d9d9d9; stroke-opacity: 0.65; stroke-width: 1.15; stroke-linecap: square"/>
     </g>
     <g id="line2d_26">
      <g>
       <use xlink:href="#mc3d0c5bf90" x="128.09" y="175.226" style="fill: #4f5156; stroke: #4f5156; stroke-width: 1.35"/>
      </g>
     </g>
     <g id="line2d_27">
      <g>
       <use xlink:href="#m05ff009a64" x="717.45" y="175.226" style="fill: #4f5156; stroke: #4f5156; stroke-width: 1.35"/>
      </g>
     </g>
     <g id="text_10">
      <!-- 0.6 -->
      <g style="fill: #4f5156" transform="translate(63.2 187.38225) scale(0.32 -0.32)">
       <use xlink:href="#DejaVuSans-13"/>
       <use xlink:href="#DejaVuSans-11" transform="translate(63.625 0)"/>
       <use xlink:href="#DejaVuSans-19" transform="translate(95.40625 0)"/>
      </g>
     </g>
    </g>
    <g id="ytick_5">
     <g id="line2d_28">
      <path d="M 128.09 97.291125 
L 717.45 97.291125 
" clip-path="url(#p890342b59d)" style="fill: none; stroke: #d9d9d9; stroke-opacity: 0.65; stroke-width: 1.15; stroke-linecap: square"/>
     </g>
     <g id="line2d_29">
      <g>
       <use xlink:href="#mc3d0c5bf90" x="128.09" y="97.291125" style="fill: #4f5156; stroke: #4f5156; stroke-width: 1.35"/>
      </g>
     </g>
     <g id="line2d_30">
      <g>
       <use xlink:href="#m05ff009a64" x="717.45" y="97.291125" style="fill: #4f5156; stroke: #4f5156; stroke-width: 1.35"/>
      </g>
     </g>
     <g id="text_11">
      <!-- 0.8 -->
      <g style="fill: #4f5156" transform="translate(63.2 109.447375) scale(0.32 -0.32)">
       <use xlink:href="#DejaVuSans-13"/>
       <use xlink:href="#DejaVuSans-11" transform="translate(63.625 0)"/>
       <use xlink:href="#DejaVuSans-1b" transform="translate(95.40625 0)"/>
      </g>
     </g>
    </g>
    <g id="ytick_6">
     <g id="line2d_31">
      <path d="M 128.09 19.35625 
L 717.45 19.35625 
" clip-path="url(#p890342b59d)" style="fill: none; stroke: #d9d9d9; stroke-opacity: 0.65; stroke-width: 1.15; stroke-linecap: square"/>
     </g>
     <g id="line2d_32">
      <g>
       <use xlink:href="#mc3d0c5bf90" x="128.09" y="19.35625" style="fill: #4f5156; stroke: #4f5156; stroke-width: 1.35"/>
      </g>
     </g>
     <g id="line2d_33">
      <g>
       <use xlink:href="#m05ff009a64" x="717.45" y="19.35625" style="fill: #4f5156; stroke: #4f5156; stroke-width: 1.35"/>
      </g>
     </g>
     <g id="text_12">
      <!-- 1 -->
      <g style="fill: #4f5156" transform="translate(93.73 31.5125) scale(0.32 -0.32)">
       <use xlink:href="#DejaVuSans-14"/>
      </g>
     </g>
    </g>
    <g id="text_13">
     <!-- CDF -->
     <g style="fill: #4f5156" transform="translate(37.590625 255.062187) rotate(-90) scale(0.4 -0.4)">
      <defs>
       <path id="DejaVuSans-26" d="M 4122 4306 
L 4122 3641 
Q 3803 3938 3442 4084 
Q 3081 4231 2675 4231 
Q 1875 4231 1450 3742 
Q 1025 3253 1025 2328 
Q 1025 1406 1450 917 
Q 1875 428 2675 428 
Q 3081 428 3442 575 
Q 3803 722 4122 1019 
L 4122 359 
Q 3791 134 3420 21 
Q 3050 -91 2638 -91 
Q 1578 -91 968 557 
Q 359 1206 359 2328 
Q 359 3453 968 4101 
Q 1578 4750 2638 4750 
Q 3056 4750 3426 4639 
Q 3797 4528 4122 4306 
z
" transform="scale(0.015625)"/>
       <path id="DejaVuSans-27" d="M 1259 4147 
L 1259 519 
L 2022 519 
Q 2988 519 3436 956 
Q 3884 1394 3884 2338 
Q 3884 3275 3436 3711 
Q 2988 4147 2022 4147 
L 1259 4147 
z
M 628 4666 
L 1925 4666 
Q 3281 4666 3915 4102 
Q 4550 3538 4550 2338 
Q 4550 1131 3912 565 
Q 3275 0 1925 0 
L 628 0 
L 628 4666 
z
" transform="scale(0.015625)"/>
       <path id="DejaVuSans-29" d="M 628 4666 
L 3309 4666 
L 3309 4134 
L 1259 4134 
L 1259 2759 
L 3109 2759 
L 3109 2228 
L 1259 2228 
L 1259 0 
L 628 0 
L 628 4666 
z
" transform="scale(0.015625)"/>
      </defs>
      <use xlink:href="#DejaVuSans-26"/>
      <use xlink:href="#DejaVuSans-27" transform="translate(69.828125 0)"/>
      <use xlink:href="#DejaVuSans-29" transform="translate(146.828125 0)"/>
     </g>
    </g>
   </g>
   <g id="line2d_34">
    <path d="M 161.413253 408.784618 
L 162.387048 408.784618 
L 162.387048 407.554586 
L 163.360842 407.554586 
L 163.360842 403.864487 
L 164.334637 403.864487 
L 164.334637 398.452343 
L 165.308432 398.452343 
L 165.308432 397.222311 
L 166.282226 397.222311 
L 166.282226 395.992278 
L 167.256021 395.992278 
L 167.256021 393.532212 
L 168.229816 393.532212 
L 168.229816 391.56416 
L 169.20361 391.56416 
L 169.20361 389.104094 
L 170.177405 389.104094 
L 170.177405 387.136042 
L 171.1512 387.136042 
L 171.1512 386.890036 
L 172.124994 386.890036 
L 172.124994 383.199937 
L 173.098789 383.199937 
L 173.098789 381.231885 
L 174.072584 381.231885 
L 174.072584 378.771819 
L 175.046378 378.771819 
L 175.046378 376.065747 
L 176.020173 376.065747 
L 176.020173 374.835715 
L 176.993967 374.835715 
L 176.993967 372.621656 
L 177.967762 372.621656 
L 177.967762 371.391623 
L 178.941557 371.391623 
L 178.941557 368.685551 
L 179.915351 368.685551 
L 179.915351 367.209512 
L 180.889146 367.209512 
L 180.889146 364.011426 
L 181.862941 364.011426 
L 181.862941 361.059348 
L 182.836735 361.059348 
L 182.836735 358.107269 
L 183.81053 358.107269 
L 183.81053 356.63123 
L 184.784325 356.63123 
L 184.784325 355.155191 
L 185.758119 355.155191 
L 185.758119 351.957105 
L 186.731914 351.957105 
L 186.731914 349.49704 
L 187.705709 349.49704 
L 187.705709 346.544961 
L 188.679503 346.544961 
L 188.679503 344.084896 
L 189.653298 344.084896 
L 189.653298 341.870837 
L 190.627093 341.870837 
L 190.627093 337.934732 
L 191.600887 337.934732 
L 191.600887 335.474667 
L 192.574682 335.474667 
L 192.574682 333.014601 
L 193.548477 333.014601 
L 193.548477 331.046549 
L 194.522271 331.046549 
L 194.522271 328.586483 
L 195.496066 328.586483 
L 195.496066 323.912359 
L 196.469861 323.912359 
L 196.469861 321.944306 
L 197.443655 321.944306 
L 197.443655 317.516188 
L 198.41745 317.516188 
L 198.41745 313.82609 
L 199.391245 313.82609 
L 199.391245 311.366025 
L 200.365039 311.366025 
L 200.365039 307.183913 
L 201.338834 307.183913 
L 201.338834 302.755795 
L 202.312628 302.755795 
L 202.312628 299.803717 
L 203.286423 299.803717 
L 203.286423 297.097645 
L 204.260218 297.097645 
L 204.260218 294.391573 
L 205.234012 294.391573 
L 205.234012 291.685501 
L 206.207807 291.685501 
L 206.207807 289.225435 
L 207.181602 289.225435 
L 207.181602 286.519363 
L 208.155396 286.519363 
L 208.155396 284.059298 
L 209.129191 284.059298 
L 209.129191 280.369199 
L 210.102986 280.369199 
L 210.102986 277.171114 
L 211.07678 277.171114 
L 211.07678 274.711049 
L 212.050575 274.711049 
L 212.050575 272.49699 
L 213.02437 272.49699 
L 213.02437 268.314878 
L 213.998164 268.314878 
L 213.998164 265.116793 
L 214.971959 265.116793 
L 214.971959 262.410721 
L 215.945754 262.410721 
L 215.945754 260.196662 
L 216.919548 260.196662 
L 216.919548 256.752571 
L 217.893343 256.752571 
L 217.893343 254.046499 
L 218.867138 254.046499 
L 218.867138 251.340427 
L 219.840932 251.340427 
L 219.840932 248.388348 
L 220.814727 248.388348 
L 220.814727 246.420296 
L 221.788522 246.420296 
L 221.788522 243.22221 
L 222.762316 243.22221 
L 222.762316 240.024125 
L 223.736111 240.024125 
L 223.736111 236.334027 
L 224.709905 236.334027 
L 224.709905 232.889935 
L 225.6837 232.889935 
L 225.6837 230.921883 
L 226.657495 230.921883 
L 226.657495 227.477791 
L 227.631289 227.477791 
L 227.631289 223.049673 
L 228.605084 223.049673 
L 228.605084 220.343601 
L 229.578879 220.343601 
L 229.578879 218.621555 
L 230.552673 218.621555 
L 230.552673 216.16149 
L 231.526468 216.16149 
L 231.526468 212.471392 
L 232.500263 212.471392 
L 232.500263 207.551261 
L 233.474057 207.551261 
L 233.474057 201.647103 
L 234.447852 201.647103 
L 234.447852 199.187038 
L 235.421647 199.187038 
L 235.421647 195.49694 
L 236.395441 195.49694 
L 236.395441 192.790868 
L 237.369236 192.790868 
L 237.369236 189.838789 
L 238.343031 189.838789 
L 238.343031 187.870737 
L 239.316825 187.870737 
L 239.316825 186.148691 
L 240.29062 186.148691 
L 240.29062 182.212586 
L 241.264415 182.212586 
L 241.264415 179.260507 
L 242.238209 179.260507 
L 242.238209 177.046448 
L 243.212004 177.046448 
L 243.212004 174.586383 
L 244.185799 174.586383 
L 244.185799 172.618331 
L 245.159593 172.618331 
L 245.159593 169.174239 
L 246.133388 169.174239 
L 246.133388 167.944206 
L 247.107183 167.944206 
L 247.107183 165.238134 
L 248.080977 165.238134 
L 248.080977 163.516088 
L 249.054772 163.516088 
L 249.054772 161.056023 
L 250.028566 161.056023 
L 250.028566 159.82599 
L 251.002361 159.82599 
L 251.002361 158.595957 
L 251.976156 158.595957 
L 251.976156 156.873911 
L 252.94995 156.873911 
L 252.94995 154.167839 
L 253.923745 154.167839 
L 253.923745 151.95378 
L 254.89754 151.95378 
L 254.89754 150.969754 
L 255.871334 150.969754 
L 255.871334 149.493715 
L 256.845129 149.493715 
L 256.845129 147.771669 
L 257.818924 147.771669 
L 257.818924 146.049623 
L 258.792718 146.049623 
L 258.792718 144.81959 
L 259.766513 144.81959 
L 259.766513 144.327577 
L 260.740308 144.327577 
L 260.740308 141.129492 
L 261.714102 141.129492 
L 261.714102 140.145466 
L 262.687897 140.145466 
L 262.687897 138.669427 
L 263.661692 138.669427 
L 263.661692 136.209361 
L 264.635486 136.209361 
L 264.635486 133.995302 
L 265.609281 133.995302 
L 265.609281 132.273256 
L 267.55687 132.273256 
L 267.55687 132.02725 
L 269.50446 132.02725 
L 269.50446 131.043224 
L 270.478254 131.043224 
L 270.478254 129.813191 
L 271.452049 129.813191 
L 271.452049 128.829165 
L 272.425843 128.829165 
L 272.425843 127.845138 
L 273.399638 127.845138 
L 273.399638 127.107119 
L 274.373433 127.107119 
L 274.373433 126.861112 
L 275.347227 126.861112 
L 275.347227 126.615106 
L 276.321022 126.615106 
L 276.321022 125.63108 
L 278.268611 125.63108 
L 278.268611 125.385073 
L 279.242406 125.385073 
L 279.242406 124.89306 
L 280.216201 124.89306 
L 280.216201 124.401047 
L 281.189995 124.401047 
L 281.189995 123.909034 
L 282.16379 123.909034 
L 282.16379 123.171014 
L 283.137585 123.171014 
L 283.137585 122.925007 
L 284.111379 122.925007 
L 284.111379 122.432994 
L 285.085174 122.432994 
L 285.085174 121.940981 
L 288.006558 121.940981 
L 288.006558 120.710949 
L 288.980353 120.710949 
L 288.980353 119.480916 
L 289.954147 119.480916 
L 289.954147 118.250883 
L 290.927942 118.250883 
L 290.927942 118.004876 
L 293.849326 118.004876 
L 293.849326 117.512863 
L 295.796915 117.512863 
L 295.796915 117.02085 
L 296.77071 117.02085 
L 296.77071 116.774844 
L 297.744504 116.774844 
L 297.744504 116.036824 
L 298.718299 116.036824 
L 298.718299 115.544811 
L 299.692094 115.544811 
L 299.692094 114.314778 
L 300.665888 114.314778 
L 300.665888 113.330752 
L 301.639683 113.330752 
L 301.639683 112.838739 
L 303.587272 112.838739 
L 303.587272 111.854713 
L 304.561067 111.854713 
L 304.561067 111.3627 
L 305.534862 111.3627 
L 305.534862 110.870687 
L 306.508656 110.870687 
L 306.508656 110.62468 
L 308.456246 110.62468 
L 308.456246 110.378673 
L 309.43004 110.378673 
L 309.43004 110.132667 
L 311.37763 110.132667 
L 311.37763 109.640654 
L 312.351424 109.640654 
L 312.351424 109.148641 
L 314.299014 109.148641 
L 314.299014 108.902634 
L 315.272808 108.902634 
L 315.272808 108.656628 
L 317.220398 108.656628 
L 317.220398 108.410621 
L 318.194192 108.410621 
L 318.194192 107.672601 
L 319.167987 107.672601 
L 319.167987 106.934582 
L 321.115576 106.934582 
L 321.115576 106.442569 
L 323.063165 106.442569 
L 323.063165 106.196562 
L 324.03696 106.196562 
L 324.03696 105.458542 
L 325.010755 105.458542 
L 325.010755 104.474516 
L 325.984549 104.474516 
L 325.984549 103.49049 
L 326.958344 103.49049 
L 326.958344 103.244484 
L 327.932139 103.244484 
L 327.932139 102.998477 
L 328.905933 102.998477 
L 328.905933 102.75247 
L 329.879728 102.75247 
L 329.879728 102.506464 
L 332.801112 102.506464 
L 332.801112 102.260457 
L 335.722496 102.260457 
L 335.722496 101.522438 
L 337.670085 101.522438 
L 337.670085 101.276431 
L 338.64388 101.276431 
L 338.64388 100.046398 
L 339.617675 100.046398 
L 339.617675 99.554385 
L 340.591469 99.554385 
L 340.591469 99.308379 
L 341.565264 99.308379 
L 341.565264 99.062372 
L 342.539059 99.062372 
L 342.539059 98.570359 
L 343.512853 98.570359 
L 343.512853 97.832339 
L 345.460442 97.832339 
L 345.460442 97.09432 
L 349.355621 97.09432 
L 349.355621 96.848313 
L 350.329416 96.848313 
L 350.329416 96.602307 
L 352.277005 96.602307 
L 352.277005 95.864287 
L 353.2508 95.864287 
L 353.2508 94.880261 
L 358.119773 94.880261 
L 358.119773 94.634254 
L 359.093568 94.634254 
L 359.093568 94.388248 
L 361.041157 94.388248 
L 361.041157 94.142241 
L 362.014952 94.142241 
L 362.014952 93.896235 
L 365.91013 93.896235 
L 365.91013 93.650228 
L 367.85772 93.650228 
L 367.85772 93.404222 
L 368.831514 93.404222 
L 368.831514 93.158215 
L 370.779103 93.158215 
L 370.779103 92.912208 
L 371.752898 92.912208 
L 371.752898 92.666202 
L 372.726693 92.666202 
L 372.726693 91.682176 
L 373.700487 91.682176 
L 373.700487 90.206136 
L 374.674282 90.206136 
L 374.674282 89.96013 
L 375.648077 89.96013 
L 375.648077 89.714123 
L 377.595666 89.714123 
L 377.595666 89.22211 
L 380.51705 89.22211 
L 380.51705 88.976104 
L 384.412229 88.976104 
L 384.412229 88.730097 
L 386.359818 88.730097 
L 386.359818 87.500064 
L 387.333613 87.500064 
L 387.333613 87.254058 
L 388.307407 87.254058 
L 388.307407 87.008051 
L 392.202586 87.008051 
L 392.202586 86.762045 
L 393.17638 86.762045 
L 393.17638 85.532012 
L 394.150175 85.532012 
L 394.150175 85.039999 
L 395.12397 85.039999 
L 395.12397 84.793992 
L 396.097764 84.793992 
L 396.097764 84.547986 
L 399.992943 84.547986 
L 399.992943 84.301979 
L 401.940532 84.301979 
L 401.940532 84.055973 
L 402.914327 84.055973 
L 402.914327 83.809966 
L 405.835711 83.809966 
L 405.835711 83.56396 
L 408.757095 83.56396 
L 408.757095 83.317953 
L 410.704684 83.317953 
L 410.704684 83.071946 
L 411.678479 83.071946 
L 411.678479 82.82594 
L 413.626068 82.82594 
L 413.626068 82.579933 
L 415.573658 82.579933 
L 415.573658 81.595907 
L 416.547452 81.595907 
L 416.547452 81.103894 
L 420.442631 81.103894 
L 420.442631 80.857887 
L 425.311604 80.857887 
L 425.311604 80.611881 
L 428.232988 80.611881 
L 428.232988 80.365874 
L 433.101961 80.365874 
L 433.101961 79.381848 
L 434.075756 79.381848 
L 434.075756 78.889835 
L 439.918524 78.889835 
L 439.918524 78.397822 
L 440.892318 78.397822 
L 440.892318 76.921783 
L 446.735086 76.921783 
L 446.735086 76.675776 
L 447.708881 76.675776 
L 447.708881 76.42977 
L 454.525444 76.42977 
L 454.525444 75.937756 
L 463.289596 75.937756 
L 463.289596 75.445743 
L 469.132363 75.445743 
L 469.132363 75.199737 
L 470.106158 75.199737 
L 470.106158 74.215711 
L 471.079953 74.215711 
L 471.079953 72.985678 
L 472.053747 72.985678 
L 472.053747 72.739671 
L 474.975131 72.739671 
L 474.975131 72.001652 
L 475.948926 72.001652 
L 475.948926 71.263632 
L 478.87031 71.263632 
L 478.87031 71.017625 
L 479.844105 71.017625 
L 479.844105 70.771619 
L 487.634462 70.771619 
L 487.634462 70.525612 
L 488.608257 70.525612 
L 488.608257 70.279606 
L 494.451024 70.279606 
L 494.451024 70.033599 
L 496.398614 70.033599 
L 496.398614 69.787593 
L 500.293792 69.787593 
L 500.293792 69.541586 
L 501.267587 69.541586 
L 501.267587 68.065547 
L 550.931114 68.065547 
L 550.931114 67.81954 
L 551.904909 67.81954 
L 551.904909 67.081521 
L 552.878704 67.081521 
L 552.878704 66.589508 
L 553.852498 66.589508 
L 553.852498 66.097494 
L 554.826293 66.097494 
L 554.826293 65.605481 
L 555.800088 65.605481 
L 555.800088 65.359475 
L 565.538034 65.359475 
L 565.538034 64.867462 
L 571.380802 64.867462 
L 571.380802 64.621455 
L 572.354597 64.621455 
L 572.354597 64.129442 
L 573.328391 64.129442 
L 573.328391 63.145416 
L 574.302186 63.145416 
L 574.302186 62.653403 
L 621.044329 62.653403 
L 621.044329 61.177363 
L 622.018124 61.177363 
L 622.018124 60.68535 
L 622.991919 60.68535 
L 622.991919 60.193337 
L 623.965713 60.193337 
L 623.965713 59.947331 
L 624.939508 59.947331 
L 624.939508 59.701324 
L 632.729865 59.701324 
L 632.729865 59.209311 
L 633.70366 59.209311 
L 633.70366 57.487265 
L 634.677454 57.487265 
L 634.677454 57.241259 
L 717.45 57.241259 
L 717.45 19.35625 
L 717.45 19.35625 
" clip-path="url(#p890342b59d)" style="fill: none; stroke: #1676ba; stroke-width: 5.8"/>
   </g>
   <g id="line2d_35">
    <path d="M 241.264415 408.429276 
L 242.238209 408.429276 
L 242.238209 399.409035 
L 243.212004 399.409035 
L 243.212004 397.003638 
L 244.185799 397.003638 
L 244.185799 396.402289 
L 247.107183 396.402289 
L 247.107183 395.19959 
L 249.054772 395.19959 
L 249.054772 394.598241 
L 251.002361 394.598241 
L 251.002361 393.996891 
L 251.976156 393.996891 
L 251.976156 393.395542 
L 252.94995 393.395542 
L 252.94995 392.794193 
L 254.89754 392.794193 
L 254.89754 392.192843 
L 255.871334 392.192843 
L 255.871334 390.990145 
L 256.845129 390.990145 
L 256.845129 385.578001 
L 257.818924 385.578001 
L 257.818924 384.375302 
L 258.792718 384.375302 
L 258.792718 381.368555 
L 259.766513 381.368555 
L 259.766513 371.746966 
L 260.740308 371.746966 
L 260.740308 369.942918 
L 261.714102 369.942918 
L 261.714102 368.740219 
L 262.687897 368.740219 
L 262.687897 362.726726 
L 263.661692 362.726726 
L 263.661692 361.524027 
L 264.635486 361.524027 
L 264.635486 359.719979 
L 265.609281 359.719979 
L 265.609281 358.51728 
L 266.583076 358.51728 
L 266.583076 356.713232 
L 267.55687 356.713232 
L 267.55687 356.111883 
L 268.530665 356.111883 
L 268.530665 355.510533 
L 269.50446 355.510533 
L 269.50446 354.909184 
L 270.478254 354.909184 
L 270.478254 352.503787 
L 271.452049 352.503787 
L 271.452049 351.301088 
L 272.425843 351.301088 
L 272.425843 350.098389 
L 273.399638 350.098389 
L 273.399638 348.895691 
L 274.373433 348.895691 
L 274.373433 348.294341 
L 275.347227 348.294341 
L 275.347227 347.692992 
L 276.321022 347.692992 
L 276.321022 346.490293 
L 277.294817 346.490293 
L 277.294817 345.287595 
L 278.268611 345.287595 
L 278.268611 342.280848 
L 279.242406 342.280848 
L 279.242406 341.679498 
L 280.216201 341.679498 
L 280.216201 341.078149 
L 282.16379 341.078149 
L 282.16379 338.672752 
L 283.137585 338.672752 
L 283.137585 336.868704 
L 284.111379 336.868704 
L 284.111379 335.666005 
L 285.085174 335.666005 
L 285.085174 335.064656 
L 286.058969 335.064656 
L 286.058969 333.861957 
L 287.032763 333.861957 
L 287.032763 333.260608 
L 288.006558 333.260608 
L 288.006558 332.057909 
L 288.980353 332.057909 
L 288.980353 330.253861 
L 289.954147 330.253861 
L 289.954147 327.848464 
L 290.927942 327.848464 
L 290.927942 327.247114 
L 291.901737 327.247114 
L 291.901737 326.645765 
L 292.875531 326.645765 
L 292.875531 326.044416 
L 293.849326 326.044416 
L 293.849326 324.240367 
L 294.823121 324.240367 
L 294.823121 322.436319 
L 295.796915 322.436319 
L 295.796915 321.233621 
L 296.77071 321.233621 
L 296.77071 320.632271 
L 297.744504 320.632271 
L 297.744504 319.429573 
L 298.718299 319.429573 
L 298.718299 318.828223 
L 299.692094 318.828223 
L 299.692094 318.226874 
L 300.665888 318.226874 
L 300.665888 315.821477 
L 301.639683 315.821477 
L 301.639683 314.017429 
L 302.613478 314.017429 
L 302.613478 313.416079 
L 303.587272 313.416079 
L 303.587272 312.213381 
L 304.561067 312.213381 
L 304.561067 311.612031 
L 305.534862 311.612031 
L 305.534862 311.010682 
L 306.508656 311.010682 
L 306.508656 308.605285 
L 307.482451 308.605285 
L 307.482451 306.801236 
L 308.456246 306.801236 
L 308.456246 306.199887 
L 309.43004 306.199887 
L 309.43004 304.997188 
L 310.403835 304.997188 
L 310.403835 300.186394 
L 311.37763 300.186394 
L 311.37763 298.983695 
L 312.351424 298.983695 
L 312.351424 298.382346 
L 313.325219 298.382346 
L 313.325219 297.179647 
L 314.299014 297.179647 
L 314.299014 294.1729 
L 315.272808 294.1729 
L 315.272808 290.564804 
L 316.246603 290.564804 
L 316.246603 288.760756 
L 317.220398 288.760756 
L 317.220398 288.159407 
L 318.194192 288.159407 
L 318.194192 285.754009 
L 319.167987 285.754009 
L 319.167987 285.15266 
L 320.141782 285.15266 
L 320.141782 283.949961 
L 321.115576 283.949961 
L 321.115576 283.348612 
L 322.089371 283.348612 
L 322.089371 278.537817 
L 323.063165 278.537817 
L 323.063165 274.328372 
L 324.03696 274.328372 
L 324.03696 270.720276 
L 325.010755 270.720276 
L 325.010755 260.497337 
L 325.984549 260.497337 
L 325.984549 257.49059 
L 326.958344 257.49059 
L 326.958344 256.889241 
L 327.932139 256.889241 
L 327.932139 254.483844 
L 328.905933 254.483844 
L 328.905933 253.882494 
L 329.879728 253.882494 
L 329.879728 253.281145 
L 330.853523 253.281145 
L 330.853523 252.078446 
L 331.827317 252.078446 
L 331.827317 251.477097 
L 332.801112 251.477097 
L 332.801112 250.875747 
L 333.774907 250.875747 
L 333.774907 247.267651 
L 334.748701 247.267651 
L 334.748701 243.058206 
L 335.722496 243.058206 
L 335.722496 241.855507 
L 336.696291 241.855507 
L 336.696291 240.051459 
L 339.617675 240.051459 
L 339.617675 238.848761 
L 340.591469 238.848761 
L 340.591469 238.247411 
L 341.565264 238.247411 
L 341.565264 237.044713 
L 342.539059 237.044713 
L 342.539059 235.842014 
L 343.512853 235.842014 
L 343.512853 235.240665 
L 344.486648 235.240665 
L 344.486648 234.037966 
L 346.434237 234.037966 
L 346.434237 233.436617 
L 347.408032 233.436617 
L 347.408032 232.233918 
L 348.381826 232.233918 
L 348.381826 230.42987 
L 350.329416 230.42987 
L 350.329416 229.227171 
L 353.2508 229.227171 
L 353.2508 228.024472 
L 354.224594 228.024472 
L 354.224594 226.220424 
L 355.198389 226.220424 
L 355.198389 225.619075 
L 356.172184 225.619075 
L 356.172184 224.416376 
L 359.093568 224.416376 
L 359.093568 223.213678 
L 360.067362 223.213678 
L 360.067362 220.80828 
L 362.988746 220.80828 
L 362.988746 219.605582 
L 364.936336 219.605582 
L 364.936336 219.004232 
L 365.91013 219.004232 
L 365.91013 216.598835 
L 366.883925 216.598835 
L 366.883925 215.997486 
L 368.831514 215.997486 
L 368.831514 214.794787 
L 370.779103 214.794787 
L 370.779103 213.592088 
L 371.752898 213.592088 
L 371.752898 211.186691 
L 372.726693 211.186691 
L 372.726693 209.983992 
L 373.700487 209.983992 
L 373.700487 208.179944 
L 374.674282 208.179944 
L 374.674282 207.578595 
L 376.621871 207.578595 
L 376.621871 206.375896 
L 377.595666 206.375896 
L 377.595666 205.173197 
L 378.569461 205.173197 
L 378.569461 203.970499 
L 379.543255 203.970499 
L 379.543255 202.7678 
L 380.51705 202.7678 
L 380.51705 200.362403 
L 381.490845 200.362403 
L 381.490845 197.355656 
L 383.438434 197.355656 
L 383.438434 196.754307 
L 386.359818 196.754307 
L 386.359818 196.152957 
L 388.307407 196.152957 
L 388.307407 194.950258 
L 389.281202 194.950258 
L 389.281202 193.14621 
L 390.254997 193.14621 
L 390.254997 192.544861 
L 482.765489 192.544861 
L 482.765489 191.342162 
L 483.739283 191.342162 
L 483.739283 188.335416 
L 484.713078 188.335416 
L 484.713078 187.734066 
L 485.686873 187.734066 
L 485.686873 186.531368 
L 486.660667 186.531368 
L 486.660667 185.328669 
L 487.634462 185.328669 
L 487.634462 183.524621 
L 488.608257 183.524621 
L 488.608257 182.321922 
L 490.555846 182.321922 
L 490.555846 181.720573 
L 497.372408 181.720573 
L 497.372408 180.517874 
L 504.188971 180.517874 
L 504.188971 179.315176 
L 510.031739 179.315176 
L 510.031739 178.713826 
L 511.005534 178.713826 
L 511.005534 178.112477 
L 511.979328 178.112477 
L 511.979328 176.308429 
L 513.926917 176.308429 
L 513.926917 173.903031 
L 514.900712 173.903031 
L 514.900712 172.700333 
L 515.874507 172.700333 
L 515.874507 170.896285 
L 516.848301 170.896285 
L 516.848301 165.484141 
L 517.822096 165.484141 
L 517.822096 162.477394 
L 519.769685 162.477394 
L 519.769685 160.673346 
L 521.717275 160.673346 
L 521.717275 160.071997 
L 522.691069 160.071997 
L 522.691069 158.869298 
L 528.533837 158.869298 
L 528.533837 158.267948 
L 529.507632 158.267948 
L 529.507632 157.666599 
L 534.376605 157.666599 
L 534.376605 157.06525 
L 536.324195 157.06525 
L 536.324195 156.4639 
L 539.245578 156.4639 
L 539.245578 155.862551 
L 540.219373 155.862551 
L 540.219373 155.261202 
L 542.166962 155.261202 
L 542.166962 152.855804 
L 544.114552 152.855804 
L 544.114552 151.653106 
L 545.088346 151.653106 
L 545.088346 149.247708 
L 546.062141 149.247708 
L 546.062141 147.44366 
L 547.035936 147.44366 
L 547.035936 143.234215 
L 548.00973 143.234215 
L 548.00973 140.227468 
L 548.983525 140.227468 
L 548.983525 139.024769 
L 549.95732 139.024769 
L 549.95732 138.42342 
L 552.878704 138.42342 
L 552.878704 137.822071 
L 553.852498 137.822071 
L 553.852498 137.220721 
L 557.747677 137.220721 
L 557.747677 136.619372 
L 559.695266 136.619372 
L 559.695266 136.018023 
L 562.61665 136.018023 
L 562.61665 135.416673 
L 565.538034 135.416673 
L 565.538034 134.815324 
L 568.459418 134.815324 
L 568.459418 134.213975 
L 570.407007 134.213975 
L 570.407007 133.011276 
L 571.380802 133.011276 
L 571.380802 131.207228 
L 572.354597 131.207228 
L 572.354597 128.200481 
L 573.328391 128.200481 
L 573.328391 127.599132 
L 598.647052 127.599132 
L 598.647052 125.795084 
L 599.620847 125.795084 
L 599.620847 121.585639 
L 600.594642 121.585639 
L 600.594642 118.578892 
L 601.568436 118.578892 
L 601.568436 117.376193 
L 602.542231 117.376193 
L 602.542231 116.173494 
L 604.48982 116.173494 
L 604.48982 115.572145 
L 606.43741 115.572145 
L 606.43741 114.970796 
L 611.306383 114.970796 
L 611.306383 114.369446 
L 614.227767 114.369446 
L 614.227767 113.768097 
L 616.175356 113.768097 
L 616.175356 111.964049 
L 617.149151 111.964049 
L 617.149151 108.957302 
L 618.122945 108.957302 
L 618.122945 105.950556 
L 717.45 105.950556 
L 717.45 19.35625 
L 717.45 19.35625 
" clip-path="url(#p890342b59d)" style="fill: none; stroke-dasharray: 5.8,9.57; stroke-dashoffset: 0; stroke: #ef4b1f; stroke-width: 5.8"/>
   </g>
   <g id="line2d_36">
    <path d="M 203.286423 403.126468 
L 204.260218 403.126468 
L 204.260218 397.222311 
L 213.998164 397.222311 
L 213.998164 391.318153 
L 216.919548 391.318153 
L 216.919548 385.413996 
L 230.552673 385.413996 
L 230.552673 373.605682 
L 231.526468 373.605682 
L 231.526468 361.797367 
L 232.500263 361.797367 
L 232.500263 355.89321 
L 236.395441 355.89321 
L 236.395441 349.989053 
L 237.369236 349.989053 
L 237.369236 338.180739 
L 238.343031 338.180739 
L 238.343031 332.276581 
L 239.316825 332.276581 
L 239.316825 314.56411 
L 247.107183 314.56411 
L 247.107183 308.659953 
L 248.080977 308.659953 
L 248.080977 296.851638 
L 255.871334 296.851638 
L 255.871334 290.947481 
L 260.740308 290.947481 
L 260.740308 285.043324 
L 261.714102 285.043324 
L 261.714102 279.139167 
L 263.661692 279.139167 
L 263.661692 267.330852 
L 264.635486 267.330852 
L 264.635486 249.618381 
L 272.425843 249.618381 
L 272.425843 231.905909 
L 273.399638 231.905909 
L 273.399638 226.001752 
L 274.373433 226.001752 
L 274.373433 214.193437 
L 355.198389 214.193437 
L 355.198389 208.28928 
L 359.093568 208.28928 
L 359.093568 202.385123 
L 371.752898 202.385123 
L 371.752898 196.480966 
L 378.569461 196.480966 
L 378.569461 190.576809 
L 382.464639 190.576809 
L 382.464639 184.672652 
L 384.412229 184.672652 
L 384.412229 178.768494 
L 386.359818 178.768494 
L 386.359818 172.864337 
L 387.333613 172.864337 
L 387.333613 166.96018 
L 389.281202 166.96018 
L 389.281202 161.056023 
L 390.254997 161.056023 
L 390.254997 149.247708 
L 434.075756 149.247708 
L 434.075756 143.343551 
L 440.892318 143.343551 
L 440.892318 137.439394 
L 446.735086 137.439394 
L 446.735086 131.535237 
L 456.473033 131.535237 
L 456.473033 125.63108 
L 460.368212 125.63108 
L 460.368212 119.726922 
L 461.342006 119.726922 
L 461.342006 113.822765 
L 462.315801 113.822765 
L 462.315801 102.014451 
L 463.289596 102.014451 
L 463.289596 84.301979 
L 717.45 84.301979 
L 717.45 19.35625 
L 717.45 19.35625 
" clip-path="url(#p890342b59d)" style="fill: none; stroke-dasharray: 21.46,9.28; stroke-dashoffset: 0; stroke: #ffa12b; stroke-width: 5.8"/>
   </g>
   <g id="line2d_37">
    <path d="M 162.387048 408.533591 
L 164.334637 408.533591 
L 164.334637 394.616649 
L 165.308432 394.616649 
L 165.308432 394.119616 
L 166.282226 394.119616 
L 166.282226 392.131481 
L 167.256021 392.131481 
L 167.256021 389.149279 
L 168.229816 389.149279 
L 168.229816 388.155212 
L 169.20361 388.155212 
L 169.20361 385.17301 
L 170.177405 385.17301 
L 170.177405 382.190808 
L 171.1512 382.190808 
L 171.1512 379.208607 
L 172.124994 379.208607 
L 172.124994 376.723438 
L 173.098789 376.723438 
L 173.098789 375.729371 
L 174.072584 375.729371 
L 174.072584 373.244203 
L 175.046378 373.244203 
L 175.046378 372.250136 
L 176.020173 372.250136 
L 176.020173 370.759035 
L 176.993967 370.759035 
L 176.993967 368.273866 
L 177.967762 368.273866 
L 177.967762 366.285732 
L 178.941557 366.285732 
L 178.941557 364.297597 
L 179.915351 364.297597 
L 179.915351 358.333194 
L 180.889146 358.333194 
L 180.889146 355.350992 
L 181.862941 355.350992 
L 181.862941 353.859891 
L 182.836735 353.859891 
L 182.836735 352.36879 
L 183.81053 352.36879 
L 183.81053 348.392521 
L 184.784325 348.392521 
L 184.784325 346.90142 
L 185.758119 346.90142 
L 185.758119 345.907353 
L 186.731914 345.907353 
L 186.731914 343.919218 
L 187.705709 343.919218 
L 187.705709 339.942949 
L 188.679503 339.942949 
L 188.679503 338.451848 
L 189.653298 338.451848 
L 189.653298 336.463713 
L 190.627093 336.463713 
L 190.627093 331.990411 
L 191.600887 331.990411 
L 191.600887 330.002276 
L 192.574682 330.002276 
L 192.574682 328.511175 
L 193.548477 328.511175 
L 193.548477 325.528973 
L 194.522271 325.528973 
L 194.522271 322.049738 
L 195.496066 322.049738 
L 195.496066 318.073469 
L 196.469861 318.073469 
L 196.469861 315.5883 
L 197.443655 315.5883 
L 197.443655 312.109065 
L 198.41745 312.109065 
L 198.41745 309.126863 
L 199.391245 309.126863 
L 199.391245 306.641695 
L 200.365039 306.641695 
L 200.365039 303.659493 
L 201.338834 303.659493 
L 201.338834 298.689157 
L 202.312628 298.689157 
L 202.312628 297.695089 
L 203.286423 297.695089 
L 203.286423 293.71882 
L 204.260218 293.71882 
L 204.260218 289.742551 
L 205.234012 289.742551 
L 205.234012 288.25145 
L 206.207807 288.25145 
L 206.207807 285.269248 
L 207.181602 285.269248 
L 207.181602 282.78408 
L 208.155396 282.78408 
L 208.155396 278.310777 
L 209.129191 278.310777 
L 209.129191 276.819676 
L 210.102986 276.819676 
L 210.102986 272.346374 
L 211.07678 272.346374 
L 211.07678 267.873071 
L 212.050575 267.873071 
L 212.050575 265.884936 
L 213.02437 265.884936 
L 213.02437 263.399768 
L 213.998164 263.399768 
L 213.998164 258.926465 
L 214.971959 258.926465 
L 214.971959 256.938331 
L 215.945754 256.938331 
L 215.945754 254.453162 
L 216.919548 254.453162 
L 216.919548 250.476893 
L 217.893343 250.476893 
L 217.893343 247.494691 
L 218.867138 247.494691 
L 218.867138 245.506557 
L 219.840932 245.506557 
L 219.840932 243.518422 
L 220.814727 243.518422 
L 220.814727 239.04512 
L 221.788522 239.04512 
L 221.788522 237.554019 
L 222.762316 237.554019 
L 222.762316 235.565884 
L 223.736111 235.565884 
L 223.736111 230.595548 
L 224.709905 230.595548 
L 224.709905 227.116312 
L 225.6837 227.116312 
L 225.6837 226.619279 
L 226.657495 226.619279 
L 226.657495 222.643009 
L 227.631289 222.643009 
L 227.631289 218.169707 
L 228.605084 218.169707 
L 228.605084 216.181572 
L 229.578879 216.181572 
L 229.578879 214.193437 
L 230.552673 214.193437 
L 230.552673 210.714202 
L 231.526468 210.714202 
L 231.526468 207.732 
L 232.500263 207.732 
L 232.500263 206.240899 
L 233.474057 206.240899 
L 233.474057 186.856587 
L 234.447852 186.856587 
L 234.447852 181.886251 
L 235.421647 181.886251 
L 235.421647 181.389217 
L 236.395441 181.389217 
L 236.395441 179.898116 
L 237.369236 179.898116 
L 237.369236 173.436679 
L 238.343031 173.436679 
L 238.343031 172.939645 
L 239.316825 172.939645 
L 239.316825 171.448544 
L 240.29062 171.448544 
L 240.29062 156.040501 
L 241.264415 156.040501 
L 241.264415 155.046434 
L 242.238209 155.046434 
L 242.238209 152.561266 
L 243.212004 152.561266 
L 243.212004 151.567199 
L 244.185799 151.567199 
L 244.185799 150.076098 
L 245.159593 150.076098 
L 245.159593 149.08203 
L 246.133388 149.08203 
L 246.133388 147.59093 
L 247.107183 147.59093 
L 247.107183 143.61466 
L 248.080977 143.61466 
L 248.080977 142.620593 
L 249.054772 142.620593 
L 249.054772 142.123559 
L 250.028566 142.123559 
L 250.028566 141.626526 
L 251.002361 141.626526 
L 251.002361 140.632459 
L 251.976156 140.632459 
L 251.976156 139.638391 
L 252.94995 139.638391 
L 252.94995 138.644324 
L 253.923745 138.644324 
L 253.923745 134.171021 
L 254.89754 134.171021 
L 254.89754 133.176954 
L 255.871334 133.176954 
L 255.871334 132.67992 
L 256.845129 132.67992 
L 256.845129 132.182887 
L 257.818924 132.182887 
L 257.818924 128.206618 
L 258.792718 128.206618 
L 258.792718 127.709584 
L 259.766513 127.709584 
L 259.766513 127.21255 
L 260.740308 127.21255 
L 260.740308 125.224416 
L 261.714102 125.224416 
L 261.714102 124.230348 
L 264.635486 124.230348 
L 264.635486 123.236281 
L 265.609281 123.236281 
L 265.609281 120.254079 
L 266.583076 120.254079 
L 266.583076 118.762978 
L 267.55687 118.762978 
L 267.55687 117.768911 
L 268.530665 117.768911 
L 268.530665 116.774844 
L 269.50446 116.774844 
L 269.50446 116.27781 
L 270.478254 116.27781 
L 270.478254 114.786709 
L 272.425843 114.786709 
L 272.425843 114.289676 
L 273.399638 114.289676 
L 273.399638 112.798575 
L 274.373433 112.798575 
L 274.373433 107.828238 
L 275.347227 107.828238 
L 275.347227 107.331205 
L 276.321022 107.331205 
L 276.321022 105.840104 
L 277.294817 105.840104 
L 277.294817 105.34307 
L 279.242406 105.34307 
L 279.242406 104.846036 
L 280.216201 104.846036 
L 280.216201 103.851969 
L 281.189995 103.851969 
L 281.189995 102.857902 
L 283.137585 102.857902 
L 283.137585 102.360868 
L 284.111379 102.360868 
L 284.111379 101.366801 
L 285.085174 101.366801 
L 285.085174 100.869767 
L 287.032763 100.869767 
L 287.032763 100.372734 
L 288.006558 100.372734 
L 288.006558 99.378666 
L 288.980353 99.378666 
L 288.980353 98.384599 
L 289.954147 98.384599 
L 289.954147 96.893498 
L 290.927942 96.893498 
L 290.927942 95.402397 
L 292.875531 95.402397 
L 292.875531 94.905364 
L 293.849326 94.905364 
L 293.849326 93.414263 
L 294.823121 93.414263 
L 294.823121 88.94096 
L 295.796915 88.94096 
L 295.796915 87.449859 
L 296.77071 87.449859 
L 296.77071 83.970623 
L 298.718299 83.970623 
L 298.718299 83.47359 
L 299.692094 83.47359 
L 299.692094 81.485455 
L 300.665888 81.485455 
L 300.665888 80.491388 
L 301.639683 80.491388 
L 301.639683 79.994354 
L 302.613478 79.994354 
L 302.613478 79.000287 
L 303.587272 79.000287 
L 303.587272 78.503253 
L 304.561067 78.503253 
L 304.561067 77.509186 
L 305.534862 77.509186 
L 305.534862 76.515119 
L 306.508656 76.515119 
L 306.508656 76.018085 
L 307.482451 76.018085 
L 307.482451 75.024018 
L 308.456246 75.024018 
L 308.456246 74.526984 
L 309.43004 74.526984 
L 309.43004 73.532917 
L 310.403835 73.532917 
L 310.403835 73.035883 
L 312.351424 73.035883 
L 312.351424 72.041816 
L 313.325219 72.041816 
L 313.325219 70.550715 
L 314.299014 70.550715 
L 314.299014 69.556648 
L 315.272808 69.556648 
L 315.272808 68.562581 
L 316.246603 68.562581 
L 316.246603 67.568513 
L 317.220398 67.568513 
L 317.220398 67.07148 
L 318.194192 67.07148 
L 318.194192 66.574446 
L 319.167987 66.574446 
L 319.167987 65.580379 
L 320.141782 65.580379 
L 320.141782 60.113009 
L 321.115576 60.113009 
L 321.115576 59.615975 
L 322.089371 59.615975 
L 322.089371 55.639706 
L 324.03696 55.639706 
L 324.03696 54.148605 
L 325.010755 54.148605 
L 325.010755 53.651571 
L 325.984549 53.651571 
L 325.984549 53.154538 
L 326.958344 53.154538 
L 326.958344 52.16047 
L 327.932139 52.16047 
L 327.932139 51.663437 
L 328.905933 51.663437 
L 328.905933 50.172336 
L 330.853523 50.172336 
L 330.853523 49.675302 
L 331.827317 49.675302 
L 331.827317 49.178268 
L 333.774907 49.178268 
L 333.774907 48.681235 
L 334.748701 48.681235 
L 334.748701 47.687168 
L 335.722496 47.687168 
L 335.722496 47.190134 
L 336.696291 47.190134 
L 336.696291 46.6931 
L 337.670085 46.6931 
L 337.670085 45.201999 
L 338.64388 45.201999 
L 338.64388 44.704966 
L 341.565264 44.704966 
L 341.565264 44.207932 
L 342.539059 44.207932 
L 342.539059 41.22573 
L 343.512853 41.22573 
L 343.512853 40.728697 
L 344.486648 40.728697 
L 344.486648 40.231663 
L 346.434237 40.231663 
L 346.434237 39.734629 
L 347.408032 39.734629 
L 347.408032 38.740562 
L 348.381826 38.740562 
L 348.381826 38.243528 
L 349.355621 38.243528 
L 349.355621 33.770226 
L 350.329416 33.770226 
L 350.329416 33.273192 
L 351.30321 33.273192 
L 351.30321 32.776158 
L 352.277005 32.776158 
L 352.277005 32.279125 
L 354.224594 32.279125 
L 354.224594 31.285057 
L 355.198389 31.285057 
L 355.198389 30.788024 
L 358.119773 30.788024 
L 358.119773 29.793956 
L 361.041157 29.793956 
L 361.041157 29.296923 
L 362.014952 29.296923 
L 362.014952 28.799889 
L 362.988746 28.799889 
L 362.988746 26.314721 
L 363.962541 26.314721 
L 363.962541 25.817687 
L 364.936336 25.817687 
L 364.936336 24.82362 
L 366.883925 24.82362 
L 366.883925 24.326586 
L 367.85772 24.326586 
L 367.85772 23.829553 
L 368.831514 23.829553 
L 368.831514 22.338452 
L 369.805309 22.338452 
L 369.805309 19.35625 
L 369.805309 19.35625 
" clip-path="url(#p890342b59d)" style="fill: none; stroke-dasharray: 40.6,29; stroke-dashoffset: 0; stroke: #663399; stroke-width: 5.8"/>
   </g>
   <g id="patch_3">
    <path d="M 128.09 409.030625 
L 128.09 19.35625 
" style="fill: none; stroke: #55575a; stroke-width: 1.35; stroke-linejoin: miter; stroke-linecap: square"/>
   </g>
   <g id="patch_4">
    <path d="M 717.45 409.030625 
L 717.45 19.35625 
" style="fill: none; stroke: #55575a; stroke-width: 1.35; stroke-linejoin: miter; stroke-linecap: square"/>
   </g>
   <g id="patch_5">
    <path d="M 128.09 409.030625 
L 717.45 409.030625 
" style="fill: none; stroke: #55575a; stroke-width: 1.35; stroke-linejoin: miter; stroke-linecap: square"/>
   </g>
   <g id="patch_6">
    <path d="M 128.09 19.35625 
L 717.45 19.35625 
" style="fill: none; stroke: #55575a; stroke-width: 1.35; stroke-linejoin: miter; stroke-linecap: square"/>
   </g>
   <g id="legend_1">
    <g id="patch_7">
     <path d="M 394.214738 378.44365 
L 675.9288 378.44365 
L 675.9288 216.134275 
L 394.214738 216.134275 
z
" style="fill: #ffffff; stroke: #55575a; stroke-width: 1.15; stroke-linejoin: miter"/>
    </g>
    <g id="line2d_38">
     <path d="M 404.114738 238.329587 
L 432.614738 238.329587 
L 432.614738 238.329587 
L 461.114738 238.329587 
L 461.114738 238.329587 
" style="fill: none; stroke: #1676ba; stroke-width: 6.5"/>
    </g>
    <g id="text_14">
     <!-- Starlink -->
     <g transform="translate(471.614738 248.829587) scale(0.3 -0.3)">
      <defs>
       <path id="DejaVuSans-55" d="M 2631 2963 
Q 2534 3019 2420 3045 
Q 2306 3072 2169 3072 
Q 1681 3072 1420 2755 
Q 1159 2438 1159 1844 
L 1159 0 
L 581 0 
L 581 3500 
L 1159 3500 
L 1159 2956 
Q 1341 3275 1631 3429 
Q 1922 3584 2338 3584 
Q 2397 3584 2469 3576 
Q 2541 3569 2628 3553 
L 2631 2963 
z
" transform="scale(0.015625)"/>
       <path id="DejaVuSans-4e" d="M 581 4863 
L 1159 4863 
L 1159 1991 
L 2875 3500 
L 3609 3500 
L 1753 1863 
L 3688 0 
L 2938 0 
L 1159 1709 
L 1159 0 
L 581 0 
L 581 4863 
z
" transform="scale(0.015625)"/>
      </defs>
      <use xlink:href="#DejaVuSans-36"/>
      <use xlink:href="#DejaVuSans-57" transform="translate(63.484375 0)"/>
      <use xlink:href="#DejaVuSans-44" transform="translate(102.6875 0)"/>
      <use xlink:href="#DejaVuSans-55" transform="translate(163.96875 0)"/>
      <use xlink:href="#DejaVuSans-4f" transform="translate(205.078125 0)"/>
      <use xlink:href="#DejaVuSans-4c" transform="translate(232.859375 0)"/>
      <use xlink:href="#DejaVuSans-51" transform="translate(260.640625 0)"/>
      <use xlink:href="#DejaVuSans-4e" transform="translate(324.015625 0)"/>
     </g>
    </g>
    <g id="line2d_39">
     <path d="M 404.114738 275.831931 
L 432.614738 275.831931 
L 432.614738 275.831931 
L 461.114738 275.831931 
L 461.114738 275.831931 
" style="fill: none; stroke-dasharray: 6.5,10.725; stroke-dashoffset: 0; stroke: #ef4b1f; stroke-width: 6.5"/>
    </g>
    <g id="text_15">
     <!-- OneWeb -->
     <g transform="translate(471.614738 286.331931) scale(0.3 -0.3)">
      <defs>
       <path id="DejaVuSans-32" d="M 2522 4238 
Q 1834 4238 1429 3725 
Q 1025 3213 1025 2328 
Q 1025 1447 1429 934 
Q 1834 422 2522 422 
Q 3209 422 3611 934 
Q 4013 1447 4013 2328 
Q 4013 3213 3611 3725 
Q 3209 4238 2522 4238 
z
M 2522 4750 
Q 3503 4750 4090 4092 
Q 4678 3434 4678 2328 
Q 4678 1225 4090 567 
Q 3503 -91 2522 -91 
Q 1538 -91 948 565 
Q 359 1222 359 2328 
Q 359 3434 948 4092 
Q 1538 4750 2522 4750 
z
" transform="scale(0.015625)"/>
       <path id="DejaVuSans-48" d="M 3597 1894 
L 3597 1613 
L 953 1613 
Q 991 1019 1311 708 
Q 1631 397 2203 397 
Q 2534 397 2845 478 
Q 3156 559 3463 722 
L 3463 178 
Q 3153 47 2828 -22 
Q 2503 -91 2169 -91 
Q 1331 -91 842 396 
Q 353 884 353 1716 
Q 353 2575 817 3079 
Q 1281 3584 2069 3584 
Q 2775 3584 3186 3129 
Q 3597 2675 3597 1894 
z
M 3022 2063 
Q 3016 2534 2758 2815 
Q 2500 3097 2075 3097 
Q 1594 3097 1305 2825 
Q 1016 2553 972 2059 
L 3022 2063 
z
" transform="scale(0.015625)"/>
       <path id="DejaVuSans-3a" d="M 213 4666 
L 850 4666 
L 1831 722 
L 2809 4666 
L 3519 4666 
L 4500 722 
L 5478 4666 
L 6119 4666 
L 4947 0 
L 4153 0 
L 3169 4050 
L 2175 0 
L 1381 0 
L 213 4666 
z
" transform="scale(0.015625)"/>
       <path id="DejaVuSans-45" d="M 3116 1747 
Q 3116 2381 2855 2742 
Q 2594 3103 2138 3103 
Q 1681 3103 1420 2742 
Q 1159 2381 1159 1747 
Q 1159 1113 1420 752 
Q 1681 391 2138 391 
Q 2594 391 2855 752 
Q 3116 1113 3116 1747 
z
M 1159 2969 
Q 1341 3281 1617 3432 
Q 1894 3584 2278 3584 
Q 2916 3584 3314 3078 
Q 3713 2572 3713 1747 
Q 3713 922 3314 415 
Q 2916 -91 2278 -91 
Q 1894 -91 1617 61 
Q 1341 213 1159 525 
L 1159 0 
L 581 0 
L 581 4863 
L 1159 4863 
L 1159 2969 
z
" transform="scale(0.015625)"/>
      </defs>
      <use xlink:href="#DejaVuSans-32"/>
      <use xlink:href="#DejaVuSans-51" transform="translate(78.71875 0)"/>
      <use xlink:href="#DejaVuSans-48" transform="translate(142.09375 0)"/>
      <use xlink:href="#DejaVuSans-3a" transform="translate(203.625 0)"/>
      <use xlink:href="#DejaVuSans-48" transform="translate(296.640625 0)"/>
      <use xlink:href="#DejaVuSans-45" transform="translate(358.171875 0)"/>
     </g>
    </g>
    <g id="line2d_40">
     <path d="M 404.114738 313.334275 
L 432.614738 313.334275 
L 432.614738 313.334275 
L 461.114738 313.334275 
L 461.114738 313.334275 
" style="fill: none; stroke-dasharray: 24.05,10.4; stroke-dashoffset: 0; stroke: #ffa12b; stroke-width: 6.5"/>
    </g>
    <g id="text_16">
     <!-- Iridium NEXT -->
     <g transform="translate(471.614738 323.834275) scale(0.3 -0.3)">
      <defs>
       <path id="DejaVuSans-2c" d="M 628 4666 
L 1259 4666 
L 1259 0 
L 628 0 
L 628 4666 
z
" transform="scale(0.015625)"/>
       <path id="DejaVuSans-47" d="M 2906 2969 
L 2906 4863 
L 3481 4863 
L 3481 0 
L 2906 0 
L 2906 525 
Q 2725 213 2448 61 
Q 2172 -91 1784 -91 
Q 1150 -91 751 415 
Q 353 922 353 1747 
Q 353 2572 751 3078 
Q 1150 3584 1784 3584 
Q 2172 3584 2448 3432 
Q 2725 3281 2906 2969 
z
M 947 1747 
Q 947 1113 1208 752 
Q 1469 391 1925 391 
Q 2381 391 2643 752 
Q 2906 1113 2906 1747 
Q 2906 2381 2643 2742 
Q 2381 3103 1925 3103 
Q 1469 3103 1208 2742 
Q 947 2381 947 1747 
z
" transform="scale(0.015625)"/>
       <path id="DejaVuSans-50" d="M 3328 2828 
Q 3544 3216 3844 3400 
Q 4144 3584 4550 3584 
Q 5097 3584 5394 3201 
Q 5691 2819 5691 2113 
L 5691 0 
L 5113 0 
L 5113 2094 
Q 5113 2597 4934 2840 
Q 4756 3084 4391 3084 
Q 3944 3084 3684 2787 
Q 3425 2491 3425 1978 
L 3425 0 
L 2847 0 
L 2847 2094 
Q 2847 2600 2669 2842 
Q 2491 3084 2119 3084 
Q 1678 3084 1418 2786 
Q 1159 2488 1159 1978 
L 1159 0 
L 581 0 
L 581 3500 
L 1159 3500 
L 1159 2956 
Q 1356 3278 1631 3431 
Q 1906 3584 2284 3584 
Q 2666 3584 2933 3390 
Q 3200 3197 3328 2828 
z
" transform="scale(0.015625)"/>
       <path id="DejaVuSans-31" d="M 628 4666 
L 1478 4666 
L 3547 763 
L 3547 4666 
L 4159 4666 
L 4159 0 
L 3309 0 
L 1241 3903 
L 1241 0 
L 628 0 
L 628 4666 
z
" transform="scale(0.015625)"/>
       <path id="DejaVuSans-28" d="M 628 4666 
L 3578 4666 
L 3578 4134 
L 1259 4134 
L 1259 2753 
L 3481 2753 
L 3481 2222 
L 1259 2222 
L 1259 531 
L 3634 531 
L 3634 0 
L 628 0 
L 628 4666 
z
" transform="scale(0.015625)"/>
       <path id="DejaVuSans-3b" d="M 403 4666 
L 1081 4666 
L 2241 2931 
L 3406 4666 
L 4084 4666 
L 2584 2425 
L 4184 0 
L 3506 0 
L 2194 1984 
L 872 0 
L 191 0 
L 1856 2491 
L 403 4666 
z
" transform="scale(0.015625)"/>
       <path id="DejaVuSans-37" d="M -19 4666 
L 3928 4666 
L 3928 4134 
L 2272 4134 
L 2272 0 
L 1638 0 
L 1638 4134 
L -19 4134 
L -19 4666 
z
" transform="scale(0.015625)"/>
      </defs>
      <use xlink:href="#DejaVuSans-2c"/>
      <use xlink:href="#DejaVuSans-55" transform="translate(29.5 0)"/>
      <use xlink:href="#DejaVuSans-4c" transform="translate(70.609375 0)"/>
      <use xlink:href="#DejaVuSans-47" transform="translate(98.390625 0)"/>
      <use xlink:href="#DejaVuSans-4c" transform="translate(161.875 0)"/>
      <use xlink:href="#DejaVuSans-58" transform="translate(189.65625 0)"/>
      <use xlink:href="#DejaVuSans-50" transform="translate(253.03125 0)"/>
      <use xlink:href="#DejaVuSans-3" transform="translate(350.4375 0)"/>
      <use xlink:href="#DejaVuSans-31" transform="translate(382.21875 0)"/>
      <use xlink:href="#DejaVuSans-28" transform="translate(457.03125 0)"/>
      <use xlink:href="#DejaVuSans-3b" transform="translate(520.21875 0)"/>
      <use xlink:href="#DejaVuSans-37" transform="translate(586.96875 0)"/>
     </g>
    </g>
    <g id="line2d_41">
     <path d="M 404.114738 350.836619 
L 432.614738 350.836619 
L 432.614738 350.836619 
L 461.114738 350.836619 
L 461.114738 350.836619 
" style="fill: none; stroke-dasharray: 45.5,32.5; stroke-dashoffset: 0; stroke: #663399; stroke-width: 6.5"/>
    </g>
    <g id="text_17">
     <!-- Kuiper -->
     <g transform="translate(471.614738 361.336619) scale(0.3 -0.3)">
      <defs>
       <path id="DejaVuSans-2e" d="M 628 4666 
L 1259 4666 
L 1259 2694 
L 3353 4666 
L 4166 4666 
L 1850 2491 
L 4331 0 
L 3500 0 
L 1259 2247 
L 1259 0 
L 628 0 
L 628 4666 
z
" transform="scale(0.015625)"/>
       <path id="DejaVuSans-53" d="M 1159 525 
L 1159 -1331 
L 581 -1331 
L 581 3500 
L 1159 3500 
L 1159 2969 
Q 1341 3281 1617 3432 
Q 1894 3584 2278 3584 
Q 2916 3584 3314 3078 
Q 3713 2572 3713 1747 
Q 3713 922 3314 415 
Q 2916 -91 2278 -91 
Q 1894 -91 1617 61 
Q 1341 213 1159 525 
z
M 3116 1747 
Q 3116 2381 2855 2742 
Q 2594 3103 2138 3103 
Q 1681 3103 1420 2742 
Q 1159 2381 1159 1747 
Q 1159 1113 1420 752 
Q 1681 391 2138 391 
Q 2594 391 2855 752 
Q 3116 1113 3116 1747 
z
" transform="scale(0.015625)"/>
      </defs>
      <use xlink:href="#DejaVuSans-2e"/>
      <use xlink:href="#DejaVuSans-58" transform="translate(60.59375 0)"/>
      <use xlink:href="#DejaVuSans-4c" transform="translate(123.96875 0)"/>
      <use xlink:href="#DejaVuSans-53" transform="translate(151.75 0)"/>
      <use xlink:href="#DejaVuSans-48" transform="translate(215.234375 0)"/>
      <use xlink:href="#DejaVuSans-55" transform="translate(276.765625 0)"/>
     </g>
    </g>
   </g>
  </g>
 </g>
 <defs>
  <clipPath id="p890342b59d">
   <rect x="128.09" y="19.35625" width="589.36" height="389.674375"/>
  </clipPath>
 </defs>
</svg>
