<svg xmlns="http://www.w3.org/2000/svg" width="960" height="520" viewBox="0 0 960 520">
  <style>text { font-family: -apple-system, BlinkMacSystemFont, &quot;Segoe UI&quot;, sans-serif; fill: #222; font-size: 13px; } .title { font-size: 21px; font-weight: 700; } .label { font-size: 15px; font-weight: 600; }</style>
  <rect width="100%" height="100%" fill="white" />
  <text class="title" x="480.0" y="30" text-anchor="middle">Starlink 1584: battery breach ratio by CPU power</text>
  <text x="480.0" y="52" text-anchor="middle" fill="#666">input data size per 30s slot</text>
  <line x1="82" y1="434" x2="780" y2="434" stroke="#999" />
  <line x1="82" y1="72" x2="82" y2="434" stroke="#999" />
  <line x1="82" y1="434.0" x2="780" y2="434.0" stroke="#e5e5e5" />
  <text x="72" y="438.0" text-anchor="end">0.0</text>
  <line x1="82" y1="397.8" x2="780" y2="397.8" stroke="#e5e5e5" />
  <text x="72" y="401.8" text-anchor="end">0.1</text>
  <line x1="82" y1="361.6" x2="780" y2="361.6" stroke="#e5e5e5" />
  <text x="72" y="365.6" text-anchor="end">0.2</text>
  <line x1="82" y1="325.4" x2="780" y2="325.4" stroke="#e5e5e5" />
  <text x="72" y="329.4" text-anchor="end">0.3</text>
  <line x1="82" y1="289.2" x2="780" y2="289.2" stroke="#e5e5e5" />
  <text x="72" y="293.2" text-anchor="end">0.4</text>
  <line x1="82" y1="253.0" x2="780" y2="253.0" stroke="#e5e5e5" />
  <text x="72" y="257.0" text-anchor="end">0.5</text>
  <line x1="82" y1="216.8" x2="780" y2="216.8" stroke="#e5e5e5" />
  <text x="72" y="220.8" text-anchor="end">0.6</text>
  <line x1="82" y1="180.6" x2="780" y2="180.6" stroke="#e5e5e5" />
  <text x="72" y="184.6" text-anchor="end">0.7</text>
  <line x1="82" y1="144.4" x2="780" y2="144.4" stroke="#e5e5e5" />
  <text x="72" y="148.4" text-anchor="end">0.8</text>
  <line x1="82" y1="108.2" x2="780" y2="108.2" stroke="#e5e5e5" />
  <text x="72" y="112.2" text-anchor="end">0.9</text>
  <line x1="82" y1="72.0" x2="780" y2="72.0" stroke="#e5e5e5" />
  <text x="72" y="76.0" text-anchor="end">1.0</text>
  <line x1="82.0" y1="434" x2="82.0" y2="439" stroke="#999" />
  <text x="82.0" y="458" text-anchor="middle">5GB</text>
  <line x1="221.6" y1="434" x2="221.6" y2="439" stroke="#999" />
  <text x="221.6" y="458" text-anchor="middle">10GB</text>
  <line x1="361.2" y1="434" x2="361.2" y2="439" stroke="#999" />
  <text x="361.2" y="458" text-anchor="middle">15GB</text>
  <line x1="500.8" y1="434" x2="500.8" y2="439" stroke="#999" />
  <text x="500.8" y="458" text-anchor="middle">20GB</text>
  <line x1="640.4" y1="434" x2="640.4" y2="439" stroke="#999" />
  <text x="640.4" y="458" text-anchor="middle">25GB</text>
  <line x1="780.0" y1="434" x2="780.0" y2="439" stroke="#999" />
  <text x="780.0" y="458" text-anchor="middle">30GB</text>
  <polyline points="82.0,434.0 221.6,434.0 361.2,434.0 500.8,434.0 640.4,434.0 780.0,434.0" fill="none" stroke="#1f77b4" stroke-width="2.5" />
  <circle cx="82.0" cy="434.0" r="4" fill="#1f77b4"><title>CPU 20W, 5GB, breach ratio 0.0000</title></circle>
  <circle cx="221.6" cy="434.0" r="4" fill="#1f77b4"><title>CPU 20W, 10GB, breach ratio 0.0000</title></circle>
  <circle cx="361.2" cy="434.0" r="4" fill="#1f77b4"><title>CPU 20W, 15GB, breach ratio 0.0000</title></circle>
  <circle cx="500.8" cy="434.0" r="4" fill="#1f77b4"><title>CPU 20W, 20GB, breach ratio 0.0000</title></circle>
  <circle cx="640.4" cy="434.0" r="4" fill="#1f77b4"><title>CPU 20W, 25GB, breach ratio 0.0000</title></circle>
  <circle cx="780.0" cy="434.0" r="4" fill="#1f77b4"><title>CPU 20W, 30GB, breach ratio 0.0000</title></circle>
  <line x1="808" y1="72" x2="838" y2="72" stroke="#1f77b4" stroke-width="2.5" />
  <text x="846" y="76">20W</text>
  <polyline points="82.0,323.6 221.6,314.2 361.2,309.2 500.8,306.7 640.4,304.6 780.0,303.0" fill="none" stroke="#d62728" stroke-width="2.5" />
  <circle cx="82.0" cy="323.6" r="4" fill="#d62728"><title>CPU 30W, 5GB, breach ratio 0.3049</title></circle>
  <circle cx="221.6" cy="314.2" r="4" fill="#d62728"><title>CPU 30W, 10GB, breach ratio 0.3308</title></circle>
  <circle cx="361.2" cy="309.2" r="4" fill="#d62728"><title>CPU 30W, 15GB, breach ratio 0.3447</title></circle>
  <circle cx="500.8" cy="306.7" r="4" fill="#d62728"><title>CPU 30W, 20GB, breach ratio 0.3516</title></circle>
  <circle cx="640.4" cy="304.6" r="4" fill="#d62728"><title>CPU 30W, 25GB, breach ratio 0.3573</title></circle>
  <circle cx="780.0" cy="303.0" r="4" fill="#d62728"><title>CPU 30W, 30GB, breach ratio 0.3617</title></circle>
  <line x1="808" y1="96" x2="838" y2="96" stroke="#d62728" stroke-width="2.5" />
  <text x="846" y="100">30W</text>
  <polyline points="82.0,292.8 221.6,275.9 361.2,269.9 500.8,264.9 640.4,257.6 780.0,253.9" fill="none" stroke="#2ca02c" stroke-width="2.5" />
  <circle cx="82.0" cy="292.8" r="4" fill="#2ca02c"><title>CPU 40W, 5GB, breach ratio 0.3902</title></circle>
  <circle cx="221.6" cy="275.9" r="4" fill="#2ca02c"><title>CPU 40W, 10GB, breach ratio 0.4369</title></circle>
  <circle cx="361.2" cy="269.9" r="4" fill="#2ca02c"><title>CPU 40W, 15GB, breach ratio 0.4533</title></circle>
  <circle cx="500.8" cy="264.9" r="4" fill="#2ca02c"><title>CPU 40W, 20GB, breach ratio 0.4672</title></circle>
  <circle cx="640.4" cy="257.6" r="4" fill="#2ca02c"><title>CPU 40W, 25GB, breach ratio 0.4874</title></circle>
  <circle cx="780.0" cy="253.9" r="4" fill="#2ca02c"><title>CPU 40W, 30GB, breach ratio 0.4975</title></circle>
  <line x1="808" y1="120" x2="838" y2="120" stroke="#2ca02c" stroke-width="2.5" />
  <text x="846" y="124">40W</text>
  <polyline points="82.0,260.5 221.6,245.0 361.2,237.9 500.8,226.5 640.4,218.0 780.0,212.8" fill="none" stroke="#9467bd" stroke-width="2.5" />
  <circle cx="82.0" cy="260.5" r="4" fill="#9467bd"><title>CPU 50W, 5GB, breach ratio 0.4792</title></circle>
  <circle cx="221.6" cy="245.0" r="4" fill="#9467bd"><title>CPU 50W, 10GB, breach ratio 0.5221</title></circle>
  <circle cx="361.2" cy="237.9" r="4" fill="#9467bd"><title>CPU 50W, 15GB, breach ratio 0.5417</title></circle>
  <circle cx="500.8" cy="226.5" r="4" fill="#9467bd"><title>CPU 50W, 20GB, breach ratio 0.5732</title></circle>
  <circle cx="640.4" cy="218.0" r="4" fill="#9467bd"><title>CPU 50W, 25GB, breach ratio 0.5966</title></circle>
  <circle cx="780.0" cy="212.8" r="4" fill="#9467bd"><title>CPU 50W, 30GB, breach ratio 0.6111</title></circle>
  <line x1="808" y1="144" x2="838" y2="144" stroke="#9467bd" stroke-width="2.5" />
  <text x="846" y="148">50W</text>
  <text class="label" x="431.0" y="498" text-anchor="middle">data size per time slot</text>
  <text class="label" transform="translate(24 253.0) rotate(-90)" text-anchor="middle">breach ratio</text>
</svg>
