<svg xmlns="http://www.w3.org/2000/svg" width="820" height="640" viewBox="0 0 820 640">
<style>text { font-family: -apple-system, BlinkMacSystemFont, "Segoe UI", sans-serif; font-size: 13px; fill: #222; } .title { font-size: 20px; font-weight: 700; } .label { font-size: 15px; font-weight: 600; } .note { font-size: 12px; fill: #666; }</style>
<rect width="100%" height="100%" fill="white" />
<text class="title" x="410.0" y="30" text-anchor="middle">Global demand: battery breach ratio by data size (30s slot)</text>
<text class="note" x="410.0" y="52" text-anchor="middle">WorldPop global demand, 5° aggregation; labels show ratio and breached satellite count</text>
<text class="note" x="410.0" y="70" text-anchor="middle">971 demand points; one local task per point per 30s slot; one complete orbit cycle</text>
<rect x="86" y="138" width="698" height="385" fill="#fafafa" stroke="#ccc" />
<line x1="80" y1="523.00" x2="86" y2="523.00" stroke="#333" />
<text x="76" y="527.00" text-anchor="end">0%</text>
<line x1="86" y1="523.00" x2="784" y2="523.00" stroke="#eee" />
<line x1="80" y1="487.35" x2="86" y2="487.35" stroke="#333" />
<text x="76" y="491.35" text-anchor="end">10%</text>
<line x1="86" y1="487.35" x2="784" y2="487.35" stroke="#eee" />
<line x1="80" y1="451.70" x2="86" y2="451.70" stroke="#333" />
<text x="76" y="455.70" text-anchor="end">20%</text>
<line x1="86" y1="451.70" x2="784" y2="451.70" stroke="#eee" />
<line x1="80" y1="416.06" x2="86" y2="416.06" stroke="#333" />
<text x="76" y="420.06" text-anchor="end">30%</text>
<line x1="86" y1="416.06" x2="784" y2="416.06" stroke="#eee" />
<line x1="80" y1="380.41" x2="86" y2="380.41" stroke="#333" />
<text x="76" y="384.41" text-anchor="end">40%</text>
<line x1="86" y1="380.41" x2="784" y2="380.41" stroke="#eee" />
<line x1="80" y1="344.76" x2="86" y2="344.76" stroke="#333" />
<text x="76" y="348.76" text-anchor="end">50%</text>
<line x1="86" y1="344.76" x2="784" y2="344.76" stroke="#eee" />
<line x1="80" y1="309.11" x2="86" y2="309.11" stroke="#333" />
<text x="76" y="313.11" text-anchor="end">60%</text>
<line x1="86" y1="309.11" x2="784" y2="309.11" stroke="#eee" />
<line x1="80" y1="273.46" x2="86" y2="273.46" stroke="#333" />
<text x="76" y="277.46" text-anchor="end">70%</text>
<line x1="86" y1="273.46" x2="784" y2="273.46" stroke="#eee" />
<line x1="80" y1="237.81" x2="86" y2="237.81" stroke="#333" />
<text x="76" y="241.81" text-anchor="end">80%</text>
<line x1="86" y1="237.81" x2="784" y2="237.81" stroke="#eee" />
<line x1="80" y1="202.17" x2="86" y2="202.17" stroke="#333" />
<text x="76" y="206.17" text-anchor="end">90%</text>
<line x1="86" y1="202.17" x2="784" y2="202.17" stroke="#eee" />
<line x1="80" y1="166.52" x2="86" y2="166.52" stroke="#333" />
<text x="76" y="170.52" text-anchor="end">100%</text>
<line x1="86" y1="166.52" x2="784" y2="166.52" stroke="#eee" />
<line x1="86" y1="523" x2="784" y2="523" stroke="#333" />
<line x1="86" y1="138" x2="86" y2="523" stroke="#333" />
<rect x="108.34" y="523.00" width="94.93" height="0.00" fill="#1f77b4" stroke="#155a8a" />
<text x="155.80" y="515.00" text-anchor="middle">0.0% (0)</text>
<text x="155.80" y="561" text-anchor="middle">10M</text>
<rect x="247.94" y="428.93" width="94.93" height="94.07" fill="#1f77b4" stroke="#155a8a" />
<text x="295.40" y="420.93" text-anchor="middle">26.4% (418)</text>
<text x="295.40" y="561" text-anchor="middle">20M</text>
<rect x="387.54" y="306.95" width="94.93" height="216.05" fill="#1f77b4" stroke="#155a8a" />
<text x="435.00" y="298.95" text-anchor="middle">60.6% (960)</text>
<text x="435.00" y="561" text-anchor="middle">30M</text>
<rect x="527.14" y="263.29" width="94.93" height="259.71" fill="#1f77b4" stroke="#155a8a" />
<text x="574.60" y="255.29" text-anchor="middle">72.9% (1154)</text>
<text x="574.60" y="561" text-anchor="middle">40M</text>
<rect x="666.74" y="166.97" width="94.93" height="356.03" fill="#1f77b4" stroke="#155a8a" />
<text x="714.20" y="158.97" text-anchor="middle">99.9% (1582)</text>
<text x="714.20" y="561" text-anchor="middle">100M</text>
<text class="label" x="435.0" y="614" text-anchor="middle">Data size per global demand point per slot</text>
<text class="label" transform="translate(24 330.5) rotate(-90)" text-anchor="middle">Satellites below minimum battery ratio</text>
</svg>
