<?xml version="1.0" encoding="utf-8" standalone="no"?>
<!DOCTYPE svg PUBLIC "-//W3C//DTD SVG 1.1//EN"
  "http://www.w3.org/Graphics/SVG/1.1/DTD/svg11.dtd">
<svg xmlns:xlink="http://www.w3.org/1999/xlink" width="488.471563pt" height="329.542797pt" viewBox="0 0 488.471563 329.542797" xmlns="http://www.w3.org/2000/svg" version="1.1">
 <metadata>
  <rdf:RDF xmlns:dc="http://purl.org/dc/elements/1.1/" xmlns:cc="http://creativecommons.org/ns#" xmlns:rdf="http://www.w3.org/1999/02/22-rdf-syntax-ns#">
   <cc:Work>
    <dc:type rdf:resource="http://purl.org/dc/dcmitype/StillImage"/>
    <dc:date>2026-07-01T22:46:27.662125</dc:date>
    <dc:format>image/svg+xml</dc:format>
    <dc:creator>
     <cc:Agent>
      <dc:title>Matplotlib v3.11.0, https://matplotlib.org/</dc:title>
     </cc:Agent>
    </dc:creator>
   </cc:Work>
  </rdf:RDF>
 </metadata>
 <defs>
  <style type="text/css">*{stroke-linejoin: round; stroke-linecap: butt}</style>
 </defs>
 <g id="figure_1">
  <g id="patch_1">
   <path d="M 0 329.542797 
L 488.471563 329.542797 
L 488.471563 0 
L 0 0 
z
" style="fill: #ffffff"/>
  </g>
  <g id="axes_1">
   <g id="patch_2">
    <path d="M 46.693438 289.341937 
L 470.773438 289.341937 
L 470.773438 23.229937 
L 46.693438 23.229937 
z
" style="fill: #ffffff"/>
   </g>
   <g id="matplotlib.axis_1">
    <g id="xtick_1">
     <g id="line2d_1">
      <path d="M 46.693437 289.341937 
L 46.693437 23.229937 
" clip-path="url(#p1c28129bf6)" style="fill: none; stroke: #d9d9d9; stroke-opacity: 0.7; stroke-width: 0.8; stroke-linecap: square"/>
     </g>
     <g id="line2d_2">
      <defs>
       <path id="m26dfe0e91e" d="M 0 0 
L 0 3.5 
" style="stroke: #000000; stroke-width: 0.8"/>
      </defs>
      <g>
       <use xlink:href="#m26dfe0e91e" x="46.693437" y="289.341937" style="stroke: #000000; stroke-width: 0.8"/>
      </g>
     </g>
     <g id="text_1">
      <!-- 60 -->
      <g transform="translate(39.694687 304.699359) scale(0.11 -0.11)">
       <defs>
        <path id="DejaVuSans-19" d="M 2113 2584 
Q 1688 2584 1439 2293 
Q 1191 2003 1191 1497 
Q 1191 994 1439 701 
Q 1688 409 2113 409 
Q 2538 409 2786 701 
Q 3034 994 3034 1497 
Q 3034 2003 2786 2293 
Q 2538 2584 2113 2584 
z
M 3366 4563 
L 3366 3988 
Q 3128 4100 2886 4159 
Q 2644 4219 2406 4219 
Q 1781 4219 1451 3797 
Q 1122 3375 1075 2522 
Q 1259 2794 1537 2939 
Q 1816 3084 2150 3084 
Q 2853 3084 3261 2657 
Q 3669 2231 3669 1497 
Q 3669 778 3244 343 
Q 2819 -91 2113 -91 
Q 1303 -91 875 529 
Q 447 1150 447 2328 
Q 447 3434 972 4092 
Q 1497 4750 2381 4750 
Q 2619 4750 2861 4703 
Q 3103 4656 3366 4563 
z
" transform="scale(0.015625)"/>
        <path id="DejaVuSans-13" d="M 2034 4250 
Q 1547 4250 1301 3770 
Q 1056 3291 1056 2328 
Q 1056 1369 1301 889 
Q 1547 409 2034 409 
Q 2525 409 2770 889 
Q 3016 1369 3016 2328 
Q 3016 3291 2770 3770 
Q 2525 4250 2034 4250 
z
M 2034 4750 
Q 2819 4750 3233 4129 
Q 3647 3509 3647 2328 
Q 3647 1150 3233 529 
Q 2819 -91 2034 -91 
Q 1250 -91 836 529 
Q 422 1150 422 2328 
Q 422 3509 836 4129 
Q 1250 4750 2034 4750 
z
" transform="scale(0.015625)"/>
       </defs>
       <use xlink:href="#DejaVuSans-19"/>
       <use xlink:href="#DejaVuSans-13" transform="translate(63.625 0)"/>
      </g>
     </g>
    </g>
    <g id="xtick_2">
     <g id="line2d_3">
      <path d="M 99.703437 289.341937 
L 99.703437 23.229937 
" clip-path="url(#p1c28129bf6)" style="fill: none; stroke: #d9d9d9; stroke-opacity: 0.7; stroke-width: 0.8; stroke-linecap: square"/>
     </g>
     <g id="line2d_4">
      <g>
       <use xlink:href="#m26dfe0e91e" x="99.703437" y="289.341937" style="stroke: #000000; stroke-width: 0.8"/>
      </g>
     </g>
     <g id="text_2">
      <!-- 65 -->
      <g transform="translate(92.704687 304.699359) scale(0.11 -0.11)">
       <defs>
        <path id="DejaVuSans-18" d="M 691 4666 
L 3169 4666 
L 3169 4134 
L 1269 4134 
L 1269 2991 
Q 1406 3038 1543 3061 
Q 1681 3084 1819 3084 
Q 2600 3084 3056 2656 
Q 3513 2228 3513 1497 
Q 3513 744 3044 326 
Q 2575 -91 1722 -91 
Q 1428 -91 1123 -41 
Q 819 9 494 109 
L 494 744 
Q 775 591 1075 516 
Q 1375 441 1709 441 
Q 2250 441 2565 725 
Q 2881 1009 2881 1497 
Q 2881 1984 2565 2268 
Q 2250 2553 1709 2553 
Q 1456 2553 1204 2497 
Q 953 2441 691 2322 
L 691 4666 
z
" transform="scale(0.015625)"/>
       </defs>
       <use xlink:href="#DejaVuSans-19"/>
       <use xlink:href="#DejaVuSans-18" transform="translate(63.625 0)"/>
      </g>
     </g>
    </g>
    <g id="xtick_3">
     <g id="line2d_5">
      <path d="M 152.713437 289.341937 
L 152.713437 23.229937 
" clip-path="url(#p1c28129bf6)" style="fill: none; stroke: #d9d9d9; stroke-opacity: 0.7; stroke-width: 0.8; stroke-linecap: square"/>
     </g>
     <g id="line2d_6">
      <g>
       <use xlink:href="#m26dfe0e91e" x="152.713437" y="289.341937" style="stroke: #000000; stroke-width: 0.8"/>
      </g>
     </g>
     <g id="text_3">
      <!-- 70 -->
      <g transform="translate(145.714687 304.699359) scale(0.11 -0.11)">
       <defs>
        <path id="DejaVuSans-1a" d="M 525 4666 
L 3525 4666 
L 3525 4397 
L 1831 0 
L 1172 0 
L 2766 4134 
L 525 4134 
L 525 4666 
z
" transform="scale(0.015625)"/>
       </defs>
       <use xlink:href="#DejaVuSans-1a"/>
       <use xlink:href="#DejaVuSans-13" transform="translate(63.625 0)"/>
      </g>
     </g>
    </g>
    <g id="xtick_4">
     <g id="line2d_7">
      <path d="M 205.723437 289.341937 
L 205.723437 23.229937 
" clip-path="url(#p1c28129bf6)" style="fill: none; stroke: #d9d9d9; stroke-opacity: 0.7; stroke-width: 0.8; stroke-linecap: square"/>
     </g>
     <g id="line2d_8">
      <g>
       <use xlink:href="#m26dfe0e91e" x="205.723437" y="289.341937" style="stroke: #000000; stroke-width: 0.8"/>
      </g>
     </g>
     <g id="text_4">
      <!-- 75 -->
      <g transform="translate(198.724687 304.699359) scale(0.11 -0.11)">
       <use xlink:href="#DejaVuSans-1a"/>
       <use xlink:href="#DejaVuSans-18" transform="translate(63.625 0)"/>
      </g>
     </g>
    </g>
    <g id="xtick_5">
     <g id="line2d_9">
      <path d="M 258.733438 289.341937 
L 258.733438 23.229937 
" clip-path="url(#p1c28129bf6)" style="fill: none; stroke: #d9d9d9; stroke-opacity: 0.7; stroke-width: 0.8; stroke-linecap: square"/>
     </g>
     <g id="line2d_10">
      <g>
       <use xlink:href="#m26dfe0e91e" x="258.733438" y="289.341937" style="stroke: #000000; stroke-width: 0.8"/>
      </g>
     </g>
     <g id="text_5">
      <!-- 80 -->
      <g transform="translate(251.734688 304.699359) scale(0.11 -0.11)">
       <defs>
        <path id="DejaVuSans-1b" d="M 2034 2216 
Q 1584 2216 1326 1975 
Q 1069 1734 1069 1313 
Q 1069 891 1326 650 
Q 1584 409 2034 409 
Q 2484 409 2743 651 
Q 3003 894 3003 1313 
Q 3003 1734 2745 1975 
Q 2488 2216 2034 2216 
z
M 1403 2484 
Q 997 2584 770 2862 
Q 544 3141 544 3541 
Q 544 4100 942 4425 
Q 1341 4750 2034 4750 
Q 2731 4750 3128 4425 
Q 3525 4100 3525 3541 
Q 3525 3141 3298 2862 
Q 3072 2584 2669 2484 
Q 3125 2378 3379 2068 
Q 3634 1759 3634 1313 
Q 3634 634 3220 271 
Q 2806 -91 2034 -91 
Q 1263 -91 848 271 
Q 434 634 434 1313 
Q 434 1759 690 2068 
Q 947 2378 1403 2484 
z
M 1172 3481 
Q 1172 3119 1398 2916 
Q 1625 2713 2034 2713 
Q 2441 2713 2670 2916 
Q 2900 3119 2900 3481 
Q 2900 3844 2670 4047 
Q 2441 4250 2034 4250 
Q 1625 4250 1398 4047 
Q 1172 3844 1172 3481 
z
" transform="scale(0.015625)"/>
       </defs>
       <use xlink:href="#DejaVuSans-1b"/>
       <use xlink:href="#DejaVuSans-13" transform="translate(63.625 0)"/>
      </g>
     </g>
    </g>
    <g id="xtick_6">
     <g id="line2d_11">
      <path d="M 311.743438 289.341937 
L 311.743438 23.229937 
" clip-path="url(#p1c28129bf6)" style="fill: none; stroke: #d9d9d9; stroke-opacity: 0.7; stroke-width: 0.8; stroke-linecap: square"/>
     </g>
     <g id="line2d_12">
      <g>
       <use xlink:href="#m26dfe0e91e" x="311.743438" y="289.341937" style="stroke: #000000; stroke-width: 0.8"/>
      </g>
     </g>
     <g id="text_6">
      <!-- 85 -->
      <g transform="translate(304.744688 304.699359) scale(0.11 -0.11)">
       <use xlink:href="#DejaVuSans-1b"/>
       <use xlink:href="#DejaVuSans-18" transform="translate(63.625 0)"/>
      </g>
     </g>
    </g>
    <g id="xtick_7">
     <g id="line2d_13">
      <path d="M 364.753438 289.341937 
L 364.753438 23.229937 
" clip-path="url(#p1c28129bf6)" style="fill: none; stroke: #d9d9d9; stroke-opacity: 0.7; stroke-width: 0.8; stroke-linecap: square"/>
     </g>
     <g id="line2d_14">
      <g>
       <use xlink:href="#m26dfe0e91e" x="364.753438" y="289.341937" style="stroke: #000000; stroke-width: 0.8"/>
      </g>
     </g>
     <g id="text_7">
      <!-- 90 -->
      <g transform="translate(357.754688 304.699359) scale(0.11 -0.11)">
       <defs>
        <path id="DejaVuSans-1c" d="M 703 97 
L 703 672 
Q 941 559 1184 500 
Q 1428 441 1663 441 
Q 2288 441 2617 861 
Q 2947 1281 2994 2138 
Q 2813 1869 2534 1725 
Q 2256 1581 1919 1581 
Q 1219 1581 811 2004 
Q 403 2428 403 3163 
Q 403 3881 828 4315 
Q 1253 4750 1959 4750 
Q 2769 4750 3195 4129 
Q 3622 3509 3622 2328 
Q 3622 1225 3098 567 
Q 2575 -91 1691 -91 
Q 1453 -91 1209 -44 
Q 966 3 703 97 
z
M 1959 2075 
Q 2384 2075 2632 2365 
Q 2881 2656 2881 3163 
Q 2881 3666 2632 3958 
Q 2384 4250 1959 4250 
Q 1534 4250 1286 3958 
Q 1038 3666 1038 3163 
Q 1038 2656 1286 2365 
Q 1534 2075 1959 2075 
z
" transform="scale(0.015625)"/>
       </defs>
       <use xlink:href="#DejaVuSans-1c"/>
       <use xlink:href="#DejaVuSans-13" transform="translate(63.625 0)"/>
      </g>
     </g>
    </g>
    <g id="xtick_8">
     <g id="line2d_15">
      <path d="M 417.763438 289.341937 
L 417.763438 23.229937 
" clip-path="url(#p1c28129bf6)" style="fill: none; stroke: #d9d9d9; stroke-opacity: 0.7; stroke-width: 0.8; stroke-linecap: square"/>
     </g>
     <g id="line2d_16">
      <g>
       <use xlink:href="#m26dfe0e91e" x="417.763438" y="289.341937" style="stroke: #000000; stroke-width: 0.8"/>
      </g>
     </g>
     <g id="text_8">
      <!-- 95 -->
      <g transform="translate(410.764688 304.699359) scale(0.11 -0.11)">
       <use xlink:href="#DejaVuSans-1c"/>
       <use xlink:href="#DejaVuSans-18" transform="translate(63.625 0)"/>
      </g>
     </g>
    </g>
    <g id="xtick_9">
     <g id="line2d_17">
      <path d="M 470.773438 289.341937 
L 470.773438 23.229937 
" clip-path="url(#p1c28129bf6)" style="fill: none; stroke: #d9d9d9; stroke-opacity: 0.7; stroke-width: 0.8; stroke-linecap: square"/>
     </g>
     <g id="line2d_18">
      <g>
       <use xlink:href="#m26dfe0e91e" x="470.773438" y="289.341937" style="stroke: #000000; stroke-width: 0.8"/>
      </g>
     </g>
     <g id="text_9">
      <!-- 100 -->
      <g transform="translate(460.275312 304.699359) scale(0.11 -0.11)">
       <defs>
        <path id="DejaVuSans-14" d="M 794 531 
L 1825 531 
L 1825 4091 
L 703 3866 
L 703 4441 
L 1819 4666 
L 2450 4666 
L 2450 531 
L 3481 531 
L 3481 0 
L 794 0 
L 794 531 
z
" transform="scale(0.015625)"/>
       </defs>
       <use xlink:href="#DejaVuSans-14"/>
       <use xlink:href="#DejaVuSans-13" transform="translate(63.625 0)"/>
       <use xlink:href="#DejaVuSans-13" transform="translate(127.25 0)"/>
      </g>
     </g>
    </g>
    <g id="text_10">
     <!-- Sunlit Ratio (%) -->
     <g style="fill: #222222" transform="translate(215.924531 319.700219) scale(0.11 -0.11)">
      <defs>
       <path id="DejaVuSans-36" d="M 3425 4513 
L 3425 3897 
Q 3066 4069 2747 4153 
Q 2428 4238 2131 4238 
Q 1616 4238 1336 4038 
Q 1056 3838 1056 3469 
Q 1056 3159 1242 3001 
Q 1428 2844 1947 2747 
L 2328 2669 
Q 3034 2534 3370 2195 
Q 3706 1856 3706 1288 
Q 3706 609 3251 259 
Q 2797 -91 1919 -91 
Q 1588 -91 1214 -16 
Q 841 59 441 206 
L 441 856 
Q 825 641 1194 531 
Q 1563 422 1919 422 
Q 2459 422 2753 634 
Q 3047 847 3047 1241 
Q 3047 1584 2836 1778 
Q 2625 1972 2144 2069 
L 1759 2144 
Q 1053 2284 737 2584 
Q 422 2884 422 3419 
Q 422 4038 858 4394 
Q 1294 4750 2059 4750 
Q 2388 4750 2728 4690 
Q 3069 4631 3425 4513 
z
" transform="scale(0.015625)"/>
       <path id="DejaVuSans-58" d="M 544 1381 
L 544 3500 
L 1119 3500 
L 1119 1403 
Q 1119 906 1312 657 
Q 1506 409 1894 409 
Q 2359 409 2629 706 
Q 2900 1003 2900 1516 
L 2900 3500 
L 3475 3500 
L 3475 0 
L 2900 0 
L 2900 538 
Q 2691 219 2414 64 
Q 2138 -91 1772 -91 
Q 1169 -91 856 284 
Q 544 659 544 1381 
z
M 1991 3584 
L 1991 3584 
z
" transform="scale(0.015625)"/>
       <path id="DejaVuSans-51" d="M 3513 2113 
L 3513 0 
L 2938 0 
L 2938 2094 
Q 2938 2591 2744 2837 
Q 2550 3084 2163 3084 
Q 1697 3084 1428 2787 
Q 1159 2491 1159 1978 
L 1159 0 
L 581 0 
L 581 3500 
L 1159 3500 
L 1159 2956 
Q 1366 3272 1645 3428 
Q 1925 3584 2291 3584 
Q 2894 3584 3203 3211 
Q 3513 2838 3513 2113 
z
" transform="scale(0.015625)"/>
       <path id="DejaVuSans-4f" d="M 603 4863 
L 1178 4863 
L 1178 0 
L 603 0 
L 603 4863 
z
" transform="scale(0.015625)"/>
       <path id="DejaVuSans-4c" d="M 603 3500 
L 1178 3500 
L 1178 0 
L 603 0 
L 603 3500 
z
M 603 4863 
L 1178 4863 
L 1178 4134 
L 603 4134 
L 603 4863 
z
" transform="scale(0.015625)"/>
       <path id="DejaVuSans-57" d="M 1172 4494 
L 1172 3500 
L 2356 3500 
L 2356 3053 
L 1172 3053 
L 1172 1153 
Q 1172 725 1289 603 
Q 1406 481 1766 481 
L 2356 481 
L 2356 0 
L 1766 0 
Q 1100 0 847 248 
Q 594 497 594 1153 
L 594 3053 
L 172 3053 
L 172 3500 
L 594 3500 
L 594 4494 
L 1172 4494 
z
" transform="scale(0.015625)"/>
       <path id="DejaVuSans-3" transform="scale(0.015625)"/>
       <path id="DejaVuSans-35" d="M 2841 2188 
Q 3044 2119 3236 1894 
Q 3428 1669 3622 1275 
L 4263 0 
L 3584 0 
L 2988 1197 
Q 2756 1666 2539 1819 
Q 2322 1972 1947 1972 
L 1259 1972 
L 1259 0 
L 628 0 
L 628 4666 
L 2053 4666 
Q 2853 4666 3247 4331 
Q 3641 3997 3641 3322 
Q 3641 2881 3436 2590 
Q 3231 2300 2841 2188 
z
M 1259 4147 
L 1259 2491 
L 2053 2491 
Q 2509 2491 2742 2702 
Q 2975 2913 2975 3322 
Q 2975 3731 2742 3939 
Q 2509 4147 2053 4147 
L 1259 4147 
z
" transform="scale(0.015625)"/>
       <path id="DejaVuSans-44" d="M 2194 1759 
Q 1497 1759 1228 1600 
Q 959 1441 959 1056 
Q 959 750 1161 570 
Q 1363 391 1709 391 
Q 2188 391 2477 730 
Q 2766 1069 2766 1631 
L 2766 1759 
L 2194 1759 
z
M 3341 1997 
L 3341 0 
L 2766 0 
L 2766 531 
Q 2569 213 2275 61 
Q 1981 -91 1556 -91 
Q 1019 -91 701 211 
Q 384 513 384 1019 
Q 384 1609 779 1909 
Q 1175 2209 1959 2209 
L 2766 2209 
L 2766 2266 
Q 2766 2663 2505 2880 
Q 2244 3097 1772 3097 
Q 1472 3097 1187 3025 
Q 903 2953 641 2809 
L 641 3341 
Q 956 3463 1253 3523 
Q 1550 3584 1831 3584 
Q 2591 3584 2966 3190 
Q 3341 2797 3341 1997 
z
" transform="scale(0.015625)"/>
       <path id="DejaVuSans-52" d="M 1959 3097 
Q 1497 3097 1228 2736 
Q 959 2375 959 1747 
Q 959 1119 1226 758 
Q 1494 397 1959 397 
Q 2419 397 2687 759 
Q 2956 1122 2956 1747 
Q 2956 2369 2687 2733 
Q 2419 3097 1959 3097 
z
M 1959 3584 
Q 2709 3584 3137 3096 
Q 3566 2609 3566 1747 
Q 3566 888 3137 398 
Q 2709 -91 1959 -91 
Q 1206 -91 779 398 
Q 353 888 353 1747 
Q 353 2609 779 3096 
Q 1206 3584 1959 3584 
z
" transform="scale(0.015625)"/>
       <path id="DejaVuSans-b" d="M 1984 4856 
Q 1566 4138 1362 3434 
Q 1159 2731 1159 2009 
Q 1159 1288 1364 580 
Q 1569 -128 1984 -844 
L 1484 -844 
Q 1016 -109 783 600 
Q 550 1309 550 2009 
Q 550 2706 781 3412 
Q 1013 4119 1484 4856 
L 1984 4856 
z
" transform="scale(0.015625)"/>
       <path id="DejaVuSans-8" d="M 4653 2053 
Q 4381 2053 4226 1822 
Q 4072 1591 4072 1178 
Q 4072 772 4226 539 
Q 4381 306 4653 306 
Q 4919 306 5073 539 
Q 5228 772 5228 1178 
Q 5228 1588 5073 1820 
Q 4919 2053 4653 2053 
z
M 4653 2450 
Q 5147 2450 5437 2106 
Q 5728 1763 5728 1178 
Q 5728 594 5436 251 
Q 5144 -91 4653 -91 
Q 4153 -91 3862 251 
Q 3572 594 3572 1178 
Q 3572 1766 3864 2108 
Q 4156 2450 4653 2450 
z
M 1428 4353 
Q 1159 4353 1004 4120 
Q 850 3888 850 3481 
Q 850 3069 1003 2837 
Q 1156 2606 1428 2606 
Q 1700 2606 1854 2837 
Q 2009 3069 2009 3481 
Q 2009 3884 1853 4118 
Q 1697 4353 1428 4353 
z
M 4250 4750 
L 4750 4750 
L 1831 -91 
L 1331 -91 
L 4250 4750 
z
M 1428 4750 
Q 1922 4750 2215 4408 
Q 2509 4066 2509 3481 
Q 2509 2891 2217 2550 
Q 1925 2209 1428 2209 
Q 931 2209 642 2551 
Q 353 2894 353 3481 
Q 353 4063 643 4406 
Q 934 4750 1428 4750 
z
" transform="scale(0.015625)"/>
       <path id="DejaVuSans-c" d="M 513 4856 
L 1013 4856 
Q 1481 4119 1714 3412 
Q 1947 2706 1947 2009 
Q 1947 1309 1714 600 
Q 1481 -109 1013 -844 
L 513 -844 
Q 928 -128 1133 580 
Q 1338 1288 1338 2009 
Q 1338 2731 1133 3434 
Q 928 4138 513 4856 
z
" transform="scale(0.015625)"/>
      </defs>
      <use xlink:href="#DejaVuSans-36"/>
      <use xlink:href="#DejaVuSans-58" transform="translate(63.484375 0)"/>
      <use xlink:href="#DejaVuSans-51" transform="translate(126.859375 0)"/>
      <use xlink:href="#DejaVuSans-4f" transform="translate(190.234375 0)"/>
      <use xlink:href="#DejaVuSans-4c" transform="translate(218.015625 0)"/>
      <use xlink:href="#DejaVuSans-57" transform="translate(245.796875 0)"/>
      <use xlink:href="#DejaVuSans-3" transform="translate(285 0)"/>
      <use xlink:href="#DejaVuSans-35" transform="translate(316.78125 0)"/>
      <use xlink:href="#DejaVuSans-44" transform="translate(384.0625 0)"/>
      <use xlink:href="#DejaVuSans-57" transform="translate(445.34375 0)"/>
      <use xlink:href="#DejaVuSans-4c" transform="translate(484.546875 0)"/>
      <use xlink:href="#DejaVuSans-52" transform="translate(512.328125 0)"/>
      <use xlink:href="#DejaVuSans-3" transform="translate(573.515625 0)"/>
      <use xlink:href="#DejaVuSans-b" transform="translate(605.296875 0)"/>
      <use xlink:href="#DejaVuSans-8" transform="translate(644.3125 0)"/>
      <use xlink:href="#DejaVuSans-c" transform="translate(739.328125 0)"/>
     </g>
    </g>
   </g>
   <g id="matplotlib.axis_2">
    <g id="ytick_1">
     <g id="line2d_19">
      <path d="M 46.693438 289.341937 
L 470.773438 289.341937 
" clip-path="url(#p1c28129bf6)" style="fill: none; stroke: #d9d9d9; stroke-opacity: 0.7; stroke-width: 0.8; stroke-linecap: square"/>
     </g>
     <g id="line2d_20">
      <defs>
       <path id="m73843f7e50" d="M 0 0 
L -3.5 0 
" style="stroke: #000000; stroke-width: 0.8"/>
      </defs>
      <g>
       <use xlink:href="#m73843f7e50" x="46.693438" y="289.341937" style="stroke: #000000; stroke-width: 0.8"/>
      </g>
     </g>
     <g id="text_11">
      <!-- 0.0 -->
      <g transform="translate(22.2 293.520648) scale(0.11 -0.11)">
       <defs>
        <path id="DejaVuSans-11" d="M 684 794 
L 1344 794 
L 1344 0 
L 684 0 
L 684 794 
z
" transform="scale(0.015625)"/>
       </defs>
       <use xlink:href="#DejaVuSans-13"/>
       <use xlink:href="#DejaVuSans-11" transform="translate(63.625 0)"/>
       <use xlink:href="#DejaVuSans-13" transform="translate(95.40625 0)"/>
      </g>
     </g>
    </g>
    <g id="ytick_2">
     <g id="line2d_21">
      <path d="M 46.693438 237.163114 
L 470.773438 237.163114 
" clip-path="url(#p1c28129bf6)" style="fill: none; stroke: #d9d9d9; stroke-opacity: 0.7; stroke-width: 0.8; stroke-linecap: square"/>
     </g>
     <g id="line2d_22">
      <g>
       <use xlink:href="#m73843f7e50" x="46.693438" y="237.163114" style="stroke: #000000; stroke-width: 0.8"/>
      </g>
     </g>
     <g id="text_12">
      <!-- 0.2 -->
      <g transform="translate(22.2 241.341825) scale(0.11 -0.11)">
       <defs>
        <path id="DejaVuSans-15" d="M 1228 531 
L 3431 531 
L 3431 0 
L 469 0 
L 469 531 
Q 828 903 1448 1529 
Q 2069 2156 2228 2338 
Q 2531 2678 2651 2914 
Q 2772 3150 2772 3378 
Q 2772 3750 2511 3984 
Q 2250 4219 1831 4219 
Q 1534 4219 1204 4116 
Q 875 4013 500 3803 
L 500 4441 
Q 881 4594 1212 4672 
Q 1544 4750 1819 4750 
Q 2544 4750 2975 4387 
Q 3406 4025 3406 3419 
Q 3406 3131 3298 2873 
Q 3191 2616 2906 2266 
Q 2828 2175 2409 1742 
Q 1991 1309 1228 531 
z
" transform="scale(0.015625)"/>
       </defs>
       <use xlink:href="#DejaVuSans-13"/>
       <use xlink:href="#DejaVuSans-11" transform="translate(63.625 0)"/>
       <use xlink:href="#DejaVuSans-15" transform="translate(95.40625 0)"/>
      </g>
     </g>
    </g>
    <g id="ytick_3">
     <g id="line2d_23">
      <path d="M 46.693438 184.98429 
L 470.773438 184.98429 
" clip-path="url(#p1c28129bf6)" style="fill: none; stroke: #d9d9d9; stroke-opacity: 0.7; stroke-width: 0.8; stroke-linecap: square"/>
     </g>
     <g id="line2d_24">
      <g>
       <use xlink:href="#m73843f7e50" x="46.693438" y="184.98429" style="stroke: #000000; stroke-width: 0.8"/>
      </g>
     </g>
     <g id="text_13">
      <!-- 0.4 -->
      <g transform="translate(22.2 189.163001) scale(0.11 -0.11)">
       <defs>
        <path id="DejaVuSans-17" d="M 2419 4116 
L 825 1625 
L 2419 1625 
L 2419 4116 
z
M 2253 4666 
L 3047 4666 
L 3047 1625 
L 3713 1625 
L 3713 1100 
L 3047 1100 
L 3047 0 
L 2419 0 
L 2419 1100 
L 313 1100 
L 313 1709 
L 2253 4666 
z
" transform="scale(0.015625)"/>
       </defs>
       <use xlink:href="#DejaVuSans-13"/>
       <use xlink:href="#DejaVuSans-11" transform="translate(63.625 0)"/>
       <use xlink:href="#DejaVuSans-17" transform="translate(95.40625 0)"/>
      </g>
     </g>
    </g>
    <g id="ytick_4">
     <g id="line2d_25">
      <path d="M 46.693438 132.805467 
L 470.773438 132.805467 
" clip-path="url(#p1c28129bf6)" style="fill: none; stroke: #d9d9d9; stroke-opacity: 0.7; stroke-width: 0.8; stroke-linecap: square"/>
     </g>
     <g id="line2d_26">
      <g>
       <use xlink:href="#m73843f7e50" x="46.693438" y="132.805467" style="stroke: #000000; stroke-width: 0.8"/>
      </g>
     </g>
     <g id="text_14">
      <!-- 0.6 -->
      <g transform="translate(22.2 136.984178) scale(0.11 -0.11)">
       <use xlink:href="#DejaVuSans-13"/>
       <use xlink:href="#DejaVuSans-11" transform="translate(63.625 0)"/>
       <use xlink:href="#DejaVuSans-19" transform="translate(95.40625 0)"/>
      </g>
     </g>
    </g>
    <g id="ytick_5">
     <g id="line2d_27">
      <path d="M 46.693438 80.626643 
L 470.773438 80.626643 
" clip-path="url(#p1c28129bf6)" style="fill: none; stroke: #d9d9d9; stroke-opacity: 0.7; stroke-width: 0.8; stroke-linecap: square"/>
     </g>
     <g id="line2d_28">
      <g>
       <use xlink:href="#m73843f7e50" x="46.693438" y="80.626643" style="stroke: #000000; stroke-width: 0.8"/>
      </g>
     </g>
     <g id="text_15">
      <!-- 0.8 -->
      <g transform="translate(22.2 84.805354) scale(0.11 -0.11)">
       <use xlink:href="#DejaVuSans-13"/>
       <use xlink:href="#DejaVuSans-11" transform="translate(63.625 0)"/>
       <use xlink:href="#DejaVuSans-1b" transform="translate(95.40625 0)"/>
      </g>
     </g>
    </g>
    <g id="ytick_6">
     <g id="line2d_29">
      <path d="M 46.693438 28.44782 
L 470.773438 28.44782 
" clip-path="url(#p1c28129bf6)" style="fill: none; stroke: #d9d9d9; stroke-opacity: 0.7; stroke-width: 0.8; stroke-linecap: square"/>
     </g>
     <g id="line2d_30">
      <g>
       <use xlink:href="#m73843f7e50" x="46.693438" y="28.44782" style="stroke: #000000; stroke-width: 0.8"/>
      </g>
     </g>
     <g id="text_16">
      <!-- 1.0 -->
      <g transform="translate(22.2 32.626531) scale(0.11 -0.11)">
       <use xlink:href="#DejaVuSans-14"/>
       <use xlink:href="#DejaVuSans-11" transform="translate(63.625 0)"/>
       <use xlink:href="#DejaVuSans-13" transform="translate(95.40625 0)"/>
      </g>
     </g>
    </g>
    <g id="text_17">
     <!-- CDF -->
     <g style="fill: #222222" transform="translate(15.557422 167.524844) rotate(-90) scale(0.11 -0.11)">
      <defs>
       <path id="DejaVuSans-26" d="M 4122 4306 
L 4122 3641 
Q 3803 3938 3442 4084 
Q 3081 4231 2675 4231 
Q 1875 4231 1450 3742 
Q 1025 3253 1025 2328 
Q 1025 1406 1450 917 
Q 1875 428 2675 428 
Q 3081 428 3442 575 
Q 3803 722 4122 1019 
L 4122 359 
Q 3791 134 3420 21 
Q 3050 -91 2638 -91 
Q 1578 -91 968 557 
Q 359 1206 359 2328 
Q 359 3453 968 4101 
Q 1578 4750 2638 4750 
Q 3056 4750 3426 4639 
Q 3797 4528 4122 4306 
z
" transform="scale(0.015625)"/>
       <path id="DejaVuSans-27" d="M 1259 4147 
L 1259 519 
L 2022 519 
Q 2988 519 3436 956 
Q 3884 1394 3884 2338 
Q 3884 3275 3436 3711 
Q 2988 4147 2022 4147 
L 1259 4147 
z
M 628 4666 
L 1925 4666 
Q 3281 4666 3915 4102 
Q 4550 3538 4550 2338 
Q 4550 1131 3912 565 
Q 3275 0 1925 0 
L 628 0 
L 628 4666 
z
" transform="scale(0.015625)"/>
       <path id="DejaVuSans-29" d="M 628 4666 
L 3309 4666 
L 3309 4134 
L 1259 4134 
L 1259 2759 
L 3109 2759 
L 3109 2228 
L 1259 2228 
L 1259 0 
L 628 0 
L 628 4666 
z
" transform="scale(0.015625)"/>
      </defs>
      <use xlink:href="#DejaVuSans-26"/>
      <use xlink:href="#DejaVuSans-27" transform="translate(69.828125 0)"/>
      <use xlink:href="#DejaVuSans-29" transform="translate(146.828125 0)"/>
     </g>
    </g>
   </g>
   <g id="line2d_31">
    <path d="M 51.402168 289.009164 
L 52.873646 289.009164 
L 52.873646 279.691517 
L 53.609385 279.691517 
L 53.609385 279.358744 
L 54.345124 279.358744 
L 54.345124 278.027652 
L 55.080863 278.027652 
L 55.080863 276.031013 
L 55.816602 276.031013 
L 55.816602 275.365467 
L 56.552341 275.365467 
L 56.552341 273.368828 
L 57.28808 273.368828 
L 57.28808 271.37219 
L 58.023819 271.37219 
L 58.023819 269.375551 
L 58.759558 269.375551 
L 58.759558 267.711685 
L 59.495297 267.711685 
L 59.495297 267.046139 
L 60.231036 267.046139 
L 60.231036 265.382274 
L 60.966775 265.382274 
L 60.966775 264.716727 
L 61.702515 264.716727 
L 61.702515 263.718408 
L 62.438254 263.718408 
L 62.438254 262.054543 
L 63.173993 262.054543 
L 63.173993 260.72345 
L 63.909732 260.72345 
L 63.909732 259.392358 
L 64.645471 259.392358 
L 64.645471 255.39908 
L 65.38121 255.39908 
L 65.38121 253.402442 
L 66.116949 253.402442 
L 66.116949 252.404122 
L 66.852688 252.404122 
L 66.852688 251.405803 
L 67.588427 251.405803 
L 67.588427 248.743618 
L 68.324166 248.743618 
L 68.324166 247.745299 
L 69.059905 247.745299 
L 69.059905 247.079753 
L 69.795644 247.079753 
L 69.795644 245.74866 
L 70.531383 245.74866 
L 70.531383 243.086475 
L 71.267122 243.086475 
L 71.267122 242.088156 
L 72.002862 242.088156 
L 72.002862 240.757064 
L 72.738601 240.757064 
L 72.738601 237.762106 
L 73.47434 237.762106 
L 73.47434 236.431013 
L 74.210079 236.431013 
L 74.210079 235.432694 
L 74.945818 235.432694 
L 74.945818 233.436055 
L 75.681557 233.436055 
L 75.681557 231.106643 
L 76.417296 231.106643 
L 76.417296 228.444459 
L 77.153035 228.444459 
L 77.153035 226.780593 
L 77.888774 226.780593 
L 77.888774 224.451181 
L 78.624513 224.451181 
L 78.624513 222.454543 
L 79.360252 222.454543 
L 79.360252 220.790677 
L 80.095991 220.790677 
L 80.095991 218.794038 
L 80.83173 218.794038 
L 80.83173 215.466307 
L 81.567469 215.466307 
L 81.567469 214.800761 
L 82.303208 214.800761 
L 82.303208 212.138576 
L 83.038948 212.138576 
L 83.038948 209.476391 
L 83.774687 209.476391 
L 83.774687 208.478072 
L 84.510426 208.478072 
L 84.510426 206.481433 
L 85.246165 206.481433 
L 85.246165 204.817568 
L 85.981904 204.817568 
L 85.981904 201.82261 
L 86.717643 201.82261 
L 86.717643 200.82429 
L 87.453382 200.82429 
L 87.453382 197.829332 
L 88.189121 197.829332 
L 88.189121 194.834374 
L 88.92486 194.834374 
L 88.92486 193.503282 
L 89.660599 193.503282 
L 89.660599 191.839416 
L 90.396338 191.839416 
L 90.396338 188.844459 
L 91.132077 188.844459 
L 91.132077 187.513366 
L 91.867816 187.513366 
L 91.867816 185.849501 
L 92.603555 185.849501 
L 92.603555 183.187316 
L 93.339295 183.187316 
L 93.339295 181.190677 
L 94.075034 181.190677 
L 94.075034 179.859585 
L 94.810773 179.859585 
L 94.810773 178.528492 
L 95.546512 178.528492 
L 95.546512 175.533534 
L 96.282251 175.533534 
L 96.282251 174.535215 
L 97.01799 174.535215 
L 97.01799 173.204122 
L 97.753729 173.204122 
L 97.753729 169.876391 
L 98.489468 169.876391 
L 98.489468 167.54698 
L 99.225207 167.54698 
L 99.225207 167.214206 
L 99.960946 167.214206 
L 99.960946 164.552022 
L 100.696685 164.552022 
L 100.696685 161.557064 
L 101.432424 161.557064 
L 101.432424 160.225971 
L 102.168163 160.225971 
L 102.168163 158.894879 
L 102.903902 158.894879 
L 102.903902 156.565467 
L 103.639642 156.565467 
L 103.639642 154.568828 
L 104.375381 154.568828 
L 104.375381 153.570509 
L 105.11112 153.570509 
L 105.11112 140.592358 
L 105.846859 140.592358 
L 105.846859 137.264627 
L 106.582598 137.264627 
L 106.582598 136.931853 
L 107.318337 136.931853 
L 107.318337 135.933534 
L 108.054076 135.933534 
L 108.054076 131.607484 
L 108.789815 131.607484 
L 108.789815 131.274711 
L 109.525554 131.274711 
L 109.525554 130.276391 
L 110.261293 130.276391 
L 110.261293 119.960425 
L 110.997032 119.960425 
L 110.997032 119.294879 
L 111.732771 119.294879 
L 111.732771 117.631013 
L 112.46851 117.631013 
L 112.46851 116.965467 
L 113.204249 116.965467 
L 113.204249 115.967148 
L 113.939989 115.967148 
L 113.939989 115.301601 
L 114.675728 115.301601 
L 114.675728 114.303282 
L 115.411467 114.303282 
L 115.411467 111.641097 
L 116.147206 111.641097 
L 116.147206 110.975551 
L 116.882945 110.975551 
L 116.882945 110.642778 
L 117.618684 110.642778 
L 117.618684 110.310005 
L 118.354423 110.310005 
L 118.354423 109.644459 
L 119.090162 109.644459 
L 119.090162 108.978912 
L 119.825901 108.978912 
L 119.825901 108.313366 
L 120.56164 108.313366 
L 120.56164 105.318408 
L 121.297379 105.318408 
L 121.297379 104.652862 
L 122.033118 104.652862 
L 122.033118 104.320089 
L 122.768857 104.320089 
L 122.768857 103.987316 
L 123.504596 103.987316 
L 123.504596 101.325131 
L 124.240335 101.325131 
L 124.240335 100.992358 
L 124.976075 100.992358 
L 124.976075 100.659585 
L 125.711814 100.659585 
L 125.711814 99.328492 
L 126.447553 99.328492 
L 126.447553 98.662946 
L 128.65477 98.662946 
L 128.65477 97.9974 
L 129.390509 97.9974 
L 129.390509 96.000761 
L 130.126248 96.000761 
L 130.126248 95.002442 
L 130.861987 95.002442 
L 130.861987 94.336895 
L 131.597726 94.336895 
L 131.597726 93.671349 
L 132.333465 93.671349 
L 132.333465 93.338576 
L 133.069204 93.338576 
L 133.069204 92.340257 
L 134.540682 92.340257 
L 134.540682 92.007484 
L 135.276422 92.007484 
L 135.276422 91.009164 
L 136.012161 91.009164 
L 136.012161 87.681433 
L 136.7479 87.681433 
L 136.7479 87.34866 
L 137.483639 87.34866 
L 137.483639 86.350341 
L 138.219378 86.350341 
L 138.219378 86.017568 
L 139.690856 86.017568 
L 139.690856 85.684795 
L 140.426595 85.684795 
L 140.426595 85.019248 
L 141.162334 85.019248 
L 141.162334 84.353702 
L 142.633812 84.353702 
L 142.633812 84.020929 
L 143.369551 84.020929 
L 143.369551 83.355383 
L 144.10529 83.355383 
L 144.10529 83.02261 
L 145.576769 83.02261 
L 145.576769 82.689837 
L 146.312508 82.689837 
L 146.312508 82.02429 
L 147.048247 82.02429 
L 147.048247 81.358744 
L 147.783986 81.358744 
L 147.783986 80.360425 
L 148.519725 80.360425 
L 148.519725 79.362106 
L 149.991203 79.362106 
L 149.991203 79.029332 
L 150.726942 79.029332 
L 150.726942 78.031013 
L 151.462681 78.031013 
L 151.462681 75.036055 
L 152.19842 75.036055 
L 152.19842 74.037736 
L 152.934159 74.037736 
L 152.934159 71.708324 
L 154.405637 71.708324 
L 154.405637 71.375551 
L 155.141376 71.375551 
L 155.141376 70.044459 
L 155.877116 70.044459 
L 155.877116 69.378912 
L 156.612855 69.378912 
L 156.612855 69.046139 
L 157.348594 69.046139 
L 157.348594 68.380593 
L 158.084333 68.380593 
L 158.084333 68.04782 
L 158.820072 68.04782 
L 158.820072 67.382274 
L 159.555811 67.382274 
L 159.555811 66.716727 
L 160.29155 66.716727 
L 160.29155 66.383954 
L 161.027289 66.383954 
L 161.027289 65.718408 
L 161.763028 65.718408 
L 161.763028 65.385635 
L 162.498767 65.385635 
L 162.498767 64.720089 
L 163.234506 64.720089 
L 163.234506 64.387316 
L 164.705984 64.387316 
L 164.705984 63.721769 
L 165.441723 63.721769 
L 165.441723 62.72345 
L 166.177462 62.72345 
L 166.177462 62.057904 
L 166.913202 62.057904 
L 166.913202 61.392358 
L 167.648941 61.392358 
L 167.648941 60.726811 
L 168.38468 60.726811 
L 168.38468 60.394038 
L 169.120419 60.394038 
L 169.120419 60.061265 
L 169.856158 60.061265 
L 169.856158 59.395719 
L 170.591897 59.395719 
L 170.591897 55.735215 
L 171.327636 55.735215 
L 171.327636 55.402442 
L 172.063375 55.402442 
L 172.063375 52.740257 
L 173.534853 52.740257 
L 173.534853 51.741937 
L 174.270592 51.741937 
L 174.270592 51.409164 
L 175.006331 51.409164 
L 175.006331 51.076391 
L 175.74207 51.076391 
L 175.74207 50.410845 
L 176.477809 50.410845 
L 176.477809 50.078072 
L 177.213549 50.078072 
L 177.213549 49.079753 
L 178.685027 49.079753 
L 178.685027 48.74698 
L 179.420766 48.74698 
L 179.420766 48.414206 
L 180.892244 48.414206 
L 180.892244 48.081433 
L 181.627983 48.081433 
L 181.627983 47.415887 
L 182.363722 47.415887 
L 182.363722 47.083114 
L 183.099461 47.083114 
L 183.099461 46.750341 
L 183.8352 46.750341 
L 183.8352 45.752022 
L 184.570939 45.752022 
L 184.570939 45.419248 
L 186.778156 45.419248 
L 186.778156 45.086475 
L 187.513896 45.086475 
L 187.513896 43.089837 
L 188.249635 43.089837 
L 188.249635 42.757064 
L 188.985374 42.757064 
L 188.985374 42.42429 
L 190.456852 42.42429 
L 190.456852 42.091517 
L 191.192591 42.091517 
L 191.192591 41.425971 
L 191.92833 41.425971 
L 191.92833 41.093198 
L 192.664069 41.093198 
L 192.664069 38.09824 
L 193.399808 38.09824 
L 193.399808 37.765467 
L 194.135547 37.765467 
L 194.135547 37.432694 
L 194.871286 37.432694 
L 194.871286 37.099921 
L 196.342764 37.099921 
L 196.342764 36.434374 
L 197.078503 36.434374 
L 197.078503 36.101601 
L 199.285721 36.101601 
L 199.285721 35.436055 
L 201.492938 35.436055 
L 201.492938 35.103282 
L 202.228677 35.103282 
L 202.228677 34.770509 
L 202.964416 34.770509 
L 202.964416 33.106643 
L 203.700155 33.106643 
L 203.700155 32.77387 
L 204.435894 32.77387 
L 204.435894 32.108324 
L 205.907372 32.108324 
L 205.907372 31.775551 
L 206.643111 31.775551 
L 206.643111 31.442778 
L 207.37885 31.442778 
L 207.37885 30.444459 
L 208.114589 30.444459 
L 208.114589 28.44782 
L 208.114589 28.44782 
" clip-path="url(#p1c28129bf6)" style="fill: none; stroke: #1f77b4; stroke-width: 2.8; stroke-linecap: square"/>
   </g>
   <g id="patch_3">
    <path d="M 46.693438 289.341937 
L 46.693438 23.229937 
" style="fill: none; stroke: #333333; stroke-width: 0.8; stroke-linejoin: miter; stroke-linecap: square"/>
   </g>
   <g id="patch_4">
    <path d="M 470.773438 289.341937 
L 470.773438 23.229937 
" style="fill: none; stroke: #333333; stroke-width: 0.8; stroke-linejoin: miter; stroke-linecap: square"/>
   </g>
   <g id="patch_5">
    <path d="M 46.693437 289.341937 
L 470.773438 289.341937 
" style="fill: none; stroke: #333333; stroke-width: 0.8; stroke-linejoin: miter; stroke-linecap: square"/>
   </g>
   <g id="patch_6">
    <path d="M 46.693437 23.229937 
L 470.773438 23.229937 
" style="fill: none; stroke: #333333; stroke-width: 0.8; stroke-linejoin: miter; stroke-linecap: square"/>
   </g>
   <g id="text_18">
    <g id="patch_7">
     <path d="M 55.175038 84.383792 
L 127.67035 84.383792 
Q 130.17035 84.383792 130.17035 81.883792 
L 130.17035 33.874417 
Q 130.17035 31.374417 127.67035 31.374417 
L 55.175038 31.374417 
Q 52.675038 31.374417 52.675038 33.874417 
L 52.675038 81.883792 
Q 52.675038 84.383792 55.175038 84.383792 
z
" style="fill: #ffffff; stroke: #cccccc; stroke-linejoin: miter"/>
    </g>
    <!-- satellites=784 -->
    <g transform="translate(55.175038 42.473832) scale(0.1 -0.1)">
     <defs>
      <path id="DejaVuSans-56" d="M 2834 3397 
L 2834 2853 
Q 2591 2978 2328 3040 
Q 2066 3103 1784 3103 
Q 1356 3103 1142 2972 
Q 928 2841 928 2578 
Q 928 2378 1081 2264 
Q 1234 2150 1697 2047 
L 1894 2003 
Q 2506 1872 2764 1633 
Q 3022 1394 3022 966 
Q 3022 478 2636 193 
Q 2250 -91 1575 -91 
Q 1294 -91 989 -36 
Q 684 19 347 128 
L 347 722 
Q 666 556 975 473 
Q 1284 391 1588 391 
Q 1994 391 2212 530 
Q 2431 669 2431 922 
Q 2431 1156 2273 1281 
Q 2116 1406 1581 1522 
L 1381 1569 
Q 847 1681 609 1914 
Q 372 2147 372 2553 
Q 372 3047 722 3315 
Q 1072 3584 1716 3584 
Q 2034 3584 2315 3537 
Q 2597 3491 2834 3397 
z
" transform="scale(0.015625)"/>
      <path id="DejaVuSans-48" d="M 3597 1894 
L 3597 1613 
L 953 1613 
Q 991 1019 1311 708 
Q 1631 397 2203 397 
Q 2534 397 2845 478 
Q 3156 559 3463 722 
L 3463 178 
Q 3153 47 2828 -22 
Q 2503 -91 2169 -91 
Q 1331 -91 842 396 
Q 353 884 353 1716 
Q 353 2575 817 3079 
Q 1281 3584 2069 3584 
Q 2775 3584 3186 3129 
Q 3597 2675 3597 1894 
z
M 3022 2063 
Q 3016 2534 2758 2815 
Q 2500 3097 2075 3097 
Q 1594 3097 1305 2825 
Q 1016 2553 972 2059 
L 3022 2063 
z
" transform="scale(0.015625)"/>
      <path id="DejaVuSans-20" d="M 678 2906 
L 4684 2906 
L 4684 2381 
L 678 2381 
L 678 2906 
z
M 678 1631 
L 4684 1631 
L 4684 1100 
L 678 1100 
L 678 1631 
z
" transform="scale(0.015625)"/>
     </defs>
     <use xlink:href="#DejaVuSans-56"/>
     <use xlink:href="#DejaVuSans-44" transform="translate(52.09375 0)"/>
     <use xlink:href="#DejaVuSans-57" transform="translate(113.375 0)"/>
     <use xlink:href="#DejaVuSans-48" transform="translate(152.578125 0)"/>
     <use xlink:href="#DejaVuSans-4f" transform="translate(214.109375 0)"/>
     <use xlink:href="#DejaVuSans-4f" transform="translate(241.890625 0)"/>
     <use xlink:href="#DejaVuSans-4c" transform="translate(269.671875 0)"/>
     <use xlink:href="#DejaVuSans-57" transform="translate(297.453125 0)"/>
     <use xlink:href="#DejaVuSans-48" transform="translate(336.65625 0)"/>
     <use xlink:href="#DejaVuSans-56" transform="translate(398.1875 0)"/>
     <use xlink:href="#DejaVuSans-20" transform="translate(450.28125 0)"/>
     <use xlink:href="#DejaVuSans-1a" transform="translate(534.078125 0)"/>
     <use xlink:href="#DejaVuSans-1b" transform="translate(597.703125 0)"/>
     <use xlink:href="#DejaVuSans-17" transform="translate(661.328125 0)"/>
    </g>
    <!-- min=60.4% -->
    <g transform="translate(55.175038 54.476566) scale(0.1 -0.1)">
     <defs>
      <path id="DejaVuSans-50" d="M 3328 2828 
Q 3544 3216 3844 3400 
Q 4144 3584 4550 3584 
Q 5097 3584 5394 3201 
Q 5691 2819 5691 2113 
L 5691 0 
L 5113 0 
L 5113 2094 
Q 5113 2597 4934 2840 
Q 4756 3084 4391 3084 
Q 3944 3084 3684 2787 
Q 3425 2491 3425 1978 
L 3425 0 
L 2847 0 
L 2847 2094 
Q 2847 2600 2669 2842 
Q 2491 3084 2119 3084 
Q 1678 3084 1418 2786 
Q 1159 2488 1159 1978 
L 1159 0 
L 581 0 
L 581 3500 
L 1159 3500 
L 1159 2956 
Q 1356 3278 1631 3431 
Q 1906 3584 2284 3584 
Q 2666 3584 2933 3390 
Q 3200 3197 3328 2828 
z
" transform="scale(0.015625)"/>
     </defs>
     <use xlink:href="#DejaVuSans-50"/>
     <use xlink:href="#DejaVuSans-4c" transform="translate(97.40625 0)"/>
     <use xlink:href="#DejaVuSans-51" transform="translate(125.1875 0)"/>
     <use xlink:href="#DejaVuSans-20" transform="translate(188.5625 0)"/>
     <use xlink:href="#DejaVuSans-19" transform="translate(272.359375 0)"/>
     <use xlink:href="#DejaVuSans-13" transform="translate(335.984375 0)"/>
     <use xlink:href="#DejaVuSans-11" transform="translate(399.609375 0)"/>
     <use xlink:href="#DejaVuSans-17" transform="translate(431.390625 0)"/>
     <use xlink:href="#DejaVuSans-8" transform="translate(495.015625 0)"/>
    </g>
    <!-- mean=65.9% -->
    <g transform="translate(55.175038 66.478519) scale(0.1 -0.1)">
     <use xlink:href="#DejaVuSans-50"/>
     <use xlink:href="#DejaVuSans-48" transform="translate(97.40625 0)"/>
     <use xlink:href="#DejaVuSans-44" transform="translate(158.9375 0)"/>
     <use xlink:href="#DejaVuSans-51" transform="translate(220.21875 0)"/>
     <use xlink:href="#DejaVuSans-20" transform="translate(283.59375 0)"/>
     <use xlink:href="#DejaVuSans-19" transform="translate(367.390625 0)"/>
     <use xlink:href="#DejaVuSans-18" transform="translate(431.015625 0)"/>
     <use xlink:href="#DejaVuSans-11" transform="translate(494.640625 0)"/>
     <use xlink:href="#DejaVuSans-1c" transform="translate(526.421875 0)"/>
     <use xlink:href="#DejaVuSans-8" transform="translate(590.046875 0)"/>
    </g>
    <!-- max=75.2% -->
    <g transform="translate(55.175038 78.480472) scale(0.1 -0.1)">
     <defs>
      <path id="DejaVuSans-5b" d="M 3513 3500 
L 2247 1797 
L 3578 0 
L 2900 0 
L 1881 1375 
L 863 0 
L 184 0 
L 1544 1831 
L 300 3500 
L 978 3500 
L 1906 2253 
L 2834 3500 
L 3513 3500 
z
" transform="scale(0.015625)"/>
     </defs>
     <use xlink:href="#DejaVuSans-50"/>
     <use xlink:href="#DejaVuSans-44" transform="translate(97.40625 0)"/>
     <use xlink:href="#DejaVuSans-5b" transform="translate(158.6875 0)"/>
     <use xlink:href="#DejaVuSans-20" transform="translate(217.875 0)"/>
     <use xlink:href="#DejaVuSans-1a" transform="translate(301.671875 0)"/>
     <use xlink:href="#DejaVuSans-18" transform="translate(365.296875 0)"/>
     <use xlink:href="#DejaVuSans-11" transform="translate(428.921875 0)"/>
     <use xlink:href="#DejaVuSans-15" transform="translate(460.703125 0)"/>
     <use xlink:href="#DejaVuSans-8" transform="translate(524.328125 0)"/>
    </g>
   </g>
   <g id="text_19">
    <!-- CDF of per-satellite sunlit ratio -->
    <g transform="translate(143.014812 17.229937) scale(0.132 -0.132)">
     <defs>
      <path id="DejaVuSans-Bold-26" d="M 4288 256 
Q 3956 84 3597 -3 
Q 3238 -91 2847 -91 
Q 1681 -91 1000 561 
Q 319 1213 319 2328 
Q 319 3447 1000 4098 
Q 1681 4750 2847 4750 
Q 3238 4750 3597 4662 
Q 3956 4575 4288 4403 
L 4288 3438 
Q 3953 3666 3628 3772 
Q 3303 3878 2944 3878 
Q 2300 3878 1931 3465 
Q 1563 3053 1563 2328 
Q 1563 1606 1931 1193 
Q 2300 781 2944 781 
Q 3303 781 3628 887 
Q 3953 994 4288 1222 
L 4288 256 
z
" transform="scale(0.015625)"/>
      <path id="DejaVuSans-Bold-27" d="M 1791 3756 
L 1791 909 
L 2222 909 
Q 2959 909 3348 1275 
Q 3738 1641 3738 2338 
Q 3738 3031 3350 3393 
Q 2963 3756 2222 3756 
L 1791 3756 
z
M 588 4666 
L 1856 4666 
Q 2919 4666 3439 4514 
Q 3959 4363 4331 4000 
Q 4659 3684 4818 3271 
Q 4978 2859 4978 2338 
Q 4978 1809 4818 1395 
Q 4659 981 4331 666 
Q 3956 303 3431 151 
Q 2906 0 1856 0 
L 588 0 
L 588 4666 
z
" transform="scale(0.015625)"/>
      <path id="DejaVuSans-Bold-29" d="M 588 4666 
L 3834 4666 
L 3834 3756 
L 1791 3756 
L 1791 2888 
L 3713 2888 
L 3713 1978 
L 1791 1978 
L 1791 0 
L 588 0 
L 588 4666 
z
" transform="scale(0.015625)"/>
      <path id="DejaVuSans-Bold-3" transform="scale(0.015625)"/>
      <path id="DejaVuSans-Bold-52" d="M 2203 2784 
Q 1831 2784 1636 2517 
Q 1441 2250 1441 1747 
Q 1441 1244 1636 976 
Q 1831 709 2203 709 
Q 2569 709 2762 976 
Q 2956 1244 2956 1747 
Q 2956 2250 2762 2517 
Q 2569 2784 2203 2784 
z
M 2203 3584 
Q 3106 3584 3614 3096 
Q 4122 2609 4122 1747 
Q 4122 884 3614 396 
Q 3106 -91 2203 -91 
Q 1297 -91 786 396 
Q 275 884 275 1747 
Q 275 2609 786 3096 
Q 1297 3584 2203 3584 
z
" transform="scale(0.015625)"/>
      <path id="DejaVuSans-Bold-49" d="M 2841 4863 
L 2841 4128 
L 2222 4128 
Q 1984 4128 1890 4042 
Q 1797 3956 1797 3744 
L 1797 3500 
L 2753 3500 
L 2753 2700 
L 1797 2700 
L 1797 0 
L 678 0 
L 678 2700 
L 122 2700 
L 122 3500 
L 678 3500 
L 678 3744 
Q 678 4316 997 4589 
Q 1316 4863 1984 4863 
L 2841 4863 
z
" transform="scale(0.015625)"/>
      <path id="DejaVuSans-Bold-53" d="M 1656 506 
L 1656 -1331 
L 538 -1331 
L 538 3500 
L 1656 3500 
L 1656 2988 
Q 1888 3294 2169 3439 
Q 2450 3584 2816 3584 
Q 3463 3584 3878 3070 
Q 4294 2556 4294 1747 
Q 4294 938 3878 423 
Q 3463 -91 2816 -91 
Q 2450 -91 2169 54 
Q 1888 200 1656 506 
z
M 2400 2772 
Q 2041 2772 1848 2508 
Q 1656 2244 1656 1747 
Q 1656 1250 1848 986 
Q 2041 722 2400 722 
Q 2759 722 2948 984 
Q 3138 1247 3138 1747 
Q 3138 2247 2948 2509 
Q 2759 2772 2400 2772 
z
" transform="scale(0.015625)"/>
      <path id="DejaVuSans-Bold-48" d="M 4031 1759 
L 4031 1441 
L 1416 1441 
Q 1456 1047 1700 850 
Q 1944 653 2381 653 
Q 2734 653 3104 758 
Q 3475 863 3866 1075 
L 3866 213 
Q 3469 63 3072 -14 
Q 2675 -91 2278 -91 
Q 1328 -91 801 392 
Q 275 875 275 1747 
Q 275 2603 792 3093 
Q 1309 3584 2216 3584 
Q 3041 3584 3536 3087 
Q 4031 2591 4031 1759 
z
M 2881 2131 
Q 2881 2450 2695 2645 
Q 2509 2841 2209 2841 
Q 1884 2841 1681 2658 
Q 1478 2475 1428 2131 
L 2881 2131 
z
" transform="scale(0.015625)"/>
      <path id="DejaVuSans-Bold-55" d="M 3138 2547 
Q 2991 2616 2845 2648 
Q 2700 2681 2553 2681 
Q 2122 2681 1889 2404 
Q 1656 2128 1656 1613 
L 1656 0 
L 538 0 
L 538 3500 
L 1656 3500 
L 1656 2925 
Q 1872 3269 2151 3426 
Q 2431 3584 2822 3584 
Q 2878 3584 2943 3579 
Q 3009 3575 3134 3559 
L 3138 2547 
z
" transform="scale(0.015625)"/>
      <path id="DejaVuSans-Bold-10" d="M 347 2297 
L 2309 2297 
L 2309 1388 
L 347 1388 
L 347 2297 
z
" transform="scale(0.015625)"/>
      <path id="DejaVuSans-Bold-56" d="M 3272 3391 
L 3272 2541 
Q 2913 2691 2578 2766 
Q 2244 2841 1947 2841 
Q 1628 2841 1473 2761 
Q 1319 2681 1319 2516 
Q 1319 2381 1436 2309 
Q 1553 2238 1856 2203 
L 2053 2175 
Q 2913 2066 3209 1816 
Q 3506 1566 3506 1031 
Q 3506 472 3093 190 
Q 2681 -91 1863 -91 
Q 1516 -91 1145 -36 
Q 775 19 384 128 
L 384 978 
Q 719 816 1070 734 
Q 1422 653 1784 653 
Q 2113 653 2278 743 
Q 2444 834 2444 1013 
Q 2444 1163 2330 1236 
Q 2216 1309 1875 1350 
L 1678 1375 
Q 931 1469 631 1722 
Q 331 1975 331 2491 
Q 331 3047 712 3315 
Q 1094 3584 1881 3584 
Q 2191 3584 2531 3537 
Q 2872 3491 3272 3391 
z
" transform="scale(0.015625)"/>
      <path id="DejaVuSans-Bold-44" d="M 2106 1575 
Q 1756 1575 1579 1456 
Q 1403 1338 1403 1106 
Q 1403 894 1545 773 
Q 1688 653 1941 653 
Q 2256 653 2472 879 
Q 2688 1106 2688 1447 
L 2688 1575 
L 2106 1575 
z
M 3816 1997 
L 3816 0 
L 2688 0 
L 2688 519 
Q 2463 200 2181 54 
Q 1900 -91 1497 -91 
Q 953 -91 614 226 
Q 275 544 275 1050 
Q 275 1666 698 1953 
Q 1122 2241 2028 2241 
L 2688 2241 
L 2688 2328 
Q 2688 2594 2478 2717 
Q 2269 2841 1825 2841 
Q 1466 2841 1156 2769 
Q 847 2697 581 2553 
L 581 3406 
Q 941 3494 1303 3539 
Q 1666 3584 2028 3584 
Q 2975 3584 3395 3211 
Q 3816 2838 3816 1997 
z
" transform="scale(0.015625)"/>
      <path id="DejaVuSans-Bold-57" d="M 1759 4494 
L 1759 3500 
L 2913 3500 
L 2913 2700 
L 1759 2700 
L 1759 1216 
Q 1759 972 1856 886 
Q 1953 800 2241 800 
L 2816 800 
L 2816 0 
L 1856 0 
Q 1194 0 917 276 
Q 641 553 641 1216 
L 641 2700 
L 84 2700 
L 84 3500 
L 641 3500 
L 641 4494 
L 1759 4494 
z
" transform="scale(0.015625)"/>
      <path id="DejaVuSans-Bold-4f" d="M 538 4863 
L 1656 4863 
L 1656 0 
L 538 0 
L 538 4863 
z
" transform="scale(0.015625)"/>
      <path id="DejaVuSans-Bold-4c" d="M 538 3500 
L 1656 3500 
L 1656 0 
L 538 0 
L 538 3500 
z
M 538 4863 
L 1656 4863 
L 1656 3950 
L 538 3950 
L 538 4863 
z
" transform="scale(0.015625)"/>
      <path id="DejaVuSans-Bold-58" d="M 500 1363 
L 500 3500 
L 1625 3500 
L 1625 3150 
Q 1625 2866 1622 2436 
Q 1619 2006 1619 1863 
Q 1619 1441 1641 1255 
Q 1663 1069 1716 984 
Q 1784 875 1895 815 
Q 2006 756 2150 756 
Q 2500 756 2700 1025 
Q 2900 1294 2900 1772 
L 2900 3500 
L 4019 3500 
L 4019 0 
L 2900 0 
L 2900 506 
Q 2647 200 2364 54 
Q 2081 -91 1741 -91 
Q 1134 -91 817 281 
Q 500 653 500 1363 
z
" transform="scale(0.015625)"/>
      <path id="DejaVuSans-Bold-51" d="M 4056 2131 
L 4056 0 
L 2931 0 
L 2931 347 
L 2931 1631 
Q 2931 2084 2911 2256 
Q 2891 2428 2841 2509 
Q 2775 2619 2662 2680 
Q 2550 2741 2406 2741 
Q 2056 2741 1856 2470 
Q 1656 2200 1656 1722 
L 1656 0 
L 538 0 
L 538 3500 
L 1656 3500 
L 1656 2988 
Q 1909 3294 2193 3439 
Q 2478 3584 2822 3584 
Q 3428 3584 3742 3212 
Q 4056 2841 4056 2131 
z
" transform="scale(0.015625)"/>
     </defs>
     <use xlink:href="#DejaVuSans-Bold-26"/>
     <use xlink:href="#DejaVuSans-Bold-27" transform="translate(73.390625 0)"/>
     <use xlink:href="#DejaVuSans-Bold-29" transform="translate(156.40625 0)"/>
     <use xlink:href="#DejaVuSans-Bold-3" transform="translate(224.71875 0)"/>
     <use xlink:href="#DejaVuSans-Bold-52" transform="translate(259.53125 0)"/>
     <use xlink:href="#DejaVuSans-Bold-49" transform="translate(328.234375 0)"/>
     <use xlink:href="#DejaVuSans-Bold-3" transform="translate(371.734375 0)"/>
     <use xlink:href="#DejaVuSans-Bold-53" transform="translate(406.546875 0)"/>
     <use xlink:href="#DejaVuSans-Bold-48" transform="translate(478.125 0)"/>
     <use xlink:href="#DejaVuSans-Bold-55" transform="translate(545.953125 0)"/>
     <use xlink:href="#DejaVuSans-Bold-10" transform="translate(595.265625 0)"/>
     <use xlink:href="#DejaVuSans-Bold-56" transform="translate(636.765625 0)"/>
     <use xlink:href="#DejaVuSans-Bold-44" transform="translate(696.28125 0)"/>
     <use xlink:href="#DejaVuSans-Bold-57" transform="translate(763.765625 0)"/>
     <use xlink:href="#DejaVuSans-Bold-48" transform="translate(811.5625 0)"/>
     <use xlink:href="#DejaVuSans-Bold-4f" transform="translate(879.390625 0)"/>
     <use xlink:href="#DejaVuSans-Bold-4f" transform="translate(913.671875 0)"/>
     <use xlink:href="#DejaVuSans-Bold-4c" transform="translate(947.953125 0)"/>
     <use xlink:href="#DejaVuSans-Bold-57" transform="translate(982.234375 0)"/>
     <use xlink:href="#DejaVuSans-Bold-48" transform="translate(1030.03125 0)"/>
     <use xlink:href="#DejaVuSans-Bold-3" transform="translate(1097.859375 0)"/>
     <use xlink:href="#DejaVuSans-Bold-56" transform="translate(1132.671875 0)"/>
     <use xlink:href="#DejaVuSans-Bold-58" transform="translate(1192.1875 0)"/>
     <use xlink:href="#DejaVuSans-Bold-51" transform="translate(1263.375 0)"/>
     <use xlink:href="#DejaVuSans-Bold-4f" transform="translate(1334.5625 0)"/>
     <use xlink:href="#DejaVuSans-Bold-4c" transform="translate(1368.84375 0)"/>
     <use xlink:href="#DejaVuSans-Bold-57" transform="translate(1403.125 0)"/>
     <use xlink:href="#DejaVuSans-Bold-3" transform="translate(1450.921875 0)"/>
     <use xlink:href="#DejaVuSans-Bold-55" transform="translate(1485.734375 0)"/>
     <use xlink:href="#DejaVuSans-Bold-44" transform="translate(1535.046875 0)"/>
     <use xlink:href="#DejaVuSans-Bold-57" transform="translate(1602.53125 0)"/>
     <use xlink:href="#DejaVuSans-Bold-4c" transform="translate(1650.328125 0)"/>
     <use xlink:href="#DejaVuSans-Bold-52" transform="translate(1684.609375 0)"/>
    </g>
   </g>
   <g id="legend_1">
    <g id="patch_8">
     <path d="M 367.045156 283.841937 
L 463.073438 283.841937 
Q 465.273438 283.841937 465.273438 281.641937 
L 465.273438 266.241078 
Q 465.273438 264.041078 463.073438 264.041078 
L 367.045156 264.041078 
Q 364.845156 264.041078 364.845156 266.241078 
L 364.845156 281.641937 
Q 364.845156 283.841937 367.045156 283.841937 
z
" style="fill: #ffffff; opacity: 0.94; stroke: #cccccc; stroke-linejoin: miter"/>
    </g>
    <g id="line2d_32">
     <path d="M 369.245156 272.949359 
L 380.245156 272.949359 
L 380.245156 272.949359 
L 391.245156 272.949359 
L 391.245156 272.949359 
" style="fill: none; stroke: #1f77b4; stroke-width: 2.8; stroke-linecap: square"/>
    </g>
    <g id="text_20">
     <!-- kuiper_784 -->
     <g transform="translate(400.045156 276.799359) scale(0.11 -0.11)">
      <defs>
       <path id="DejaVuSans-4e" d="M 581 4863 
L 1159 4863 
L 1159 1991 
L 2875 3500 
L 3609 3500 
L 1753 1863 
L 3688 0 
L 2938 0 
L 1159 1709 
L 1159 0 
L 581 0 
L 581 4863 
z
" transform="scale(0.015625)"/>
       <path id="DejaVuSans-53" d="M 1159 525 
L 1159 -1331 
L 581 -1331 
L 581 3500 
L 1159 3500 
L 1159 2969 
Q 1341 3281 1617 3432 
Q 1894 3584 2278 3584 
Q 2916 3584 3314 3078 
Q 3713 2572 3713 1747 
Q 3713 922 3314 415 
Q 2916 -91 2278 -91 
Q 1894 -91 1617 61 
Q 1341 213 1159 525 
z
M 3116 1747 
Q 3116 2381 2855 2742 
Q 2594 3103 2138 3103 
Q 1681 3103 1420 2742 
Q 1159 2381 1159 1747 
Q 1159 1113 1420 752 
Q 1681 391 2138 391 
Q 2594 391 2855 752 
Q 3116 1113 3116 1747 
z
" transform="scale(0.015625)"/>
       <path id="DejaVuSans-55" d="M 2631 2963 
Q 2534 3019 2420 3045 
Q 2306 3072 2169 3072 
Q 1681 3072 1420 2755 
Q 1159 2438 1159 1844 
L 1159 0 
L 581 0 
L 581 3500 
L 1159 3500 
L 1159 2956 
Q 1341 3275 1631 3429 
Q 1922 3584 2338 3584 
Q 2397 3584 2469 3576 
Q 2541 3569 2628 3553 
L 2631 2963 
z
" transform="scale(0.015625)"/>
       <path id="DejaVuSans-42" d="M 3263 -1063 
L 3263 -1509 
L -63 -1509 
L -63 -1063 
L 3263 -1063 
z
" transform="scale(0.015625)"/>
      </defs>
      <use xlink:href="#DejaVuSans-4e"/>
      <use xlink:href="#DejaVuSans-58" transform="translate(54.828125 0)"/>
      <use xlink:href="#DejaVuSans-4c" transform="translate(118.203125 0)"/>
      <use xlink:href="#DejaVuSans-53" transform="translate(145.984375 0)"/>
      <use xlink:href="#DejaVuSans-48" transform="translate(209.46875 0)"/>
      <use xlink:href="#DejaVuSans-55" transform="translate(271 0)"/>
      <use xlink:href="#DejaVuSans-42" transform="translate(312.109375 0)"/>
      <use xlink:href="#DejaVuSans-1a" transform="translate(362.109375 0)"/>
      <use xlink:href="#DejaVuSans-1b" transform="translate(425.734375 0)"/>
      <use xlink:href="#DejaVuSans-17" transform="translate(489.359375 0)"/>
     </g>
    </g>
   </g>
  </g>
 </g>
 <defs>
  <clipPath id="p1c28129bf6">
   <rect x="46.693438" y="23.229937" width="424.08" height="266.112"/>
  </clipPath>
 </defs>
</svg>
